<svg xmlns="http://www.w3.org/2000/svg" version="1.1" xmlns:xlink="http://www.w3.org/1999/xlink" width="512" height="512" x="0" y="0" viewBox="0 0 512 512" style="enable-background:new 0 0 512 512" xml:space="preserve" class=""><g><circle cx="256" cy="256" r="256" fill="#ffce00" opacity="1" data-original="#ffce00"></circle><path fill="#f9ac00" d="M262.855 511.91C401.071 508.276 512 395.093 512 256c0-15.344-1.35-30.373-3.938-44.973L407.628 110.593l-11.987 50.858-50.861-50.861-1.724 46.98-62.215-62.185-6.402 81.361-66.165-66.164-12.13 50.76-50.741-50.741-63.288 80.873L265.441 374.8z" opacity="1" data-original="#f9ac00" class=""></path><path fill="#555a66" d="m94.374 178.307 20.01-20.996 145.73 138.886-20.01 20.996z" opacity="1" data-original="#555a66"></path><path fill="#333940" d="M252.036 296.588 397.766 157.7l20.01 20.996-145.73 138.887z" opacity="1" data-original="#333940"></path><path fill="#ffffff" d="M104.368 110.599h41.029v46.36h-41.029zM167.219 110.599h41.029v46.36h-41.029z" opacity="1" data-original="#ffffff"></path><path fill="#e9edf5" d="M303.752 110.599h41.029v46.36h-41.029zM366.603 110.599h41.029v46.36h-41.029z" opacity="1" data-original="#e9edf5"></path><path fill="#7e8596" d="M231.114 95.413v415.379c8.189.791 16.489 1.208 24.886 1.208s16.697-.417 24.886-1.208V95.413z" opacity="1" data-original="#7e8596" class=""></path><path fill="#636978" d="M256.121 95.413h24.766v415.379h-24.766z" opacity="1" data-original="#636978" class=""></path><path fill="#636978" d="M82.115 144.403h347.771v47.071H82.115z" opacity="1" data-original="#636978" class=""></path><path fill="#414952" d="M256.121 144.403h173.765v47.071H256.121z" opacity="1" data-original="#414952"></path></g></svg>