<svg xmlns="http://www.w3.org/2000/svg" version="1.1" xmlns:xlink="http://www.w3.org/1999/xlink" width="512" height="512" x="0" y="0" viewBox="0 0 512 512" style="enable-background:new 0 0 512 512" xml:space="preserve" class=""><g><circle cx="256" cy="256" r="256" fill="#7883ee" opacity="1" data-original="#7883ee" class=""></circle><path fill="#4652ca" d="m309.068 96.529-14.255 14.255-10.932-10.932-11.595 11.595-11.595-11.595-11.595 11.595L237.5 99.852l-12.424 12.424 51.912 51.912-82.959 82.959-68.201-68.201-39.239 39.239 20.999 20.999-44.753 44.753 225.977 225.977c112.638-14.412 202.376-102.025 220.021-213.62z" opacity="1" data-original="#4652ca" class=""></path><path fill="#44ddd0" d="M398.557 403.47c-20.541 0-33.902-19.035-24.715-35.214l24.715-43.526 4.549 41.5z" opacity="1" data-original="#44ddd0"></path><path fill="#2ebfae" d="M398.557 403.47v-78.74l24.715 43.526c9.187 16.179-4.173 35.214-24.715 35.214z" opacity="1" data-original="#2ebfae"></path><path fill="#e9edf5" d="M115.33 205.194v52.495h151.742l10.499-23.962-10.499-28.533z" opacity="1" data-original="#e9edf5"></path><path fill="#e9edf5" d="M372.31 265.872v37.889h52.495v-37.889c0-33.458-27.22-60.678-60.678-60.678h-97.055v52.495h97.055c4.512 0 8.183 3.671 8.183 8.183z" opacity="1" data-original="#e9edf5"></path><path fill="#ffffff" d="M256.573 104.403v52.496h10.499l4.385-26.248-4.385-26.248z" opacity="1" data-original="#ffffff" class=""></path><path fill="#e9edf5" d="M267.072 104.403h10.499v52.495h-10.499z" opacity="1" data-original="#e9edf5"></path><path fill="#e9edf5" d="M240.778 154.799v26.247h26.294l5.25-13.124-5.25-13.123z" opacity="1" data-original="#e9edf5"></path><path fill="#cdd2e1" d="M267.072 154.799h26.201v26.248h-26.201z" opacity="1" data-original="#cdd2e1"></path><path fill="#e9edf5" d="M225.076 96.529v15.749h41.996l4.385-7.875-4.385-7.874z" opacity="1" data-original="#e9edf5"></path><path fill="#cdd2e1" d="M267.072 96.529h41.996v15.749h-41.996z" opacity="1" data-original="#cdd2e1"></path><path fill="#ffffff" d="M214.577 178.946v104.991h52.495l8.708-52.495-8.708-52.496z" opacity="1" data-original="#ffffff" class=""></path><path fill="#e9edf5" d="M267.072 178.946h52.495v104.991h-52.495z" opacity="1" data-original="#e9edf5"></path><path fill="#ffffff" d="M62.835 178.946h62.994v104.991H62.835z" opacity="1" data-original="#ffffff" class=""></path></g></svg>