<svg xmlns="http://www.w3.org/2000/svg" version="1.1" xmlns:xlink="http://www.w3.org/1999/xlink" width="512" height="512" x="0" y="0" viewBox="0 0 512 512" style="enable-background:new 0 0 512 512" xml:space="preserve" class=""><g><circle cx="256" cy="256" r="256" fill="#ff6c52" opacity="1" data-original="#ff6c52" class=""></circle><path fill="#f92814" d="M512 256c0-10.921-.684-21.683-2.012-32.245L409.55 123.317 89.045 398.771 194.95 504.675C214.514 509.462 234.96 512 256 512c141.385 0 256-114.615 256-256z" opacity="1" data-original="#f92814"></path><path fill="#ffffff" d="M302.715 74.922c-78.5 0-142.138 63.637-142.138 142.138 0 78.5 63.637 142.138 142.138 142.138.081 0 .161-.003.241-.003l10-149.064-10-135.206c-.08 0-.16-.003-.241-.003z" opacity="1" data-original="#ffffff"></path><path fill="#e9edf5" d="M302.715 74.922c78.501 0 142.138 63.637 142.138 142.138s-63.637 142.138-142.138 142.138z" opacity="1" data-original="#e9edf5"></path><path fill="#ffce00" d="m302.715 106.054-.231.003v107.697l97.529 56.771c8.733-15.86 13.707-34.081 13.707-53.466.001-61.306-49.698-111.005-111.005-111.005z" opacity="1" data-original="#ffce00"></path><path fill="#636978" d="M287.891 120.452v104.085l15.066 8.862 7.544-56.474-7.544-56.473z" opacity="1" data-original="#636978"></path><path fill="#414952" d="m367.204 271.191-64.72-38.07V120.452h15.407v86.926l64.524 37.954z" opacity="1" data-original="#414952"></path><path fill="#ffce00" d="M204.748 202.33 89.045 398.771h115.899l10-81.112-10-114.996z" opacity="1" data-original="#ffce00"></path><path fill="#fdba12" d="M204.747 398.771V202.33l115.702 196.441z" opacity="1" data-original="#fdba12"></path><path fill="#636978" d="M189.747 253.375v79.167h15.197l10-39.584-10-39.583z" opacity="1" data-original="#636978"></path><path fill="#414952" d="M204.747 253.374h15v79.167h-15z" opacity="1" data-original="#414952"></path><path fill="#636978" d="M189.747 353.067v32.253h15.197l10-16.127-10-16.126z" opacity="1" data-original="#636978"></path><path fill="#414952" d="M204.747 353.067h15v32.253h-15z" opacity="1" data-original="#414952"></path></g></svg>