<svg xmlns="http://www.w3.org/2000/svg" version="1.1" xmlns:xlink="http://www.w3.org/1999/xlink" width="512" height="512" x="0" y="0" viewBox="0 0 512 512" style="enable-background:new 0 0 512 512" xml:space="preserve" class="hovered-paths"><g><circle cx="256" cy="256" r="256" fill="#5e96f0" opacity="1" data-original="#5e96f0" class="hovered-path"></circle><path fill="#3863e7" d="m378.676 79.314-23.941 23.941 9.191 9.191-51.896 51.896-40.648-40.648-49.307 49.307-73.735-73.735-3.969 3.969-20.792 20.792 88.307 88.307-111.524 111.525 20.666 20.666-4.184 4.184 72.255 72.255-14.216 14.216.292 4.649 72.003 72.003c2.93.099 5.868.168 8.823.168 141.385 0 256-114.615 256-256 0-20.381-2.395-40.201-6.895-59.206L385.929 77.618z" opacity="1" data-original="#3863e7"></path><path fill="#e9edf5" d="m95.927 96.373 27.654 27.654 18.243 6.94 86.889 86.888 6.728-6.728-51.544-59.258-75.59-67.876z" opacity="1" data-original="#e9edf5" class=""></path><path fill="#cdd2e1" d="m155.281 117.51-6.939-18.243-27.655-27.655-12.38 12.381 127.134 127.134 6.729-6.728z" opacity="1" data-original="#cdd2e1"></path><path fill="#f7d046" d="m220.814 234.179 72.856 72.856 26.057-11.622-35.529-48.986-48.986-35.529z" opacity="1" data-original="#f7d046"></path><path fill="#f3bd44" d="M331.349 269.356 258.493 196.5l-23.281 14.398 84.515 84.515z" opacity="1" data-original="#f3bd44"></path><path fill="#f3bd44" d="m206.934 220.298 13.88 13.881 18.84-18.84-1.409-12.471-12.472-1.409z" opacity="1" data-original="#f3bd44"></path><path fill="#f2a73b" d="m225.728 201.463 18.837-18.837 13.878 13.879-18.837 18.836z" opacity="1" data-original="#f2a73b"></path><path fill="#f3bd44" d="m293.67 307.035 17.631 4.577 12.313-12.312 1.176-12.281-12.281 1.176z" opacity="1" data-original="#f3bd44"></path><path fill="#f2a73b" d="m331.349 269.356-18.84 18.839 11.105 11.105 12.313-12.313z" opacity="1" data-original="#f2a73b"></path><path fill="#ffffff" d="m360.714 102.833 25.215-25.215c-14.036-6.399-31.159-3.828-42.709 7.721-11.549 11.549-14.12 28.673-7.721 42.709l-111.05 111.051c-14.036-6.398-31.159-3.828-42.709 7.721-11.549 11.549-14.12 28.673-7.721 42.709l25.215-25.215 9.42 9.42 86.363-75.117 75.117-86.363z" opacity="1" data-original="#ffffff"></path><path fill="#e9edf5" d="M192.858 308.368c14.036 6.398 31.159 3.828 42.709-7.721 11.549-11.549 14.12-28.673 7.721-42.709l111.051-111.051c14.036 6.398 31.159 3.828 42.709-7.721s14.12-28.673 7.721-42.709l-25.215 25.215-9.42-9.42-161.48 161.48 9.42 9.42z" opacity="1" data-original="#e9edf5" class=""></path><path fill="#ffffff" d="M182.943 323.859c0-40.348 32.709-73.057 73.057-73.057l10.17-35.174L256 184.703h-24.849v32.702a108.677 108.677 0 0 0-32.833 13.63l-23.145-23.145-35.143 35.143 23.145 23.145a108.688 108.688 0 0 0-13.63 32.833h-32.702v49.699h32.702a108.688 108.688 0 0 0 13.63 32.833l-23.145 23.145 35.143 35.143 23.145-23.145a108.688 108.688 0 0 0 32.833 13.63v32.702H256l10.17-29.371-10.17-36.73c-40.349 0-73.057-32.709-73.057-73.058z" opacity="1" data-original="#ffffff"></path><path fill="#e9edf5" d="M280.849 430.314a108.705 108.705 0 0 0 32.832-13.629l23.145 23.145 35.143-35.143-23.145-23.145a108.688 108.688 0 0 0 13.63-32.833h32.702V299.01h-32.702a108.694 108.694 0 0 0-13.63-32.834l23.145-23.145-35.143-35.143-23.145 23.145a108.68 108.68 0 0 0-32.832-13.629v-32.702H256v66.099c40.349 0 73.057 32.709 73.057 73.057S296.349 396.917 256 396.917v66.099h24.849z" opacity="1" data-original="#e9edf5" class=""></path><path fill="#f3bd44" d="M256 138.464h-40.344a137.634 137.634 0 0 0-26.527 11.186 138.64 138.64 0 0 0-17.322 11.334l-5.696 15.966-10.946-.97c-23.48 24.845-37.876 58.335-37.876 95.219v23.245H256l14.336-71.399z" opacity="1" data-original="#f3bd44"></path><path fill="#f2a73b" d="M256 138.464h40.344a137.634 137.634 0 0 1 26.527 11.186 138.64 138.64 0 0 1 17.322 11.334l5.696 15.966 10.946-.97c23.48 24.845 37.876 58.335 37.876 95.219v23.245H256z" opacity="1" data-original="#f2a73b"></path><path fill="#ee9e54" d="M215.656 138.464v155.933H256l14.336-77.944L256 132.487a138.594 138.594 0 0 0-40.344 5.977z" opacity="1" data-original="#ee9e54"></path><path fill="#e97b41" d="M296.344 138.464v155.933H256v-161.91a138.59 138.59 0 0 1 40.344 5.977z" opacity="1" data-original="#e97b41"></path><path fill="#f3bd44" d="M256 123.694h-15.382a1268.471 1268.471 0 0 0-13.289 170.703H256l14.336-77.944z" opacity="1" data-original="#f3bd44"></path><path fill="#f2a73b" d="M256 123.694h15.382a1268.471 1268.471 0 0 1 13.289 170.703H256z" opacity="1" data-original="#f2a73b"></path><path fill="#ee9e54" d="m182.382 216.335-10.575-55.352a139.514 139.514 0 0 0-16.642 14.996l8.397 43.952a9.58 9.58 0 0 0 9.41 7.782c6.012 0 10.538-5.473 9.41-11.378z" opacity="1" data-original="#ee9e54"></path><path fill="#e97b41" d="m329.618 216.335 10.575-55.352a139.514 139.514 0 0 1 16.642 14.996l-8.397 43.952a9.58 9.58 0 0 1-9.41 7.782c-6.012 0-10.538-5.473-9.41-11.378z" opacity="1" data-original="#e97b41"></path><path fill="#f7d046" d="M256 292.732H100.362v31.127H256l14.336-15.563z" opacity="1" data-original="#f7d046"></path><path fill="#f3bd44" d="M256 292.732h155.638v31.128H256z" opacity="1" data-original="#f3bd44"></path></g></svg>