<svg xmlns="http://www.w3.org/2000/svg" version="1.1" xmlns:xlink="http://www.w3.org/1999/xlink" width="512" height="512" x="0" y="0" viewBox="0 0 512 512" style="enable-background:new 0 0 512 512" xml:space="preserve" class=""><g><circle cx="256" cy="256" r="256" fill="#4a7aff" opacity="1" data-original="#4a7aff" class=""></circle><path fill="#0053bf" d="M283.648 510.51C412.028 496.721 512 388.042 512 256c0-9.616-.548-19.102-1.581-28.442L458.861 176l-1.563 2.048L438.25 159 214.2 223.465 149.735 159 53.139 280z" opacity="1" data-original="#0053bf" class=""></path><path fill="#ffffff" d="M53.139 176v104h188.728L256 254.333l-2-38.833 25 38.833L264.867 280h193.994V176z" opacity="1" data-original="#ffffff" class=""></path><path fill="#e9edf5" d="M256 176v42.607l23 35.726L264.867 280h193.994V176z" opacity="1" data-original="#e9edf5"></path><path fill="#dce1eb" d="M73.75 159h75.985v138H73.75z" opacity="1" data-original="#dce1eb"></path><g fill="#bec3d2"><path d="M73.75 215.5h75.985v25H73.75zM73.75 172h75.985v25H73.75zM73.75 259h75.985v25H73.75zM362.265 159h75.985v138h-75.985z" fill="#bec3d2" opacity="1" data-original="#bec3d2"></path></g><path fill="#9196aa" d="M362.265 215.5h75.985v25h-75.985zM362.265 172h75.985v25h-75.985zM362.265 259h75.985v25h-75.985z" opacity="1" data-original="#9196aa"></path><path fill="#00edff" d="M200.75 396.75C200.75 366.236 256 308 256 308s55.25 58.236 55.25 88.75S286.514 452 256 452s-55.25-24.736-55.25-55.25z" opacity="1" data-original="#00edff"></path><path fill="#0ac0ea" d="M256 308v144c30.514 0 55.25-24.736 55.25-55.25S256 308 256 308z" opacity="1" data-original="#0ac0ea"></path></g></svg>