<svg xmlns="http://www.w3.org/2000/svg" version="1.1" xmlns:xlink="http://www.w3.org/1999/xlink" width="512" height="512" x="0" y="0" viewBox="0 0 512 512" style="enable-background:new 0 0 512 512" xml:space="preserve" class=""><g><circle cx="256" cy="256" r="256" style="" fill="#ffc565" data-original="#ffc565"></circle><path d="m503.664 320.999-91.959-91.958L255.998 79.667 100.291 229.041l27.981 29.167 17.035 16.9V374l136.694 136.694c107.293-10.823 195.02-87.901 221.663-189.695z" style="" fill="#ffac1f" data-original="#ffac1f"></path><path d="M366.69 374H145.307V221.884l110.692-108.395L366.69 221.884z" style="" fill="#ffffff" data-original="#ffffff"></path><path d="M366.689 221.88V374h-110.69V113.49z" style="" fill="#fff7d6" data-original="#fff7d6"></path><path d="M383.724 258.208 255.998 135.677 128.272 258.208l-27.981-29.167L255.998 79.667l155.708 149.374z" style="" fill="#ff7c51" data-original="#ff7c51" class=""></path><path d="m411.708 229.04-27.98 29.17-17.039-16.35-110.69-106.18V79.67z" style="" fill="#ff4d0b" data-original="#ff4d0b"></path><path d="M219.75 258.21h72.49V374h-72.49z" style="" fill="#00fcef" data-original="#00fcef"></path><path d="M256 258.21h36.24V374H256z" style="" fill="#00e2cd" data-original="#00e2cd"></path><path d="M503.11 323.11c-6.68 24.67-16.97 47.87-30.24 68.98 0 .01-.01.01-.01.01C427.56 464.13 347.37 512 256 512c-91.36 0-171.55-47.87-216.85-119.89a254.563 254.563 0 0 1-30.26-69c25.87 3 27.83 25.67 57.36 25.67 31.62 0 31.62-26 63.25-26 31.62 0 31.62 26 63.25 26 31.62 0 31.62-26 63.24-26 31.63 0 31.63 26 63.25 26 31.63 0 31.63-26 63.25-26 31.63 0 31.63 26 63.25 26 29.53 0 31.49-22.67 57.37-25.67z" style="" fill="#00b4fd" data-original="#00b4fd" class=""></path><path d="M503.11 323.11c-6.68 24.67-16.97 47.87-30.24 68.98 0 .01-.01.01-.01.01C427.56 464.13 347.37 512 256 512V322.78c31.62.01 31.62 26 63.24 26 31.63 0 31.63-26 63.25-26 31.63 0 31.63 26 63.25 26 29.53 0 31.49-22.67 57.37-25.67z" style="" fill="#0083f4" data-original="#0083f4" class=""></path><path d="M39.15 392.11c6.65 5.09 14.27 9.37 27.1 9.37 31.62 0 31.62-26 63.25-26 31.62 0 31.62 26 63.25 26 31.62 0 31.62-26 63.24-26 31.63 0 31.63 26 63.25 26 31.63 0 31.63-26 63.25-26 31.63 0 31.63 26 63.25 26 12.85 0 20.47-4.29 27.12-9.38C427.56 464.13 347.37 512 256 512c-91.36 0-171.55-47.87-216.85-119.89z" style="" fill="#0062bd" data-original="#0062bd"></path><path d="M472.86 392.1C427.56 464.13 347.37 512 256 512V375.48c31.62.01 31.62 26 63.24 26 31.63 0 31.63-26 63.25-26 31.63 0 31.63 26 63.25 26 12.85 0 20.47-4.29 27.12-9.38z" style="" fill="#004f9d" data-original="#004f9d" class=""></path></g></svg>