<svg xmlns="http://www.w3.org/2000/svg" version="1.1" xmlns:xlink="http://www.w3.org/1999/xlink" width="512" height="512" x="0" y="0" viewBox="0 0 512 512" style="enable-background:new 0 0 512 512" xml:space="preserve" class=""><g><circle cx="256" cy="256" r="256" fill="#5e96f0" opacity="1" data-original="#5e96f0" class=""></circle><path fill="#3863e7" d="m375.79 109.197-50.609 50.609 8.936 8.936-66.424 66.424L167.097 134.57l-3.085 3.085-29.442 29.442 100.596 100.596-67.357 67.357-8.936-8.936-50.609 50.609-2.132 7.789L232.54 510.919A259.2 259.2 0 0 0 256 512c141.385 0 256-114.615 256-256 0-7.911-.378-15.733-1.081-23.461L384.512 106.132z" opacity="1" data-original="#3863e7" class=""></path><path fill="#e9edf5" d="m98.242 130.769 36.329 36.329 23.966 9.116L272.68 290.357l8.839-8.838-67.712-77.846-99.301-89.167z" opacity="1" data-original="#e9edf5" class=""></path><path fill="#cdd2e1" d="m176.214 158.537-9.116-23.966-36.329-36.329-16.263 16.264 167.013 167.013 8.838-8.839z" opacity="1" data-original="#cdd2e1" class=""></path><path fill="#f7d046" d="m262.303 311.801 95.709 95.709 34.231-15.267-46.674-64.352-64.352-46.674z" opacity="1" data-original="#f7d046"></path><path fill="#f3bd44" d="m407.51 358.012-95.709-95.709-30.584 18.914 111.026 111.026z" opacity="1" data-original="#f3bd44"></path><path fill="#f3bd44" d="m244.069 293.567 18.234 18.234 24.749-24.749-1.85-16.384-16.384-1.85z" opacity="1" data-original="#f3bd44"></path><path fill="#f2a73b" d="m268.762 268.82 24.745-24.744 18.23 18.231-24.744 24.745z" opacity="1" data-original="#f2a73b"></path><path fill="#f3bd44" d="m358.012 407.51 23.161 6.013 16.175-16.175 1.546-16.132-16.133 1.545z" opacity="1" data-original="#f3bd44"></path><path fill="#f2a73b" d="m407.51 358.012-24.749 24.749 14.587 14.587 16.175-16.175z" opacity="1" data-original="#f2a73b"></path><path fill="#ffffff" d="m351.388 139.256 33.124-33.124c-18.439-8.406-40.933-5.029-56.105 10.143s-18.549 37.666-10.143 56.105L172.38 318.264c-18.439-8.406-40.933-5.029-56.105 10.143s-18.549 37.666-10.143 56.105l33.124-33.124 12.374 12.374 113.453-98.679 98.679-113.453z" opacity="1" data-original="#ffffff"></path><path fill="#e9edf5" d="M130.881 409.261c18.439 8.406 40.933 5.029 56.105-10.143s18.549-37.666 10.143-56.105l145.884-145.884c18.439 8.406 40.933 5.029 56.105-10.143s18.549-37.666 10.143-56.105l-33.124 33.124-12.374-12.374L151.63 363.762l12.374 12.374z" opacity="1" data-original="#e9edf5" class=""></path></g></svg>