<svg xmlns="http://www.w3.org/2000/svg" style="shape-rendering:geometricPrecision;text-rendering:geometricPrecision;image-rendering:optimizeQuality;fill-rule:evenodd;clip-rule:evenodd" viewBox="0 0 512 512">
  <g fill="currentColor">
  <path style="opacity:.95" d="M234 0h44c48 3 89 23 122 58l7 10v12l-23 161c0 2-2 5-4 6l-26 1a224762 224762 0 0 0 37 260l-3 4h-56l-68-60-1 56-3 4h-8c-3-2-5-5-5-8l-1-51-66 59h-56l-4-4v-12l38-248-26-1c-3-1-5-4-5-6L104 80V68c17-23 38-41 65-52 20-9 42-14 65-16Zm20 16c42-1 81 11 116 36l12 11-82 1c-4 2-5 4-4 8-1 3 0 5 4 7l90 1c-8 50-15 101-21 152H143L122 80l90-1c3-2 4-4 4-7 0-4-1-6-4-8l-82-1c24-24 54-39 89-44 11-2 23-3 35-3Zm1 72 2 1 34 50c8 22 2 39-20 49-23 7-40 0-52-19-4-11-3-21 1-30l35-51Zm-80 160h23l-30 247-30 1 37-248Zm51 1c7-1 14-2 22-1l-1 26-21-25Zm38-1h22l-22 26v-26Zm50 0h23l37 248-31-1-29-247Zm-100 14 31 36-41 49 10-85Zm83 0 1 3c4 27 7 54 9 82l-40-49 30-36Zm-50 60v92l-43-39 43-53Zm17 0 44 53c-15 12-30 25-44 39v-92Zm-66 71 45 39-56 50 11-89Zm115 0 11 89-55-50 44-39Z"/>
  <path style="opacity:.929" d="M252 64c3-1 7 0 10 2l42 61c15 29 8 54-18 73-29 14-54 9-76-13a55 55 0 0 1-3-60c14-22 29-43 45-63Zm3 24-35 51c-4 9-5 19-1 30 12 19 29 26 52 19 22-10 28-27 20-49l-34-50-2-1Z"/>
  <path style="opacity:.919" d="M268 144c10-1 14 4 11 15-5 14-15 19-29 15-3-4-3-8-1-12l12-5 4-11 3-2Z"/>
  </g>
</svg>
