<svg xmlns="http://www.w3.org/2000/svg" fill-rule="evenodd" clip-rule="evenodd" image-rendering="optimizeQuality" shape-rendering="geometricPrecision" text-rendering="geometricPrecision" viewBox="0 0 512 512">
  <g fill="currentColor">
  <path d="M58 0h243l11 5 78 79c2 3 4 6 5 11v140c-4 4-8 5-13 2l-2-5V101l-53-1c-18-4-28-14-32-31V16H61c-10 3-15 10-17 20v403c2 10 7 16 18 19l86 1c7 5 7 10 1 15H60c-19-4-29-15-32-33V34C31 16 41 5 58 0Zm253 28 57 56h-39c-10-2-15-8-18-17V28Z" opacity=".9"/>
  <path d="M87 85h128c4 2 6 6 4 12l-3 3H86c-6-6-6-11 1-15ZM88 137h249c7 4 7 9 2 15H86c-3-1-5-4-4-7-1-4 1-7 6-8ZM86 184h253c5 6 5 11-2 15H88c-5-1-7-4-6-8-1-3 1-6 4-7ZM308 512h-15l-23-13c-13 9-25 10-38 1l-5-7c-13 2-23-1-32-10l-4-10c-10 0-19-4-25-11l-3-10c-23-2-33-13-29-35l10-15-1-1-17 4c-5-1-9-1-13-3l-19-11c-7-6-9-14-6-22l68-113c5-4 11-5 18-3l22 13c7 8 11 17 10 28 6 5 14 6 22 4 10-5 21-8 32-9 9 0 18 3 26 8 11-4 23-6 35-8 10 1 20 4 30 9 4 2 9 2 14 1-4-14 0-25 11-34 8-6 17-11 27-13 5 0 10 3 14 8l64 108c4 7 3 14-2 21-9 6-18 11-28 15-6 1-12 0-17-1l-10 5c8 13 7 25-3 36-8 5-17 7-26 5-4 16-15 23-31 22-3 14-12 21-26 23l-12-3c-3 10-9 17-18 21ZM167 269c7 3 14 7 20 12 3 5 3 10 1 16l-51 86c-4 5-9 6-15 5l-19-11c21-37 42-73 64-108Zm234 0a290849 290849 0 0 1 66 108l-19 11c-7 1-12-1-16-6l-24-41c-4-4-9-4-13 0-1 2-2 5-1 8l25 42-9 7-102-61c-10-1-14 3-13 13-2 8-8 13-17 14v-38c2-7 6-12 13-14l30-7 33 10c6 1 12 0 18-2l7 9c9 3 13 0 12-9l-10-18c-2-7-1-13 5-17l15-9Zm-144 36c4-1 8 0 12 3-4 4-6 9-7 15v46c3 7 8 11 17 11 14-2 25-9 31-22l98 57c8 7 7 13-1 18h-6l-66-39c-8-4-13-2-15 6l1 5c18 11 35 22 54 32 3 3 4 7 3 12-2 4-6 6-11 5l-53-31c-11-1-14 3-10 13 12 8 25 16 39 23 7 8 6 14-5 19l-40-23c-10-1-13 3-10 13l19 11c5 11 2 16-10 16-7-3-13-7-18-11 7-19 1-31-17-38 3-22-6-34-28-35-6-16-16-22-32-19-4 1-8 3-11 6-10-12-22-15-36-8-2-2-2-4 0-6l45-74c11 6 22 7 35 3l22-8Zm-89 97c9 1 12 7 8 16l-10 14c-6 5-11 5-16-1l-1-7 11-17c2-3 5-4 8-5Zm37 6c9-1 13 3 12 13l-21 30c-5 6-11 6-17 1-1-3-2-6-1-8 8-13 17-25 27-36Zm31 20c10 1 13 7 8 17l-21 29c-5 3-9 3-13 0-4-4-4-8-2-12l20-28c2-3 5-5 8-6Zm18 34c11 0 14 5 10 16l-9 11c-8 3-13 0-15-8 2-8 7-14 14-19Z" opacity=".9"/>
  </g>
</svg>
