<?xml version="1.0" encoding="UTF-8"?>
<!DOCTYPE svg PUBLIC "-//W3C//DTD SVG 1.1//EN" "http://www.w3.org/Graphics/SVG/1.1/DTD/svg11.dtd">
<svg xmlns="http://www.w3.org/2000/svg" version="1.1" width="512px" height="512px" style="shape-rendering:geometricPrecision; text-rendering:geometricPrecision; image-rendering:optimizeQuality; fill-rule:evenodd; clip-rule:evenodd" xmlns:xlink="http://www.w3.org/1999/xlink">
<g><path style="opacity:0.93" fill="#000000" d="M 89.5,14.5 C 118.555,17.8906 132.555,34.2239 131.5,63.5C 132.734,92.2685 119.067,108.602 90.5,112.5C 61.4599,109.123 47.4599,92.7895 48.5,63.5C 47.4526,34.5666 61.1192,18.2333 89.5,14.5 Z M 85.5,30.5 C 101.895,30.0762 112.061,37.7429 116,53.5C 116.667,60.1667 116.667,66.8333 116,73.5C 111.287,91.4442 99.787,98.6109 81.5,95C 68.1602,88.7996 62.1602,78.2996 63.5,63.5C 62.6465,46.8362 69.9798,35.8362 85.5,30.5 Z"/></g>
<g><path style="opacity:0.949" fill="#000000" d="M 194.5,16.5 C 295.834,16.3333 397.167,16.5 498.5,17C 499.667,18.1667 500.833,19.3333 502,20.5C 502.667,39.5 502.667,58.5 502,77.5C 500.622,80.1083 498.455,81.6083 495.5,82C 491.179,82.499 486.846,82.6657 482.5,82.5C 482.667,134.168 482.5,185.834 482,237.5C 479.167,249.667 471.667,257.167 459.5,260C 427.5,260.333 395.5,260.667 363.5,261C 379.702,276.204 396.202,291.037 413,305.5C 416.5,316.667 412.667,320.5 401.5,317C 383,300.5 364.5,284 346,267.5C 327.5,284 309,300.5 290.5,317C 285.587,319.587 281.42,318.753 278,314.5C 277.21,311.366 277.543,308.366 279,305.5C 295.833,290.667 312.667,275.833 329.5,261C 297.167,260.667 264.833,260.333 232.5,260C 220.324,257.158 212.824,249.658 210,237.5C 209.5,185.834 209.333,134.168 209.5,82.5C 203.598,83.038 197.932,82.2047 192.5,80C 191.874,79.2496 191.374,78.4162 191,77.5C 190.333,58.5 190.333,39.5 191,20.5C 192.376,19.2949 193.542,17.9616 194.5,16.5 Z M 206.5,31.5 C 299.833,31.5 393.167,31.5 486.5,31.5C 486.5,43.1667 486.5,54.8333 486.5,66.5C 393.167,66.5 299.833,66.5 206.5,66.5C 206.5,54.8333 206.5,43.1667 206.5,31.5 Z M 224.5,82.5 C 305.5,82.5 386.5,82.5 467.5,82.5C 467.667,132.501 467.5,182.501 467,232.5C 465.379,239.789 460.879,243.955 453.5,245C 381.833,245.667 310.167,245.667 238.5,245C 231.121,243.955 226.621,239.789 225,232.5C 224.5,182.501 224.333,132.501 224.5,82.5 Z"/></g>
<g><path style="opacity:0.933" fill="#000000" d="M -0.5,269.5 C -0.5,228.167 -0.5,186.833 -0.5,145.5C 4.39547,127.441 16.0621,116.274 34.5,112C 44.5,111.333 54.5,111.333 64.5,112C 73.6369,120.136 82.4702,128.636 91,137.5C 100.202,128.629 109.702,120.129 119.5,112C 128.833,111.333 138.167,111.333 147.5,112C 165.039,115.872 176.539,126.372 182,143.5C 183.132,164.632 183.632,185.798 183.5,207C 183.333,226.167 183.167,245.333 183,264.5C 181.213,279.953 172.546,288.287 157,289.5C 152.781,289.279 148.781,288.279 145,286.5C 143.059,340.17 141.059,393.837 139,447.5C 133.518,464.167 122.018,471 104.5,468C 99.5449,466.524 95.2116,464.024 91.5,460.5C 80.8193,469.285 69.1527,470.785 56.5,465C 48.8807,460.272 44.3807,453.438 43,444.5C 41.5779,391.815 39.7446,339.148 37.5,286.5C 19.6638,292.247 6.99717,286.58 -0.5,269.5 Z M 41.5,126.5 C 46.8437,126.334 52.1771,126.501 57.5,127C 67.4704,135.97 77.1371,145.303 86.5,155C 90.3344,157.037 94.001,156.704 97.5,154C 106.53,144.636 115.863,135.636 125.5,127C 135.577,125.647 145.244,126.98 154.5,131C 160.999,135.165 165.166,140.998 167,148.5C 167.667,187.5 167.667,226.5 167,265.5C 163.776,273.346 158.276,275.513 150.5,272C 148.19,270.363 146.69,268.196 146,265.5C 145.667,240.167 145.333,214.833 145,189.5C 139.74,183.213 134.74,183.547 130,190.5C 129.5,209.164 129.333,227.83 129.5,246.5C 103.833,246.5 78.1667,246.5 52.5,246.5C 52.6666,227.497 52.4999,208.497 52,189.5C 49.0046,185.277 45.1712,184.111 40.5,186C 38.5125,187.319 37.3459,189.152 37,191.5C 36.6667,216.5 36.3333,241.5 36,266.5C 31.4005,273.538 25.5671,274.871 18.5,270.5C 16.2975,268.705 15.1308,266.371 15,263.5C 14.3333,225.5 14.3333,187.5 15,149.5C 19.0859,136.241 27.9193,128.574 41.5,126.5 Z M 53.5,261.5 C 78.8333,261.5 104.167,261.5 129.5,261.5C 127.843,322.17 126.01,382.837 124,443.5C 119.435,453.134 112.602,455.301 103.5,450C 101.898,448.065 100.731,445.899 100,443.5C 99.6667,390.167 99.3333,336.833 99,283.5C 96.0891,279.723 92.2558,278.556 87.5,280C 85.5125,281.319 84.3459,283.152 84,285.5C 83.6667,338.5 83.3333,391.5 83,444.5C 78.9366,452.723 72.77,454.889 64.5,451C 61.8647,449.039 60.0314,446.539 59,443.5C 56.6318,382.848 54.7984,322.182 53.5,261.5 Z"/></g>
<g><path style="opacity:0.911" fill="#000000" d="M 256.5,123.5 C 302.168,123.333 347.835,123.5 393.5,124C 399.819,126.142 401.653,130.309 399,136.5C 398.097,137.701 396.931,138.535 395.5,139C 348.5,139.667 301.5,139.667 254.5,139C 247.772,132.936 248.439,127.769 256.5,123.5 Z"/></g>
<g><path style="opacity:0.965" fill="#000000" d="M 253.5,153.5 C 315.501,153.333 377.501,153.5 439.5,154C 444.996,159.149 444.663,163.816 438.5,168C 377.167,168.667 315.833,168.667 254.5,168C 248.548,163.582 248.215,158.748 253.5,153.5 Z"/></g>
<g><path style="opacity:0.965" fill="#000000" d="M 254.5,181.5 C 315.834,181.333 377.168,181.5 438.5,182C 444.302,186.272 444.635,190.939 439.5,196C 377.5,196.667 315.5,196.667 253.5,196C 248.508,190.802 248.841,185.968 254.5,181.5 Z"/></g>
<g><path style="opacity:0.923" fill="#000000" d="M 211.5,346.5 C 238.628,347.46 251.128,361.46 249,388.5C 243.137,408.006 229.97,416.839 209.5,415C 188.363,409.182 179.197,395.349 182,373.5C 185.991,358.005 195.824,349.005 211.5,346.5 Z M 210.5,362.5 C 224.181,361.351 232.181,367.518 234.5,381C 231.024,397.571 221.357,402.904 205.5,397C 194.019,386.964 193.686,376.631 204.5,366C 206.727,365.059 208.727,363.892 210.5,362.5 Z"/></g>
<g><path style="opacity:0.921" fill="#000000" d="M 330.5,346.5 C 350.77,345.71 363.604,355.043 369,374.5C 371.252,395.892 362.086,409.392 341.5,415C 318.83,416.996 305.33,406.829 301,384.5C 300.578,363.767 310.411,351.1 330.5,346.5 Z M 330.5,362.5 C 349.033,362.528 356.2,371.528 352,389.5C 345.395,399.683 336.561,402.183 325.5,397C 313.549,386.504 313.549,375.837 325.5,365C 327.315,364.243 328.981,363.41 330.5,362.5 Z"/></g>
<g><path style="opacity:0.924" fill="#000000" d="M 450.5,346.5 C 476.46,347.292 489.293,360.625 489,386.5C 482.606,409.214 467.773,418.381 444.5,414C 427.158,406.988 419.325,394.154 421,375.5C 424.797,359.535 434.63,349.869 450.5,346.5 Z M 450.5,362.5 C 467.137,361.97 474.637,369.97 473,386.5C 466.498,399.828 456.664,402.995 443.5,396C 434.532,386.646 434.199,376.98 442.5,367C 445.099,365.205 447.766,363.705 450.5,362.5 Z"/></g>
<g><path style="opacity:0.952" fill="#000000" d="M 181.5,411.5 C 185.514,411.334 189.514,411.501 193.5,412C 203.038,423.633 214.705,426.3 228.5,420C 231.203,416.962 234.203,414.295 237.5,412C 254.974,410.321 266.474,417.821 272,434.5C 272.975,454.59 272.642,474.59 271,494.5C 270.25,495.126 269.416,495.626 268.5,496C 250.833,496.167 233.167,496.333 215.5,496.5C 197.079,496.655 178.746,496.155 160.5,495C 160,494.5 159.5,494 159,493.5C 158.333,473.833 158.333,454.167 159,434.5C 162.684,422.984 170.184,415.317 181.5,411.5 Z M 185.5,426.5 C 205.334,443.8 225.168,443.8 245,426.5C 251.405,428.573 255.405,432.906 257,439.5C 257.5,453.496 257.667,467.496 257.5,481.5C 229.5,481.5 201.5,481.5 173.5,481.5C 173.333,467.496 173.5,453.496 174,439.5C 175.617,433.058 179.45,428.725 185.5,426.5 Z"/></g>
<g><path style="opacity:0.952" fill="#000000" d="M 301.5,411.5 C 305.514,411.334 309.514,411.501 313.5,412C 327.787,427.326 342.12,427.326 356.5,412C 374.321,410.169 386.154,417.669 392,434.5C 392.667,454.167 392.667,473.833 392,493.5C 391.097,494.701 389.931,495.535 388.5,496C 352.415,496.987 316.415,496.653 280.5,495C 280,494.5 279.5,494 279,493.5C 278.333,473.833 278.333,454.167 279,434.5C 282.684,422.984 290.184,415.317 301.5,411.5 Z M 305.5,426.5 C 325.313,443.8 345.146,443.8 365,426.5C 371.405,428.573 375.405,432.906 377,439.5C 377.5,453.496 377.667,467.496 377.5,481.5C 349.5,481.5 321.5,481.5 293.5,481.5C 293.333,467.496 293.5,453.496 294,439.5C 295.617,433.058 299.45,428.725 305.5,426.5 Z"/></g>
<g><path style="opacity:0.952" fill="#000000" d="M 511.5,434.5 C 511.5,454.167 511.5,473.833 511.5,493.5C 510.373,494.122 509.373,494.955 508.5,496C 472.833,496.667 437.167,496.667 401.5,496C 399.667,495.5 398.5,494.333 398,492.5C 397.833,483 397.667,473.5 397.5,464C 397.38,453.111 397.88,442.278 399,431.5C 405.675,416.577 417.175,410.077 433.5,412C 447.791,427.327 462.124,427.327 476.5,412C 494.073,410.446 505.74,417.946 511.5,434.5 Z M 424.5,426.5 C 444.356,443.727 464.19,443.727 484,426.5C 490.405,428.573 494.405,432.906 496,439.5C 496.5,453.496 496.667,467.496 496.5,481.5C 468.5,481.5 440.5,481.5 412.5,481.5C 412.333,467.829 412.5,454.163 413,440.5C 414.257,433.621 418.09,428.955 424.5,426.5 Z"/></g>
</svg>
