<?xml version="1.0" encoding="UTF-8"?>
<!DOCTYPE svg PUBLIC "-//W3C//DTD SVG 1.1//EN" "http://www.w3.org/Graphics/SVG/1.1/DTD/svg11.dtd">
<svg xmlns="http://www.w3.org/2000/svg" version="1.1" width="512px" height="512px" style="shape-rendering:geometricPrecision; text-rendering:geometricPrecision; image-rendering:optimizeQuality; fill-rule:evenodd; clip-rule:evenodd" xmlns:xlink="http://www.w3.org/1999/xlink">
<g><path style="opacity:0.93" fill="#000000" d="M 240.5,31.5 C 301.032,28.7343 354.698,46.2343 401.5,84C 410.031,92.1966 418.198,100.697 426,109.5C 429.398,120.433 425.565,124.6 414.5,122C 365.617,66.9154 304.283,42.9154 230.5,50C 176.329,56.7458 131.662,80.7458 96.5,122C 86.8812,125.05 82.7146,121.55 84,111.5C 112.403,76.1336 148.57,52.3003 192.5,40C 208.432,35.9572 224.432,33.1239 240.5,31.5 Z"/></g>
<g><path style="opacity:0.928" fill="#000000" d="M 238.5,79.5 C 280.571,76.3645 319.238,86.1978 354.5,109C 357.656,111.157 360.489,113.657 363,116.5C 364.5,125.667 360.667,129.5 351.5,128C 301.158,92.9998 247.491,86.9998 190.5,110C 179.675,115.243 169.342,121.243 159.5,128C 150.333,129.5 146.5,125.667 148,116.5C 163.085,103.534 180.252,94.0341 199.5,88C 212.398,84.0561 225.398,81.2228 238.5,79.5 Z"/></g>
<g><path style="opacity:0.936" fill="#000000" d="M 111.5,142.5 C 150.634,143.466 169.134,163.466 167,202.5C 164.615,214.446 158.781,224.279 149.5,232C 168.482,239.995 183.816,252.495 195.5,269.5C 203.586,264.791 211.919,260.624 220.5,257C 202.032,242.284 194.532,223.117 198,199.5C 207.385,164.536 230.219,149.036 266.5,153C 301.459,162.371 316.959,185.205 313,221.5C 309.911,236.189 302.411,248.022 290.5,257C 298.995,260.497 307.161,264.664 315,269.5C 321.095,261.401 327.928,253.901 335.5,247C 343.545,240.976 352.212,235.976 361.5,232C 344.356,216.682 339.19,197.848 346,175.5C 353.738,156.369 367.905,145.536 388.5,143C 416.365,141.509 434.531,154.009 443,180.5C 447.37,201.034 441.87,218.368 426.5,232.5C 451.487,242.321 468.987,259.654 479,284.5C 481.655,308.155 471.488,322.655 448.5,328C 417.502,328.5 386.502,328.667 355.5,328.5C 355.272,346.467 346.939,358.967 330.5,366C 327.899,366.92 325.232,367.587 322.5,368C 300.167,368.167 277.833,368.333 255.5,368.5C 231.46,368.642 207.46,368.142 183.5,367C 165.477,360.443 156.144,347.61 155.5,328.5C 122.792,328.964 90.1255,328.464 57.5,327C 37.6536,319.828 29.1536,305.662 32,284.5C 42.013,259.654 59.513,242.321 84.5,232.5C 64.7979,212.806 61.2979,190.473 74,165.5C 83.0158,152.079 95.5158,144.412 111.5,142.5 Z M 112.5,159.5 C 139.161,160.325 151.661,173.991 150,200.5C 142.838,220.668 128.671,228.835 107.5,225C 90.6328,218.138 82.7994,205.638 84,187.5C 88.1148,172.551 97.6148,163.217 112.5,159.5 Z M 389.5,159.5 C 411.722,159.891 424.388,171.058 427.5,193C 426.372,208.798 418.372,219.465 403.5,225C 385.426,228.711 371.926,222.545 363,206.5C 357.099,189.543 361.266,175.709 375.5,165C 380.017,162.445 384.684,160.612 389.5,159.5 Z M 246.5,169.5 C 268.425,166.708 284.258,175.041 294,194.5C 299.969,212.788 296.136,228.622 282.5,242C 261.187,255.985 241.354,254.152 223,236.5C 211.109,217.659 211.776,199.326 225,181.5C 231.287,175.777 238.453,171.777 246.5,169.5 Z M 111.5,243.5 C 138.739,243.206 160.906,253.539 178,274.5C 179.874,276.569 180.874,278.902 181,281.5C 171.81,289.699 164.476,299.366 159,310.5C 127.572,311.662 96.0717,311.829 64.5,311C 52.1027,307.936 46.9361,300.103 49,287.5C 61.9477,261.731 82.7811,247.064 111.5,243.5 Z M 388.5,243.5 C 420.708,243.344 444.875,257.011 461,284.5C 465.179,298.31 460.346,307.143 446.5,311C 415.167,311.667 383.833,311.667 352.5,311C 346.855,299.697 339.355,289.863 330,281.5C 329.685,280.092 330.018,278.759 331,277.5C 345.257,257.791 364.423,246.458 388.5,243.5 Z M 242.5,269.5 C 283.581,265.957 314.748,281.623 336,316.5C 340.909,328.215 338.742,338.382 329.5,347C 326.618,348.608 323.618,349.941 320.5,351C 277.167,351.667 233.833,351.667 190.5,351C 173.801,344.765 168.635,333.265 175,316.5C 190.217,290.313 212.717,274.647 242.5,269.5 Z"/></g>
<g><path style="opacity:0.926" fill="#000000" d="M 62.5,351.5 C 67.1264,350.7 70.9597,352.034 74,355.5C 114.503,424.362 175.003,460.362 255.5,463.5C 337.501,459.521 399.168,422.355 440.5,352C 447.618,349.888 451.951,352.388 453.5,359.5C 430.796,405.702 395.796,439.202 348.5,460C 286.5,486 224.5,486 162.5,460C 115.415,439.246 80.415,405.913 57.5,360C 58.1498,356.528 59.8165,353.695 62.5,351.5 Z"/></g>
<g><path style="opacity:0.927" fill="#000000" d="M 120.5,351.5 C 123.649,351.211 126.649,351.711 129.5,353C 161.456,393.476 203.456,413.976 255.5,414.5C 307.511,413.992 349.511,393.492 381.5,353C 393.934,350.103 397.767,354.603 393,366.5C 345.103,421.355 285.27,441.522 213.5,427C 174.931,417.308 143.098,397.141 118,366.5C 114.102,360.551 114.935,355.551 120.5,351.5 Z"/></g>
</svg>
