<?xml version="1.0" encoding="UTF-8"?>
<!DOCTYPE svg PUBLIC "-//W3C//DTD SVG 1.1//EN" "http://www.w3.org/Graphics/SVG/1.1/DTD/svg11.dtd">
<svg xmlns="http://www.w3.org/2000/svg" version="1.1" width="512px" height="512px" style="shape-rendering:geometricPrecision; text-rendering:geometricPrecision; image-rendering:optimizeQuality; fill-rule:evenodd; clip-rule:evenodd" xmlns:xlink="http://www.w3.org/1999/xlink">
<g><path style="opacity:0.939" fill="#000000" d="M 57.5,-0.5 C 138.5,-0.5 219.5,-0.5 300.5,-0.5C 304.317,0.840466 307.983,2.6738 311.5,5C 337.667,31.1667 363.833,57.3333 390,83.5C 392.434,86.7954 394.101,90.462 395,94.5C 395.667,141.167 395.667,187.833 395,234.5C 391.339,238.976 387.006,239.643 382,236.5C 381.138,234.913 380.471,233.246 380,231.5C 379.5,187.835 379.333,144.168 379.5,100.5C 361.83,100.667 344.164,100.5 326.5,100C 309.333,96.1667 298.833,85.6667 295,68.5C 294.5,50.8365 294.333,33.1698 294.5,15.5C 216.499,15.3333 138.499,15.5 60.5,16C 51.0308,19.1363 45.5308,25.6363 44,35.5C 43.3333,169.833 43.3333,304.167 44,438.5C 45.6133,448.78 51.4466,455.28 61.5,458C 90.1667,458.333 118.833,458.667 147.5,459C 155.084,463.63 155.418,468.63 148.5,474C 118.833,474.667 89.1667,474.667 59.5,474C 41.4704,469.969 30.9704,458.802 28,440.5C 27.3333,304.833 27.3333,169.167 28,33.5C 30.9014,16.1018 40.7347,4.76848 57.5,-0.5 Z M 310.5,27.5 C 329.632,46.1316 348.632,64.965 367.5,84C 354.5,84.6667 341.5,84.6667 328.5,84C 319.333,81.5 313.5,75.6667 311,66.5C 310.5,53.5043 310.333,40.5043 310.5,27.5 Z"/></g>
<g><path style="opacity:0.935" fill="#000000" d="M 86.5,84.5 C 129.168,84.3333 171.835,84.5 214.5,85C 219.224,87.4353 220.724,91.2686 219,96.5C 217.833,97.6667 216.667,98.8333 215.5,100C 172.167,100.667 128.833,100.667 85.5,100C 79.9385,94.3527 80.2719,89.186 86.5,84.5 Z"/></g>
<g><path style="opacity:0.937" fill="#000000" d="M 87.5,136.5 C 170.501,136.333 253.501,136.5 336.5,137C 343.663,140.994 344.33,145.994 338.5,152C 254.167,152.667 169.833,152.667 85.5,152C 82.6339,150.607 81.3006,148.274 81.5,145C 81.4506,140.572 83.4506,137.738 87.5,136.5 Z"/></g>
<g><path style="opacity:0.937" fill="#000000" d="M 85.5,183.5 C 169.834,183.333 254.167,183.5 338.5,184C 344.33,190.006 343.663,195.006 336.5,199C 253.5,199.667 170.5,199.667 87.5,199C 83.3339,198.015 81.3339,195.348 81.5,191C 81.4302,187.634 82.7635,185.134 85.5,183.5 Z"/></g>
<g><path style="opacity:0.928" fill="#000000" d="M 307.5,511.5 C 302.5,511.5 297.5,511.5 292.5,511.5C 284.766,507.461 277.099,503.128 269.5,498.5C 257.178,508.487 244.512,508.987 231.5,500C 229.637,497.636 227.971,495.136 226.5,492.5C 214.11,495.092 203.61,491.759 195,482.5C 193.226,479.285 191.726,475.952 190.5,472.5C 180.59,472.591 172.424,468.924 166,461.5C 163.965,458.439 162.799,455.105 162.5,451.5C 139.908,450.413 130.408,438.747 134,416.5C 136.773,411.396 139.94,406.563 143.5,402C 143.167,401.667 142.833,401.333 142.5,401C 137.103,402.928 131.436,404.095 125.5,404.5C 121.015,404.462 116.681,403.629 112.5,402C 106.33,398.081 99.9969,394.414 93.5,391C 86.5574,384.818 84.7241,377.318 88,368.5C 110.374,330.917 132.874,293.417 155.5,256C 161.03,252.027 167.03,251.027 173.5,253C 181.094,256.935 188.427,261.268 195.5,266C 203.374,273.636 206.874,282.803 206,293.5C 212.456,298.574 219.623,300.074 227.5,298C 237.874,293.208 248.708,290.041 260,288.5C 269.032,289.455 277.532,292.122 285.5,296.5C 297.063,293.359 308.73,290.692 320.5,288.5C 330.951,290.224 340.951,293.391 350.5,298C 355.134,299.697 359.801,299.864 364.5,298.5C 361.317,285.059 364.984,273.893 375.5,265C 383.711,258.964 392.711,254.464 402.5,251.5C 408.428,252.213 413.261,254.88 417,259.5C 438.333,295.5 459.667,331.5 481,367.5C 484.6,374.903 483.933,381.903 479,388.5C 470.146,394.844 460.646,400.011 450.5,404C 444.68,404.95 439.013,404.45 433.5,402.5C 430.04,404.133 426.706,405.966 423.5,408C 432.118,420.777 431.118,432.777 420.5,444C 412.569,449.423 403.903,450.923 394.5,448.5C 390.799,464.873 380.465,472.206 363.5,470.5C 360.684,484.602 352.017,492.268 337.5,493.5C 333.46,493.199 329.627,492.199 326,490.5C 323.11,500.547 316.944,507.547 307.5,511.5 Z M 166.5,268.5 C 173.853,271.594 180.686,275.594 187,280.5C 189.905,285.651 190.238,290.985 188,296.5C 170.602,324.906 153.602,353.572 137,382.5C 132.983,387.593 127.816,389.426 121.5,388C 114.834,384.669 108.501,380.836 102.5,376.5C 123.845,340.472 145.178,304.472 166.5,268.5 Z M 400.5,268.5 C 401.822,268.33 402.989,268.663 404,269.5C 424.849,305.01 445.683,340.51 466.5,376C 461.003,381.132 454.67,385.132 447.5,388C 441.049,389.028 435.882,386.861 432,381.5C 424.252,367.669 416.252,354.002 408,340.5C 403.667,336.5 399.333,336.5 395,340.5C 393.578,343.03 393.245,345.697 394,348.5C 402.047,362.764 410.214,376.931 418.5,391C 415.947,393.627 412.947,395.793 409.5,397.5C 375.63,377.134 341.63,356.968 307.5,337C 298.128,335.704 293.962,339.871 295,349.5C 292.58,358.419 286.747,363.086 277.5,363.5C 277.333,350.829 277.5,338.162 278,325.5C 279.736,318.763 283.903,314.263 290.5,312C 300.51,309.497 310.51,306.997 320.5,304.5C 331.312,308.571 342.312,312.071 353.5,315C 359.688,315.58 365.688,314.747 371.5,312.5C 373.699,315.718 376.033,318.884 378.5,322C 387.58,325.215 391.747,322.048 391,312.5C 387.667,306.5 384.333,300.5 381,294.5C 378.615,287.982 380.115,282.482 385.5,278C 390.674,274.97 395.674,271.804 400.5,268.5 Z M 256.5,304.5 C 260.856,304.256 264.856,305.256 268.5,307.5C 265.244,312.013 263.078,317.013 262,322.5C 261.333,337.833 261.333,353.167 262,368.5C 264.969,375.97 270.469,379.637 278.5,379.5C 293.241,378.261 303.741,370.928 310,357.5C 342.5,376.667 375,395.833 407.5,415C 415.661,421.504 415.328,427.504 406.5,433C 404.5,433.667 402.5,433.667 400.5,433C 378.239,420.398 356.239,407.398 334.5,394C 326.921,389.624 321.921,391.624 319.5,400C 320,401.5 320.5,403 321,404.5C 338.584,415.71 356.417,426.543 374.5,437C 378.13,440.05 379.297,443.883 378,448.5C 375.647,453.426 371.814,455.26 366.5,454C 348.669,443.919 331.002,433.586 313.5,423C 303.234,421.759 299.9,425.925 303.5,435.5C 316.168,443.836 329.168,451.67 342.5,459C 350.139,467.318 348.639,473.485 338,477.5C 324.306,470.402 310.806,462.902 297.5,455C 287.932,454.239 284.765,458.406 288,467.5C 293.901,471.729 300.068,475.563 306.5,479C 312.038,489.928 308.705,495.261 296.5,495C 290.166,491.835 284.166,488.169 278.5,484C 286.128,465.414 280.461,452.581 261.5,445.5C 264.846,423.909 255.513,412.243 233.5,410.5C 228.18,395.334 217.513,389.167 201.5,392C 197.554,393.306 193.888,395.139 190.5,397.5C 180.739,385.678 168.906,383.012 155,389.5C 153.173,387.586 153.173,385.586 155,383.5C 169.631,358.552 184.631,333.885 200,309.5C 210.994,315.729 222.494,316.895 234.5,313C 241.904,310.037 249.238,307.204 256.5,304.5 Z M 167.5,401.5 C 176.977,403.457 179.81,408.79 176,417.5C 172.667,422.167 169.333,426.833 166,431.5C 160.375,436.935 155.042,436.602 150,430.5C 148.85,428.246 148.516,425.913 149,423.5C 152.418,417.663 156.084,411.996 160,406.5C 162.17,404.177 164.67,402.51 167.5,401.5 Z M 204.5,407.5 C 214.039,406.869 218.206,411.203 217,420.5C 210,430.5 203,440.5 196,450.5C 190.631,456.698 184.964,457.032 179,451.5C 177.75,448.923 177.416,446.257 178,443.5C 185.956,430.731 194.79,418.731 204.5,407.5 Z M 235.5,427.5 C 245.784,429.401 248.617,435.068 244,444.5C 236.833,454.333 229.667,464.167 222.5,474C 218.167,477.333 213.833,477.333 209.5,474C 206.197,470.205 205.697,466.038 208,461.5C 214.667,452.167 221.333,442.833 228,433.5C 230.134,430.847 232.634,428.847 235.5,427.5 Z M 253.5,461.5 C 264.579,462.055 268.079,467.388 264,477.5C 261.191,481.61 258.025,485.443 254.5,489C 246.632,491.898 241.632,489.231 239.5,481C 242.468,473.211 247.135,466.711 253.5,461.5 Z"/></g>
</svg>
