<?xml version="1.0" encoding="UTF-8"?>
<!DOCTYPE svg PUBLIC "-//W3C//DTD SVG 1.1//EN" "http://www.w3.org/Graphics/SVG/1.1/DTD/svg11.dtd">
<svg xmlns="http://www.w3.org/2000/svg" version="1.1" width="512px" height="512px" style="shape-rendering:geometricPrecision; text-rendering:geometricPrecision; image-rendering:optimizeQuality; fill-rule:evenodd; clip-rule:evenodd" xmlns:xlink="http://www.w3.org/1999/xlink">
<g><path style="opacity:0.948" fill="#000000" d="M 363.5,-0.5 C 406.833,-0.5 450.167,-0.5 493.5,-0.5C 502.667,3.33251 508.667,9.99918 511.5,19.5C 511.5,44.8333 511.5,70.1667 511.5,95.5C 508.672,105.827 502.006,112.327 491.5,115C 482.167,115.333 472.833,115.667 463.5,116C 437.167,132.5 410.833,149 384.5,165.5C 384.167,164.833 383.833,164.167 383.5,163.5C 386.601,147.561 389.268,131.561 391.5,115.5C 381.42,115.923 371.42,115.423 361.5,114C 353.48,110.649 348.313,104.816 346,96.5C 345.333,70.1667 345.333,43.8333 346,17.5C 348.683,8.318 354.517,2.318 363.5,-0.5 Z M 368.5,16.5 C 408.501,16.3333 448.501,16.5 488.5,17C 489.931,17.4652 491.097,18.2986 492,19.5C 493.149,32.0752 493.649,44.7418 493.5,57.5C 493.333,69.5 493.167,81.5 493,93.5C 491.661,96.0943 489.494,97.5943 486.5,98C 476.833,98.3333 467.167,98.6667 457.5,99C 441.167,109.167 424.833,119.333 408.5,129.5C 408.167,129 407.833,128.5 407.5,128C 409.438,118.207 411.104,108.374 412.5,98.5C 398.163,98.6666 383.829,98.4999 369.5,98C 367.152,97.6541 365.319,96.4875 364,94.5C 362.363,70.5631 362.03,46.5631 363,22.5C 364.36,19.9774 366.193,17.9774 368.5,16.5 Z"/></g>
<g><path style="opacity:0.93" fill="#000000" d="M -0.5,186.5 C -0.5,185.833 -0.5,185.167 -0.5,184.5C 4.43633,182.074 9.26966,179.407 14,176.5C 19.4049,184.3 24.5716,192.3 29.5,200.5C 55.4482,109.718 114.115,52.5514 205.5,29C 245.199,20.8594 284.532,22.3594 323.5,33.5C 322.577,39.2679 321.244,44.9345 319.5,50.5C 240.348,29.3753 170.015,45.542 108.5,99C 79.4255,126.966 59.4255,160.466 48.5,199.5C 48.8333,200.167 49.1667,200.833 49.5,201.5C 55.6697,197.581 62.0031,193.914 68.5,190.5C 72.9175,194.715 75.7508,199.715 77,205.5C 61.2501,215.292 45.4167,224.959 29.5,234.5C 19.4891,218.472 9.48911,202.472 -0.5,186.5 Z"/></g>
<g><path style="opacity:0.963" fill="#000000" d="M 378.5,32.5 C 411.833,32.5 445.167,32.5 478.5,32.5C 478.5,38.1667 478.5,43.8333 478.5,49.5C 445.167,49.5 411.833,49.5 378.5,49.5C 378.5,43.8333 378.5,38.1667 378.5,32.5 Z"/></g>
<g><path style="opacity:0.958" fill="#000000" d="M 378.5,65.5 C 400.833,65.5 423.167,65.5 445.5,65.5C 445.5,71.1667 445.5,76.8333 445.5,82.5C 423.167,82.5 400.833,82.5 378.5,82.5C 378.5,76.8333 378.5,71.1667 378.5,65.5 Z"/></g>
<g><path style="opacity:0.892" fill="#000000" d="M 460.5,65.5 C 466.5,65.5 472.5,65.5 478.5,65.5C 478.5,71.1667 478.5,76.8333 478.5,82.5C 472.5,82.5 466.5,82.5 460.5,82.5C 460.5,76.8333 460.5,71.1667 460.5,65.5 Z"/></g>
<g><path style="opacity:0.941" fill="#000000" d="M 180.5,511.5 C 173.167,511.5 165.833,511.5 158.5,511.5C 149.504,509.325 141.171,505.491 133.5,500C 93,459.5 52.5,419 12,378.5C 5.36487,369.402 1.1982,359.402 -0.5,348.5C -0.5,344.167 -0.5,339.833 -0.5,335.5C 1.20349,324.578 5.37016,314.578 12,305.5C 26,291.5 40,277.5 54,263.5C 74.6806,284.014 95.1806,304.68 115.5,325.5C 104.514,336.986 93.3476,348.319 82,359.5C 80,362.5 80,365.5 82,368.5C 91.3333,377.833 100.667,387.167 110,396.5C 115.953,372.884 130.453,357.384 153.5,350C 173.435,346.046 193.435,342.546 213.5,339.5C 213.657,338.127 213.49,336.793 213,335.5C 191.724,322.636 178.558,303.969 173.5,279.5C 160.043,276.88 151.543,268.88 148,255.5C 147.333,228.833 147.333,202.167 148,175.5C 157.154,124.68 186.987,93.8462 237.5,83C 291.182,77.4165 330.015,98.5831 354,146.5C 358.228,156.08 360.895,166.08 362,176.5C 362.667,215.833 362.667,255.167 362,294.5C 359.752,302.42 354.919,308.253 347.5,312C 338.894,313.21 330.227,313.877 321.5,314C 314.446,322.442 306.279,329.609 297,335.5C 296.51,336.793 296.343,338.127 296.5,339.5C 316.565,342.546 336.565,346.046 356.5,350C 374.619,355.12 387.452,366.287 395,383.5C 401.735,403.87 408.568,424.204 415.5,444.5C 356.836,445.333 298.17,445.833 239.5,446C 243,449.5 246.5,453 250,456.5C 250.667,457.5 250.667,458.5 250,459.5C 235.167,473 220.333,486.5 205.5,500C 197.834,505.503 189.501,509.336 180.5,511.5 Z M 242.5,99.5 C 284.304,96.6472 315.47,113.314 336,149.5C 345.074,171.324 347.907,193.99 344.5,217.5C 342.358,216.399 340.192,215.399 338,214.5C 337.502,211.518 337.335,208.518 337.5,205.5C 314.768,206.818 294.102,200.985 275.5,188C 268.655,181.82 261.822,175.654 255,169.5C 247.474,176.693 239.641,183.526 231.5,190C 213.233,201.734 193.233,206.9 171.5,205.5C 171.5,208.833 171.5,212.167 171.5,215.5C 169.323,215.586 167.323,216.253 165.5,217.5C 159.042,181.065 168.375,149.565 193.5,123C 207.824,110.837 224.158,103.003 242.5,99.5 Z M 254.5,193.5 C 273.044,210.766 295.044,220.433 320.5,222.5C 320.667,238.837 320.5,255.17 320,271.5C 318.933,280.034 316.266,288.034 312,295.5C 292.91,296.493 273.743,296.826 254.5,296.5C 254.5,302.167 254.5,307.833 254.5,313.5C 268.504,313.333 282.504,313.5 296.5,314C 270.578,333.454 243.911,334.454 216.5,317C 201.902,305.644 193.069,290.81 190,272.5C 189.5,255.837 189.333,239.17 189.5,222.5C 214.828,220.662 236.495,210.996 254.5,193.5 Z M 170.5,234.5 C 171.657,242.656 171.823,250.99 171,259.5C 162.583,251.335 162.416,243.002 170.5,234.5 Z M 337.5,234.5 C 339.371,234.859 340.871,235.859 342,237.5C 347.219,246.293 345.886,253.96 338,260.5C 337.5,251.84 337.334,243.173 337.5,234.5 Z M 344.5,276.5 C 345.914,281.766 345.748,287.099 344,292.5C 340.561,296.371 336.394,297.371 331.5,295.5C 333.628,290.656 335.294,285.656 336.5,280.5C 339.502,279.666 342.168,278.333 344.5,276.5 Z M 53.5,288.5 C 65.7985,300.298 77.9651,312.298 90,324.5C 88.5926,327.945 86.2593,330.945 83,333.5C 71,321.5 59,309.5 47,297.5C 46.3333,296.833 46.3333,296.167 47,295.5C 49.3722,293.297 51.5389,290.963 53.5,288.5 Z M 32.5,309.5 C 44.7985,321.298 56.9651,333.298 69,345.5C 67.5004,349.075 65.8337,352.742 64,356.5C 62.3869,364.77 63.7202,372.437 68,379.5C 89.5,401 111,422.5 132.5,444C 143.964,450.602 154.798,449.769 165,441.5C 177,453.5 189,465.5 201,477.5C 199.763,480.776 197.597,483.609 194.5,486C 177.828,497.332 161.161,497.332 144.5,486C 105,446.5 65.5,407 26,367.5C 12.8758,346.426 15.0425,327.093 32.5,309.5 Z M 233.5,344.5 C 247.833,347.167 262.167,347.167 276.5,344.5C 269.536,351.965 262.369,359.298 255,366.5C 247.631,359.298 240.464,351.965 233.5,344.5 Z M 217.5,355.5 C 229.813,367.479 242.146,379.479 254.5,391.5C 266.819,379.681 278.986,367.681 291,355.5C 313.22,359.611 335.387,364.111 357.5,369C 365.431,372.545 371.598,378.045 376,385.5C 381.565,399.53 386.732,413.697 391.5,428C 334.833,428.667 278.167,428.667 221.5,428C 210.959,417.124 200.125,406.624 189,396.5C 176.845,407.32 164.678,418.154 152.5,429C 149.97,430.422 147.303,430.755 144.5,430C 137.154,423.988 130.488,417.321 124.5,410C 127.082,398.898 131.582,388.731 138,379.5C 143.815,373.675 150.648,369.509 158.5,367C 178.34,363.364 198.007,359.53 217.5,355.5 Z M 187.5,420.5 C 200.581,432.077 213.247,444.244 225.5,457C 222.333,460.167 219.167,463.333 216,466.5C 204,454.5 192,442.5 180,430.5C 179.333,429.833 179.333,429.167 180,428.5C 182.705,425.964 185.205,423.297 187.5,420.5 Z"/></g>
<g><path style="opacity:0.929" fill="#000000" d="M 457.5,152.5 C 474.443,161.974 491.109,171.974 507.5,182.5C 505.044,187.777 501.877,192.444 498,196.5C 490.416,192.581 483.083,188.248 476,183.5C 496.047,252.455 487.714,317.788 451,379.5C 446.218,387.408 440.718,394.742 434.5,401.5C 429.848,398.179 425.515,394.513 421.5,390.5C 468.07,329.14 480.237,261.473 458,187.5C 453.653,195.54 448.819,203.207 443.5,210.5C 438.223,208.044 433.556,204.877 429.5,201C 439.072,184.938 448.405,168.772 457.5,152.5 Z"/></g>
</svg>
