<?xml version="1.0" encoding="UTF-8"?>
<!DOCTYPE svg PUBLIC "-//W3C//DTD SVG 1.1//EN" "http://www.w3.org/Graphics/SVG/1.1/DTD/svg11.dtd">
<svg xmlns="http://www.w3.org/2000/svg" version="1.1" width="512px" height="512px" style="shape-rendering:geometricPrecision; text-rendering:geometricPrecision; image-rendering:optimizeQuality; fill-rule:evenodd; clip-rule:evenodd" xmlns:xlink="http://www.w3.org/1999/xlink">
<g><path style="opacity:0.955" fill="#000000" d="M 511.5,70.5 C 511.5,193.833 511.5,317.167 511.5,440.5C 507.492,454.002 498.492,462.168 484.5,465C 331.833,465.667 179.167,465.667 26.5,465C 12.508,462.168 3.50803,454.002 -0.5,440.5C -0.5,317.167 -0.5,193.833 -0.5,70.5C 3.50803,56.9983 12.508,48.8316 26.5,46C 51.8333,45.3333 77.1667,45.3333 102.5,46C 107.224,48.4353 108.724,52.2686 107,57.5C 105.833,58.6667 104.667,59.8333 103.5,61C 78.5,61.3333 53.5,61.6667 28.5,62C 22.0901,63.4458 17.9234,67.2792 16,73.5C 14.6167,84.7789 14.1167,96.1123 14.5,107.5C 175.167,107.5 335.833,107.5 496.5,107.5C 496.883,96.1123 496.383,84.7789 495,73.5C 493.077,67.2792 488.91,63.4458 482.5,62C 365.5,61.6667 248.5,61.3333 131.5,61C 126.701,57.9289 125.535,53.7622 128,48.5C 129.171,47.1068 130.671,46.2735 132.5,46C 249.833,45.3333 367.167,45.3333 484.5,46C 498.492,48.8316 507.492,56.9983 511.5,70.5 Z M 14.5,123.5 C 175.167,123.5 335.833,123.5 496.5,123.5C 496.667,226.501 496.5,329.501 496,432.5C 495.397,441.213 490.897,446.713 482.5,449C 331.167,449.667 179.833,449.667 28.5,449C 20.1027,446.713 15.6027,441.213 15,432.5C 14.5,329.501 14.3333,226.501 14.5,123.5 Z M 139.5,170.5 C 173.932,177.265 194.265,197.932 200.5,232.5C 180.167,232.5 159.833,232.5 139.5,232.5C 139.5,211.833 139.5,191.167 139.5,170.5 Z M 341.5,201.5 C 346.5,201.5 351.5,201.5 356.5,201.5C 356.5,237.5 356.5,273.5 356.5,309.5C 351.5,309.5 346.5,309.5 341.5,309.5C 341.5,273.5 341.5,237.5 341.5,201.5 Z M 150.5,248.5 C 166.992,247.503 183.658,247.17 200.5,247.5C 199.029,260.765 194.029,272.432 185.5,282.5C 173.813,271.145 162.146,259.812 150.5,248.5 Z M 279.5,247.5 C 284.5,247.5 289.5,247.5 294.5,247.5C 294.5,268.167 294.5,288.833 294.5,309.5C 289.5,309.5 284.5,309.5 279.5,309.5C 279.5,288.833 279.5,268.167 279.5,247.5 Z M 403.5,263.5 C 408.5,263.5 413.5,263.5 418.5,263.5C 418.5,278.833 418.5,294.167 418.5,309.5C 413.5,309.5 408.5,309.5 403.5,309.5C 403.5,294.167 403.5,278.833 403.5,263.5 Z M 247.5,356.5 C 257.833,356.5 268.167,356.5 278.5,356.5C 278.5,361.5 278.5,366.5 278.5,371.5C 268.167,371.5 257.833,371.5 247.5,371.5C 247.5,366.5 247.5,361.5 247.5,356.5 Z M 294.5,356.5 C 315.167,356.5 335.833,356.5 356.5,356.5C 356.5,361.5 356.5,366.5 356.5,371.5C 335.833,371.5 315.167,371.5 294.5,371.5C 294.5,366.5 294.5,361.5 294.5,356.5 Z"/></g>
<g><path style="opacity:0.915" fill="#000000" d="M 35.5,76.5 C 47.5046,76.3335 59.5046,76.5001 71.5,77C 78.8429,81.6482 79.1762,86.6482 72.5,92C 59.8333,92.6667 47.1667,92.6667 34.5,92C 31.484,90.4714 30.1506,87.9714 30.5,84.5C 30.546,80.7935 32.2126,78.1268 35.5,76.5 Z"/></g>
<g><path style="opacity:0.853" fill="#000000" d="M 408.5,76.5 C 416.696,76.529 419.863,80.529 418,88.5C 413.7,93.4459 409.033,93.7793 404,89.5C 401.552,83.7403 403.052,79.407 408.5,76.5 Z"/></g>
<g><path style="opacity:0.865" fill="#000000" d="M 439.5,76.5 C 447.696,76.529 450.863,80.529 449,88.5C 446.398,92.2118 442.898,93.3785 438.5,92C 431.929,86.4985 432.262,81.3318 439.5,76.5 Z"/></g>
<g><path style="opacity:0.861" fill="#000000" d="M 470.5,76.5 C 478.696,76.529 481.863,80.529 480,88.5C 477.487,92.2115 473.987,93.3782 469.5,92C 462.828,86.4695 463.162,81.3029 470.5,76.5 Z"/></g>
<g><path style="opacity:0.935" fill="#000000" d="M 120.5,154.5 C 163.797,152.133 194.13,170.633 211.5,210C 223.33,247.352 214.996,279.352 186.5,306C 158.479,327.098 128.146,331.098 95.5,318C 54.4362,295.691 38.9362,261.524 49,215.5C 50.2532,210.495 52.4198,205.995 55.5,202C 62.4607,199.315 66.7941,201.648 68.5,209C 55.1739,242.36 61.8406,271.027 88.5,295C 116.553,314.14 144.72,314.307 173,295.5C 173.667,294.833 173.667,294.167 173,293.5C 156.304,277.138 139.971,260.472 124,243.5C 123.667,219.167 123.333,194.833 123,170.5C 108.474,172.681 95.6404,178.514 84.5,188C 75.2099,189.622 71.7099,185.789 74,176.5C 87.3097,164.427 102.81,157.094 120.5,154.5 Z M 139.5,170.5 C 139.5,191.167 139.5,211.833 139.5,232.5C 159.833,232.5 180.167,232.5 200.5,232.5C 194.265,197.932 173.932,177.265 139.5,170.5 Z M 150.5,248.5 C 162.146,259.812 173.813,271.145 185.5,282.5C 194.029,272.432 199.029,260.765 200.5,247.5C 183.658,247.17 166.992,247.503 150.5,248.5 Z"/></g>
<g><path style="opacity:0.942" fill="#000000" d="M 329.5,185.5 C 342.171,185.333 354.838,185.5 367.5,186C 368.931,186.465 370.097,187.299 371,188.5C 372.483,228.772 372.983,269.106 372.5,309.5C 377.5,309.5 382.5,309.5 387.5,309.5C 387.333,290.164 387.5,270.83 388,251.5C 389.214,249.951 390.714,248.785 392.5,248C 404.833,247.333 417.167,247.333 429.5,248C 431.667,248.833 433.167,250.333 434,252.5C 434.5,271.497 434.667,290.497 434.5,309.5C 443.94,309.055 453.274,309.555 462.5,311C 466.926,316.441 466.259,321.108 460.5,325C 385.833,325.667 311.167,325.667 236.5,325C 230.491,320.686 230.157,316.019 235.5,311C 244.726,309.555 254.06,309.055 263.5,309.5C 263.333,284.831 263.5,260.164 264,235.5C 264.833,234.667 265.667,233.833 266.5,233C 279.833,232.333 293.167,232.333 306.5,233C 308.487,234.319 309.654,236.152 310,238.5C 310.5,262.164 310.667,285.831 310.5,309.5C 315.5,309.5 320.5,309.5 325.5,309.5C 325.333,269.499 325.5,229.499 326,189.5C 327.376,188.295 328.542,186.962 329.5,185.5 Z M 341.5,201.5 C 341.5,237.5 341.5,273.5 341.5,309.5C 346.5,309.5 351.5,309.5 356.5,309.5C 356.5,273.5 356.5,237.5 356.5,201.5C 351.5,201.5 346.5,201.5 341.5,201.5 Z M 279.5,247.5 C 279.5,268.167 279.5,288.833 279.5,309.5C 284.5,309.5 289.5,309.5 294.5,309.5C 294.5,288.833 294.5,268.167 294.5,247.5C 289.5,247.5 284.5,247.5 279.5,247.5 Z M 403.5,263.5 C 403.5,278.833 403.5,294.167 403.5,309.5C 408.5,309.5 413.5,309.5 418.5,309.5C 418.5,294.167 418.5,278.833 418.5,263.5C 413.5,263.5 408.5,263.5 403.5,263.5 Z"/></g>
<g><path style="opacity:0.938" fill="#000000" d="M 241.5,340.5 C 312.834,340.333 384.167,340.5 455.5,341C 460.667,342.167 463.833,345.333 465,350.5C 465.667,359.833 465.667,369.167 465,378.5C 463.474,382.693 460.641,385.526 456.5,387C 445.167,387.667 433.833,387.667 422.5,387C 417.248,383.914 416.248,379.747 419.5,374.5C 420.665,373.416 421.998,372.583 423.5,372C 432.16,371.5 440.827,371.334 449.5,371.5C 449.5,366.5 449.5,361.5 449.5,356.5C 423.833,356.5 398.167,356.5 372.5,356.5C 372.5,361.5 372.5,366.5 372.5,371.5C 380.253,371.104 387.92,371.604 395.5,373C 399.779,378.033 399.446,382.7 394.5,387C 343.167,387.667 291.833,387.667 240.5,387C 237.063,385.895 234.563,383.728 233,380.5C 231,369.833 231,359.167 233,348.5C 235.074,344.923 237.907,342.256 241.5,340.5 Z M 247.5,356.5 C 247.5,361.5 247.5,366.5 247.5,371.5C 257.833,371.5 268.167,371.5 278.5,371.5C 278.5,366.5 278.5,361.5 278.5,356.5C 268.167,356.5 257.833,356.5 247.5,356.5 Z M 294.5,356.5 C 294.5,361.5 294.5,366.5 294.5,371.5C 315.167,371.5 335.833,371.5 356.5,371.5C 356.5,366.5 356.5,361.5 356.5,356.5C 335.833,356.5 315.167,356.5 294.5,356.5 Z"/></g>
<g><path style="opacity:0.852" fill="#000000" d="M 49.5,356.5 C 58.1584,355.327 61.9918,358.994 61,367.5C 57.2586,373.058 52.7586,373.725 47.5,369.5C 44.547,364.6 45.2137,360.267 49.5,356.5 Z"/></g>
<g><path style="opacity:0.928" fill="#000000" d="M 80.5,356.5 C 119.501,356.333 158.501,356.5 197.5,357C 203.194,362.862 202.527,367.862 195.5,372C 157.833,372.667 120.167,372.667 82.5,372C 75.4065,367.693 74.7398,362.526 80.5,356.5 Z"/></g>
<g><path style="opacity:0.844" fill="#000000" d="M 50.5,387.5 C 61.5659,387.729 64.2326,392.562 58.5,402C 49.3739,405.196 45.2073,402.029 46,392.5C 47.025,390.313 48.525,388.646 50.5,387.5 Z"/></g>
<g><path style="opacity:0.929" fill="#000000" d="M 81.5,387.5 C 119.835,387.333 158.168,387.5 196.5,388C 201.568,390.983 202.735,395.149 200,400.5C 198.581,401.46 197.081,402.293 195.5,403C 157.833,403.667 120.167,403.667 82.5,403C 74.9705,398.215 74.6371,393.048 81.5,387.5 Z"/></g>
</svg>
