<?xml version="1.0" encoding="UTF-8"?>
<!DOCTYPE svg PUBLIC "-//W3C//DTD SVG 1.1//EN" "http://www.w3.org/Graphics/SVG/1.1/DTD/svg11.dtd">
<svg xmlns="http://www.w3.org/2000/svg" version="1.1" width="512px" height="512px" style="shape-rendering:geometricPrecision; text-rendering:geometricPrecision; image-rendering:optimizeQuality; fill-rule:evenodd; clip-rule:evenodd" xmlns:xlink="http://www.w3.org/1999/xlink">
<g><path style="opacity:0.936" fill="#000000" d="M 241.5,7.5 C 255.302,5.96049 268.302,8.46049 280.5,15C 285.919,19.1851 289.586,24.5184 291.5,31C 336.74,50.9253 360.574,85.7586 363,135.5C 377.798,142.105 382.465,153.105 377,168.5C 371.975,176.264 364.808,180.264 355.5,180.5C 348.118,214.121 329.452,239.287 299.5,256C 333.677,264.499 363.51,280.666 389,304.5C 397.378,273.719 417.545,259.219 449.5,261C 452.529,261.539 455.529,262.206 458.5,263C 463.426,265.353 465.26,269.186 464,274.5C 454.364,285.137 444.364,295.471 434,305.5C 434.813,310.102 435.646,314.769 436.5,319.5C 441.164,320.67 445.83,321.503 450.5,322C 459.833,312.667 469.167,303.333 478.5,294C 484.671,289.965 489.504,291.132 493,297.5C 499.47,320.418 493.97,339.918 476.5,356C 464.383,365.204 450.716,369.037 435.5,367.5C 444.281,387.955 449.948,409.289 452.5,431.5C 452.751,435.503 451.084,438.336 447.5,440C 417.833,440.333 388.167,440.667 358.5,441C 361.984,468.366 351.318,488.033 326.5,500C 313.141,504.637 299.808,504.637 286.5,500C 282.733,495.633 282.567,491.133 286,486.5C 295.333,477.167 304.667,467.833 314,458.5C 313.322,454.127 312.155,449.794 310.5,445.5C 306.334,444.085 302.167,442.752 298,441.5C 288.167,451.333 278.333,461.167 268.5,471C 261.103,474.383 256.27,472.217 254,464.5C 252.679,456.561 252.179,448.561 252.5,440.5C 239.829,440.333 227.162,440.5 214.5,441C 215.797,443.545 215.631,446.045 214,448.5C 206.5,456 199,463.5 191.5,471C 184.322,471.334 177.655,469.501 171.5,465.5C 165.481,468.95 159.148,471.616 152.5,473.5C 150.238,478.449 148.072,483.449 146,488.5C 145.097,489.701 143.931,490.535 142.5,491C 130.833,491.667 119.167,491.667 107.5,491C 106.333,489.833 105.167,488.667 104,487.5C 102.358,482.903 100.524,478.403 98.5,474C 91.8095,471.571 85.3095,468.737 79,465.5C 73.0605,469.566 66.5605,471.4 59.5,471C 51.697,464.198 44.197,457.031 37,449.5C 35.5432,446.634 35.2099,443.634 36,440.5C 37.7045,436.259 39.5378,432.093 41.5,428C 38.2627,421.691 35.4294,415.191 33,408.5C 28.5972,406.476 24.0972,404.642 19.5,403C 18.3333,401.833 17.1667,400.667 16,399.5C 15.8333,393.667 15.6667,387.833 15.5,382C 15.3717,375.397 15.8717,368.897 17,362.5C 22.3011,359.433 27.8011,356.766 33.5,354.5C 35.3837,347.852 38.0504,341.519 41.5,335.5C 37.5607,329.324 35.7274,322.657 36,315.5C 43.5,308 51,300.5 58.5,293C 60.6954,291.627 63.0288,291.294 65.5,292C 69.9432,293.972 74.4432,295.805 79,297.5C 85.4517,294.69 91.9517,292.023 98.5,289.5C 100.696,283.731 103.362,278.231 106.5,273C 118.095,271.398 129.762,271.065 141.5,272C 144.299,273.136 146.466,274.969 148,277.5C 165.204,267.984 183.371,260.818 202.5,256C 172.298,239.797 153.465,214.964 146,181.5C 124.389,177.279 117.722,164.945 126,144.5C 129.174,140.317 133.174,137.317 138,135.5C 140.923,86.0974 164.757,51.264 209.5,31C 212.807,21.026 219.474,14.3594 229.5,11C 233.623,9.80766 237.623,8.641 241.5,7.5 Z M 243.5,24.5 C 252.112,23.7952 260.445,24.9619 268.5,28C 271,29.1667 272.833,31 274,33.5C 272.021,53.1915 269.521,72.8582 266.5,92.5C 270.182,101.363 275.682,102.697 283,96.5C 285.371,81.7021 287.537,66.8688 289.5,52C 289.833,51.1667 290.167,50.3333 290.5,49.5C 325.298,67.0025 343.632,95.3358 345.5,134.5C 334.5,134.5 323.5,134.5 312.5,134.5C 312.667,116.497 312.5,98.4969 312,80.5C 308.229,76.2119 303.729,75.3786 298.5,78C 297.283,79.6477 296.45,81.481 296,83.5C 295.5,100.497 295.333,117.497 295.5,134.5C 265.5,134.5 235.5,134.5 205.5,134.5C 205.667,116.83 205.5,99.1635 205,81.5C 201.726,76.2625 197.226,75.0958 191.5,78C 190.299,78.9025 189.465,80.0692 189,81.5C 188.5,99.1635 188.333,116.83 188.5,134.5C 177.5,134.5 166.5,134.5 155.5,134.5C 157.533,95.3938 175.866,67.0605 210.5,49.5C 211.086,49.7093 211.586,50.0426 212,50.5C 213.918,65.511 215.918,80.511 218,95.5C 219.529,98.9338 222.196,100.6 226,100.5C 231.739,100.261 234.572,97.2606 234.5,91.5C 231.717,71.8639 229.551,52.1972 228,32.5C 232.361,28.0705 237.528,25.4038 243.5,24.5 Z M 143.5,151.5 C 214.834,151.333 286.167,151.5 357.5,152C 363.734,155.237 364.067,158.904 358.5,163C 286.833,163.667 215.167,163.667 143.5,163C 139.787,161.309 138.621,158.475 140,154.5C 141.145,153.364 142.312,152.364 143.5,151.5 Z M 163.5,180.5 C 221.834,180.333 280.168,180.5 338.5,181C 324.994,223.841 295.827,247.008 251,250.5C 212.596,248.146 184.929,229.812 168,195.5C 166.19,190.571 164.69,185.571 163.5,180.5 Z M 233.5,267.5 C 295.641,263.76 347.641,284.593 389.5,330C 366.833,352.667 344.167,375.333 321.5,398C 295.09,392.551 274.424,400.884 259.5,423C 243.5,423.667 227.5,423.667 211.5,423C 213.595,418.218 215.595,413.385 217.5,408.5C 223.477,406.682 228.977,404.016 234,400.5C 235.602,388.905 235.935,377.238 235,365.5C 234.417,363.998 233.584,362.665 232.5,361.5C 227.274,359.26 222.107,356.926 217,354.5C 215.051,347.938 212.551,341.604 209.5,335.5C 211.234,331.132 213.068,326.798 215,322.5C 215.584,319.743 215.25,317.077 214,314.5C 206.833,307.333 199.667,300.167 192.5,293C 190.863,292.399 189.197,291.899 187.5,291.5C 182.089,293.303 176.756,295.303 171.5,297.5C 167.172,295.67 162.838,293.836 158.5,292C 181.926,278.691 206.926,270.524 233.5,267.5 Z M 435.5,277.5 C 436.239,277.369 436.906,277.536 437.5,278C 429.969,285.197 422.802,292.697 416,300.5C 416.898,311.097 419.231,321.43 423,331.5C 423.903,332.701 425.069,333.535 426.5,334C 436.236,337.603 446.236,339.603 456.5,340C 463.97,333.532 471.136,326.698 478,319.5C 475.414,333.77 467.247,343.604 453.5,349C 443.846,351.303 434.346,350.803 425,347.5C 423.112,347.796 421.278,348.296 419.5,349C 393.333,375.167 367.167,401.333 341,427.5C 340.042,429.199 339.542,431.033 339.5,433C 346.959,455.301 340.626,472.301 320.5,484C 317.57,485.318 314.57,485.985 311.5,486C 318.698,479.136 325.532,471.97 332,464.5C 331.102,453.903 328.769,443.57 325,433.5C 323.786,431.951 322.286,430.785 320.5,430C 312.79,428.156 305.124,426.156 297.5,424C 295.833,423.333 294.167,423.333 292.5,424C 284.697,430.802 277.197,437.969 270,445.5C 273.767,425.74 285.767,415.073 306,413.5C 311.781,413.862 317.447,414.862 323,416.5C 324.967,416.458 326.801,415.958 328.5,415C 354.667,388.833 380.833,362.667 407,336.5C 407.923,334.966 408.423,333.299 408.5,331.5C 400.553,304.726 409.553,286.726 435.5,277.5 Z M 117.5,288.5 C 122.833,288.5 128.167,288.5 133.5,288.5C 134.693,292.911 136.193,297.244 138,301.5C 139.214,303.049 140.714,304.215 142.5,305C 152.219,307.96 161.552,311.793 170.5,316.5C 175.51,314.911 180.343,312.911 185,310.5C 188.833,314.333 192.667,318.167 196.5,322C 194.089,326.657 192.089,331.49 190.5,336.5C 195.483,346.136 199.65,356.136 203,366.5C 207.571,370.082 212.738,372.416 218.5,373.5C 218.666,378.844 218.499,384.177 218,389.5C 213.458,391.186 208.958,393.019 204.5,395C 201.763,400.201 199.596,405.701 198,411.5C 195.356,416.621 192.856,421.788 190.5,427C 191.809,432.088 193.809,436.921 196.5,441.5C 193.349,445.151 190.016,448.651 186.5,452C 181.973,451.585 177.64,450.252 173.5,448C 171.5,447.333 169.5,447.333 167.5,448C 158.651,453.09 149.318,457.09 139.5,460C 137.213,464.358 135.213,468.858 133.5,473.5C 128.198,474.663 122.864,474.829 117.5,474C 115.774,468.479 113.107,463.479 109.5,459C 100.029,456.509 91.0294,452.843 82.5,448C 80.5,447.333 78.5,447.333 76.5,448C 72.5995,449.967 68.5995,451.3 64.5,452C 60.7844,448.621 57.4511,444.954 54.5,441C 56.875,436.752 58.5416,432.252 59.5,427.5C 54.8405,417.842 51.0072,407.842 48,397.5C 43.5213,393.893 38.5213,391.226 33,389.5C 32.1705,384.136 32.3372,378.802 33.5,373.5C 38.3089,372.176 42.8089,370.176 47,367.5C 49.91,357.682 53.91,348.349 59,339.5C 59.6667,337.167 59.6667,334.833 59,332.5C 56.4737,328.807 55.1403,324.807 55,320.5C 58.3486,316.984 61.8486,313.651 65.5,310.5C 70.0787,313.191 74.9121,315.191 80,316.5C 89.6089,311.117 99.7756,306.95 110.5,304C 113.508,299.15 115.841,293.983 117.5,288.5 Z M 118.5,342.5 C 142.159,341.236 157.326,351.902 164,374.5C 165.615,402.224 152.615,417.89 125,421.5C 101.631,418.297 88.4638,404.964 85.5,381.5C 87.5821,360.765 98.5821,347.765 118.5,342.5 Z M 418.5,374.5 C 426.111,389.834 431.444,406.001 434.5,423C 413.167,423.667 391.833,423.667 370.5,423C 386.702,406.965 402.702,390.799 418.5,374.5 Z"/></g>
<g><path style="opacity:0.93" fill="#000000" d="M 116.5,325.5 C 148.504,323.402 169.67,337.402 180,367.5C 185.315,396.696 175.149,418.529 149.5,433C 121.51,443.628 98.0101,437.462 79,414.5C 64.8905,391.941 65.2238,369.608 80,347.5C 89.5978,335.702 101.764,328.369 116.5,325.5 Z M 118.5,342.5 C 98.5821,347.765 87.5821,360.765 85.5,381.5C 88.4638,404.964 101.631,418.297 125,421.5C 152.615,417.89 165.615,402.224 164,374.5C 157.326,351.902 142.159,341.236 118.5,342.5 Z"/></g>
</svg>
