<?xml version="1.0" encoding="UTF-8"?>
<!DOCTYPE svg PUBLIC "-//W3C//DTD SVG 1.1//EN" "http://www.w3.org/Graphics/SVG/1.1/DTD/svg11.dtd">
<svg xmlns="http://www.w3.org/2000/svg" version="1.1" width="512px" height="512px" style="shape-rendering:geometricPrecision; text-rendering:geometricPrecision; image-rendering:optimizeQuality; fill-rule:evenodd; clip-rule:evenodd" xmlns:xlink="http://www.w3.org/1999/xlink">
<g><path style="opacity:0.928" fill="#000000" d="M 385.5,-0.5 C 389.833,-0.5 394.167,-0.5 398.5,-0.5C 402.346,1.15508 405.846,3.48842 409,6.5C 425.527,41.7486 441.86,77.0819 458,112.5C 460.928,122.045 458.761,130.212 451.5,137C 442.653,141.59 433.653,145.923 424.5,150C 413.104,153.977 403.937,151.144 397,141.5C 376.502,157.164 353.669,168.164 328.5,174.5C 346.919,191.783 358.252,212.95 362.5,238C 361.008,244.418 357.008,246.751 350.5,245C 349.333,243.833 348.167,242.667 347,241.5C 341.951,212.868 327.118,191.035 302.5,176C 290.119,175.895 277.786,175.228 265.5,174C 256.515,171.227 247.681,168.061 239,164.5C 199.427,173.74 174.76,198.073 165,237.5C 159.008,279.335 173.508,311.835 208.5,335C 219.259,334.733 229.926,335.066 240.5,336C 251.273,338.702 261.773,342.202 272,346.5C 313.947,336.218 339.281,309.885 348,267.5C 351.996,263.797 356.163,263.63 360.5,267C 361.561,268.849 362.227,270.849 362.5,273C 354.946,312.214 332.946,339.881 296.5,356C 303.621,359.061 310.621,362.394 317.5,366C 323.33,370.828 326.664,376.995 327.5,384.5C 358.289,376.183 388.956,367.349 419.5,358C 442.694,354.206 456.027,363.872 459.5,387C 457.53,404.311 448.196,415.645 431.5,421C 416.689,427.742 401.689,433.909 386.5,439.5C 380.067,438.657 377.567,434.991 379,428.5C 379.833,427.5 380.667,426.5 381.5,425.5C 396.715,418.392 412.049,411.559 427.5,405C 436.167,402.168 441.501,396.334 443.5,387.5C 441.014,375.091 433.681,370.591 421.5,374C 390.258,383.644 358.925,392.977 327.5,402C 323.86,405.64 320.194,409.306 316.5,413C 309.564,416.397 302.231,417.397 294.5,416C 276.87,411.509 259.204,407.176 241.5,403C 235.347,401.535 233.18,397.702 235,391.5C 236.683,388.733 239.183,387.066 242.5,386.5C 262.673,391.585 282.84,396.585 303,401.5C 311.082,397.924 313.749,391.924 311,383.5C 310.215,381.714 309.049,380.214 307.5,379C 286.171,369.503 264.505,360.836 242.5,353C 205.709,345.781 171.376,352.115 139.5,372C 133.302,376.363 126.969,380.53 120.5,384.5C 129.941,404.381 139.107,424.381 148,444.5C 149.346,447.87 151.179,450.87 153.5,453.5C 177.47,441.39 202.47,438.223 228.5,444C 241.246,448.804 253.913,453.804 266.5,459C 279.518,464.895 292.518,464.895 305.5,459C 320.382,452.059 335.382,445.392 350.5,439C 359.496,436.999 363.329,440.499 362,449.5C 360.833,450.667 359.667,451.833 358.5,453C 341.167,460.667 323.833,468.333 306.5,476C 292.833,480.667 279.167,480.667 265.5,476C 249.469,469.15 233.135,463.15 216.5,458C 196.598,455.847 177.764,459.347 160,468.5C 164.201,478.319 163.034,487.486 156.5,496C 146.317,501.659 135.984,506.826 125.5,511.5C 121.167,511.5 116.833,511.5 112.5,511.5C 108.654,509.845 105.154,507.512 102,504.5C 85.4732,469.251 69.1399,433.918 53,398.5C 50.0719,388.955 52.2386,380.788 59.5,374C 68.3472,369.41 77.3472,365.077 86.5,361C 97.8963,357.023 107.063,359.856 114,369.5C 134.498,353.836 157.331,342.836 182.5,336.5C 146.16,298.96 137.993,255.96 158,207.5C 170.422,183.078 189.255,165.578 214.5,155C 207.379,151.939 200.379,148.606 193.5,145C 187.514,139.862 184.014,133.362 183,125.5C 149.6,136.1 115.933,145.767 82,154.5C 63.3704,152.204 53.2037,141.704 51.5,123C 53.8834,106.271 63.2167,95.2707 79.5,90C 119.583,72.5276 159.583,54.8609 199.5,37C 213.191,31.5154 227.191,30.5154 241.5,34C 259.03,40.7322 276.697,47.0655 294.5,53C 314.402,55.1526 333.236,51.6526 351,42.5C 346.796,32.7185 347.963,23.5518 354.5,15C 364.858,9.72449 375.192,4.55782 385.5,-0.5 Z M 389.5,15.5 C 391.792,15.2436 393.959,15.5769 396,16.5C 411.97,50.9403 427.804,85.4403 443.5,120C 443.097,121.473 442.43,122.806 441.5,124C 433.833,127.667 426.167,131.333 418.5,135C 416.231,135.758 414.064,135.591 412,134.5C 395.89,99.9475 380.057,65.2808 364.5,30.5C 364.876,28.6171 365.876,27.1171 367.5,26C 375.046,22.7251 382.379,19.2251 389.5,15.5 Z M 221.5,47.5 C 226.177,47.8345 230.844,48.3345 235.5,49C 252.511,55.3366 269.511,61.6699 286.5,68C 311.173,72.335 334.84,68.835 357.5,57.5C 360.156,60.8012 362.322,64.4678 364,68.5C 372.559,87.9526 381.393,107.286 390.5,126.5C 373.663,138.922 355.33,148.755 335.5,156C 329.925,157.515 324.258,158.515 318.5,159C 303.167,159.667 287.833,159.667 272.5,159C 251.867,152.122 231.534,144.456 211.5,136C 200.027,132.557 196.527,125.391 201,114.5C 202.788,111.372 205.455,110.039 209,110.5C 228.962,114.616 248.796,119.282 268.5,124.5C 276.309,122.547 278.475,117.88 275,110.5C 273.352,109.283 271.519,108.45 269.5,108C 249.311,102.702 228.978,98.2019 208.5,94.5C 203.385,93.9419 198.718,95.1085 194.5,98C 190.779,101.721 187.113,105.387 183.5,109C 149.714,119.04 115.88,128.874 82,138.5C 67.8946,134.387 64.5613,126.054 72,113.5C 73.9252,112.12 75.7585,110.62 77.5,109C 120.167,90 162.833,71 205.5,52C 210.821,49.9414 216.155,48.4414 221.5,47.5 Z M 92.5,375.5 C 94.7925,375.244 96.9592,375.577 99,376.5C 115.11,411.053 130.943,445.719 146.5,480.5C 146.363,482.107 145.696,483.441 144.5,484.5C 136.833,488 129.167,491.5 121.5,495C 119.231,495.758 117.064,495.591 115,494.5C 99.0298,460.06 83.1964,425.56 67.5,391C 67.9031,389.527 68.5697,388.194 69.5,387C 77.402,383.435 85.0687,379.602 92.5,375.5 Z"/></g>
<g><path style="opacity:0.922" fill="#000000" d="M 254.5,189.5 C 257.192,190.009 259.692,191.009 262,192.5C 263.379,197.036 263.879,201.703 263.5,206.5C 271.727,208.114 279.061,211.614 285.5,217C 289.758,222.03 289.424,226.697 284.5,231C 281.833,231.667 279.167,231.667 276.5,231C 267.852,221.667 257.852,219.667 246.5,225C 239.626,230.734 239.96,236.067 247.5,241C 255.853,245.118 264.52,248.452 273.5,251C 286.81,257.79 291.976,268.624 289,283.5C 284.865,295.802 276.365,302.802 263.5,304.5C 263.666,308.514 263.499,312.514 263,316.5C 258.045,323.132 253.045,323.132 248,316.5C 247.501,312.514 247.334,308.514 247.5,304.5C 237.418,302.576 229.251,297.576 223,289.5C 219.34,279.961 222.507,275.794 232.5,277C 235.483,280.313 238.817,283.313 242.5,286C 251.194,290.611 259.861,290.611 268.5,286C 275.167,279.667 275.167,273.333 268.5,267C 261.279,264.028 253.945,261.361 246.5,259C 236.543,254.712 229.71,247.546 226,237.5C 225.258,221.999 232.258,211.665 247,206.5C 247.333,202.5 247.667,198.5 248,194.5C 249.603,191.965 251.769,190.298 254.5,189.5 Z"/></g>
</svg>
