<?xml version="1.0" encoding="UTF-8"?>
<!DOCTYPE svg PUBLIC "-//W3C//DTD SVG 1.1//EN" "http://www.w3.org/Graphics/SVG/1.1/DTD/svg11.dtd">
<svg xmlns="http://www.w3.org/2000/svg" version="1.1" width="512px" height="512px" style="shape-rendering:geometricPrecision; text-rendering:geometricPrecision; image-rendering:optimizeQuality; fill-rule:evenodd; clip-rule:evenodd" xmlns:xlink="http://www.w3.org/1999/xlink">
<g><path style="opacity:0.933" fill="#000000" d="M 249.5,-0.5 C 253.5,-0.5 257.5,-0.5 261.5,-0.5C 265.008,1.19065 268.175,3.52399 271,6.5C 275.167,14.8333 279.333,23.1667 283.5,31.5C 294.602,33.9065 305.602,36.7399 316.5,40C 325.07,47.9852 326.57,57.1518 321,67.5C 315.032,74.4692 308.699,81.1359 302,87.5C 302.691,97.3453 303.858,107.179 305.5,117C 303.015,132.744 294.015,138.744 278.5,135C 270.797,131.149 263.13,127.315 255.5,123.5C 246.991,127.921 238.325,132.087 229.5,136C 215.315,137.482 207.315,131.148 205.5,117C 207.142,107.179 208.309,97.3453 209,87.5C 200.882,80.3883 193.882,72.3883 188,63.5C 184.482,52.0464 187.982,43.5464 198.5,38C 207.825,36.0573 217.158,34.224 226.5,32.5C 231.255,23.9905 235.755,15.3238 240,6.5C 242.825,3.52399 245.992,1.19065 249.5,-0.5 Z M 254.5,17.5 C 255.376,17.3691 256.043,17.7025 256.5,18.5C 261,27.5 265.5,36.5 270,45.5C 271.167,46.6667 272.333,47.8333 273.5,49C 284.687,50.8056 295.687,53.139 306.5,56C 300.032,63.4695 293.198,70.6362 286,77.5C 285,79.1667 284,80.8333 283,82.5C 283.795,93.9009 285.295,105.234 287.5,116.5C 287.192,117.308 286.692,117.975 286,118.5C 276.289,112.561 266.123,107.561 255.5,103.5C 244.877,107.561 234.711,112.561 225,118.5C 224.308,117.975 223.808,117.308 223.5,116.5C 225.705,105.234 227.205,93.9009 228,82.5C 227,80.8333 226,79.1667 225,77.5C 217.802,70.6362 210.968,63.4695 204.5,56C 215.313,53.139 226.313,50.8056 237.5,49C 244.336,39.1635 250.003,28.6635 254.5,17.5 Z"/></g>
<g><path style="opacity:0.935" fill="#000000" d="M 96.5,67.5 C 106.373,65.7275 113.873,69.0609 119,77.5C 122.833,85.1667 126.667,92.8333 130.5,100.5C 139.805,102.44 149.139,104.273 158.5,106C 170.854,113.406 173.687,123.572 167,136.5C 160.035,143.119 153.535,150.119 147.5,157.5C 149.979,168.372 151.146,179.372 151,190.5C 146.136,202.847 137.302,207.014 124.5,203C 116.906,199.287 109.406,195.453 102,191.5C 93.7153,196.059 85.2153,200.226 76.5,204C 65.3329,206.001 57.4996,201.834 53,191.5C 53.1028,179.455 53.7694,167.455 55,155.5C 48.6345,149.469 42.6345,143.136 37,136.5C 30.082,123.483 32.9153,113.316 45.5,106C 54.8639,104.273 64.1973,102.44 73.5,100.5C 77.6667,92.1667 81.8333,83.8333 86,75.5C 88.8552,71.7893 92.3552,69.1226 96.5,67.5 Z M 101.5,85.5 C 107.346,96.0188 113.346,106.519 119.5,117C 130.109,119.255 140.776,121.255 151.5,123C 151.957,123.414 152.291,123.914 152.5,124.5C 145.185,132.983 137.685,141.316 130,149.5C 130.035,161.087 131.202,172.587 133.5,184C 133.167,184.833 132.833,185.667 132.5,186.5C 122.409,181.217 112.243,176.217 102,171.5C 91.5206,175.823 81.3539,180.823 71.5,186.5C 71.1667,185.333 70.8333,184.167 70.5,183C 72.7043,171.912 73.8709,160.745 74,149.5C 66.3149,141.316 58.8149,132.983 51.5,124.5C 51.7093,123.914 52.0426,123.414 52.5,123C 63.7074,121.412 74.7074,119.079 85.5,116C 91.2285,106.043 96.5618,95.8765 101.5,85.5 Z"/></g>
<g><path style="opacity:0.935" fill="#000000" d="M 403.5,67.5 C 412.311,65.9348 419.477,68.6014 425,75.5C 429.118,84.2375 433.618,92.7375 438.5,101C 447.522,102.559 456.522,104.226 465.5,106C 478.085,113.316 480.918,123.483 474,136.5C 468.366,143.136 462.366,149.469 456,155.5C 457.231,167.455 457.897,179.455 458,191.5C 452.607,203.111 443.774,206.944 431.5,203C 424.219,198.776 416.719,194.943 409,191.5C 400.715,196.059 392.215,200.226 383.5,204C 368.692,206.186 360.692,199.853 359.5,185C 360.416,175.756 361.749,166.59 363.5,157.5C 357.465,150.119 350.965,143.119 344,136.5C 337.313,123.572 340.146,113.406 352.5,106C 361.88,104.357 371.213,102.524 380.5,100.5C 384.745,91.6762 389.245,83.0095 394,74.5C 396.825,71.524 399.992,69.1907 403.5,67.5 Z M 408.5,85.5 C 414.266,95.5237 419.932,105.69 425.5,116C 426.833,116.667 428.167,117.333 429.5,118C 439.186,119.559 448.853,121.225 458.5,123C 458.957,123.414 459.291,123.914 459.5,124.5C 452.185,132.983 444.685,141.316 437,149.5C 437.316,160.721 438.483,171.887 440.5,183C 440.167,184.167 439.833,185.333 439.5,186.5C 429.646,180.823 419.479,175.823 409,171.5C 398.829,176.335 388.662,181.335 378.5,186.5C 378.167,185.667 377.833,184.833 377.5,184C 379.798,172.587 380.965,161.087 381,149.5C 373.315,141.316 365.815,132.983 358.5,124.5C 358.709,123.914 359.043,123.414 359.5,123C 370.224,121.255 380.891,119.255 391.5,117C 397.815,106.872 403.482,96.3716 408.5,85.5 Z"/></g>
<g><path style="opacity:0.938" fill="#000000" d="M 511.5,437.5 C 511.5,447.167 511.5,456.833 511.5,466.5C 509.021,471.143 505.355,474.643 500.5,477C 462.5,477.667 424.5,477.667 386.5,477C 381.427,475.594 377.927,472.428 376,467.5C 374.91,459.502 373.743,451.502 372.5,443.5C 346.962,458.2 321.295,472.7 295.5,487C 288.484,499.491 278.151,507.658 264.5,511.5C 258.5,511.5 252.5,511.5 246.5,511.5C 218.527,501.9 208.027,482.567 215,453.5C 225.95,431.273 243.783,422.107 268.5,426C 295.68,415.606 323.013,405.606 350.5,396C 351.91,395.632 352.91,394.799 353.5,393.5C 320.391,349.291 276.725,333.458 222.5,346C 178.137,360.879 150.303,391.046 139,436.5C 137.342,445.759 136.342,455.092 136,464.5C 134.983,469.712 132.149,473.545 127.5,476C 88.5597,477.649 49.5597,477.982 10.5,477C 5.64549,474.643 1.97883,471.143 -0.5,466.5C -0.5,456.833 -0.5,447.167 -0.5,437.5C 9.82591,351.978 51.1592,286.145 123.5,240C 195.572,199.391 270.572,193.057 348.5,221C 443.674,262.35 498.007,334.517 511.5,437.5 Z M 233.5,222.5 C 237.833,222.5 242.167,222.5 246.5,222.5C 246.5,256.167 246.5,289.833 246.5,323.5C 215.905,325.973 188.905,336.973 165.5,356.5C 141.5,333.167 117.833,309.5 94.5,285.5C 133.807,249.275 180.14,228.275 233.5,222.5 Z M 264.5,222.5 C 323.152,224.843 373.818,245.843 416.5,285.5C 393.167,309.5 369.5,333.167 345.5,356.5C 322.082,336.966 295.082,325.966 264.5,323.5C 264.5,289.833 264.5,256.167 264.5,222.5 Z M 80.5,298.5 C 104.632,322.132 128.632,345.965 152.5,370C 130.453,395.622 119.12,425.455 118.5,459.5C 84.8333,459.5 51.1667,459.5 17.5,459.5C 18.3152,397.686 39.3152,344.019 80.5,298.5 Z M 429.5,298.5 C 471.537,343.625 492.87,397.292 493.5,459.5C 459.833,459.5 426.167,459.5 392.5,459.5C 392.522,450.7 391.522,442.033 389.5,433.5C 409.167,421.667 428.833,409.833 448.5,398C 456.791,388.309 456.458,378.976 447.5,370C 444.237,368.142 440.737,366.975 437,366.5C 415.118,373.238 393.452,380.572 372,388.5C 368.111,381.89 363.611,375.723 358.5,370C 382.368,346.299 406.035,322.465 429.5,298.5 Z M 425.5,388.5 C 427.379,388.393 427.712,388.893 426.5,390C 384.26,415.232 341.76,440.066 299,464.5C 297.359,454.718 293.192,446.218 286.5,439C 332.664,421.448 378.997,404.614 425.5,388.5 Z M 252.5,443.5 C 266.576,443.408 275.742,450.075 280,463.5C 280.669,484.498 270.502,494.331 249.5,493C 235.354,488.215 229.188,478.382 231,463.5C 234.564,452.764 241.73,446.097 252.5,443.5 Z"/></g>
</svg>
