<svg xmlns="http://www.w3.org/2000/svg" version="1.1" xmlns:xlink="http://www.w3.org/1999/xlink"   x="0" y="0" viewBox="0 0 64 64" style="enable-background:new 0 0 512 512" xml:space="preserve" class=""><g><g data-name="28-gravity"><path d="M9 42a4 4 0 1 0-4-4 4.004 4.004 0 0 0 4 4Zm0-6a2 2 0 1 1-2 2 2.003 2.003 0 0 1 2-2ZM57 43a4 4 0 1 0 4 4 4.004 4.004 0 0 0-4-4Zm0 6a2 2 0 1 1 2-2 2.003 2.003 0 0 1-2 2ZM63.814 62.419C63.394 61.83 53.27 48 32 48S.606 61.83.186 62.419a1 1 0 1 0 1.627 1.162 27.168 27.168 0 0 1 3.738-3.907l-.106.158 3 2a.993.993 0 0 0 .871.116l3-1a.996.996 0 0 0 .391-.241l.563-.563 2.346.782 3.937 1.968a1.001 1.001 0 0 0 .894 0l2-1A1 1 0 0 0 23 61v-2a1 1 0 0 0-.052-.316l-1-3A.999.999 0 0 0 21 55h-1.382l-1.36-2.72A41.332 41.332 0 0 1 32 50a43.605 43.605 0 0 1 4.656.254l-.626 2.504a.998.998 0 0 0 .263.949l2 2a.996.996 0 0 0 .39.241l2.526.843.843 2.525a.996.996 0 0 0 .706.654l4 1a1.01 1.01 0 0 0 .69-.075l1.355-.678 1.49 1.49a1.001 1.001 0 0 0 .26.188l2 1A.997.997 0 0 0 53 63a.98.98 0 0 0 .316-.052l3-1a1 1 0 0 0 .516-.393l1.383-2.074a27.796 27.796 0 0 1 3.972 4.101 1 1 0 0 0 1.627-1.163Zm-45.709-5.972A1 1 0 0 0 19 57h1.28l.72 2.162v1.22l-1 .5-3.553-1.777a.898.898 0 0 0-.13-.053l-3-1a.998.998 0 0 0-1.024.241l-.833.833-2.313.77L7 58.464a38.596 38.596 0 0 1 9.378-5.474Zm37.253 3.713-2.28.76-1.485-.742-1.886-1.885a1 1 0 0 0-1.154-.188l-1.67.836-3.108-.778-.827-2.48a.993.993 0 0 0-.632-.631l-2.776-.926-1.433-1.433.545-2.18A39.12 39.12 0 0 1 56.66 58.21Z" fill="#000000" opacity="1" data-original="#000000" class=""></path><path d="m31.555 53.168-3-2a.989.989 0 0 0-.871-.116l-3 1a.996.996 0 0 0-.391.241l-1 1a1 1 0 0 0-.188 1.154l1 2a1 1 0 0 0 .579.501l3 1A.999.999 0 0 0 28 58h2a.999.999 0 0 0 .948-.684l1-3a1 1 0 0 0-.393-1.148ZM29.279 56h-1.117l-2.453-.817-.492-.986.323-.323 2.313-.77 1.956 1.304ZM26.11 31.546a.998.998 0 0 0 .081 1.042l8 11a1 1 0 0 0 1.618 0l8-11A1 1 0 0 0 43 31h-4V9a1 1 0 0 0-2 0v23a1 1 0 0 0 1 1h3.036L35 41.3 28.964 33H32a1 1 0 0 0 1-1V9a1 1 0 0 0-2 0v22h-4a.999.999 0 0 0-.89.546ZM17.191 35.588a1 1 0 0 0 1.618 0l8-11A1 1 0 0 0 26 23h-4V3a1 1 0 0 0-2 0v21a1 1 0 0 0 1 1h3.036L18 33.3 11.964 25H15a1 1 0 0 0 1-1V1a1 1 0 0 0-2 0v22h-4a1 1 0 0 0-.809 1.588ZM51.191 35.588a1 1 0 0 0 1.618 0l8-11A1 1 0 0 0 60 23h-4V7a1 1 0 0 0-2 0v17a1 1 0 0 0 1 1h3.036L52 33.3 45.964 25H49a1 1 0 0 0 1-1V1a1 1 0 0 0-2 0v22h-4a1 1 0 0 0-.809 1.588Z" fill="#000000" opacity="1" data-original="#000000" class=""></path></g></g></svg>