<?xml version="1.0" encoding="UTF-8"?>
<!DOCTYPE svg PUBLIC "-//W3C//DTD SVG 1.1//EN" "http://www.w3.org/Graphics/SVG/1.1/DTD/svg11.dtd">
<svg xmlns="http://www.w3.org/2000/svg" version="1.1" width="512px" height="512px" style="shape-rendering:geometricPrecision; text-rendering:geometricPrecision; image-rendering:optimizeQuality; fill-rule:evenodd; clip-rule:evenodd" xmlns:xlink="http://www.w3.org/1999/xlink">
<g><path style="opacity:0.92" fill="#000000" d="M 258.5,15.5 C 279.978,14.8103 290.144,25.1437 289,46.5C 286.093,55.7408 280.093,62.0741 271,65.5C 270.5,93.1647 270.333,120.831 270.5,148.5C 290.5,148.5 310.5,148.5 330.5,148.5C 330.333,130.83 330.5,113.164 331,95.5C 331.465,94.0692 332.299,92.9025 333.5,92C 346.18,91.8326 358.846,91.3326 371.5,90.5C 376.761,76.6987 386.761,70.8654 401.5,73C 413.697,76.5188 420.363,84.6854 421.5,97.5C 418.831,116.01 408.164,124.177 389.5,122C 380.819,119.488 374.819,113.988 371.5,105.5C 362.19,104.502 352.857,104.168 343.5,104.5C 343.5,119.167 343.5,133.833 343.5,148.5C 366.361,154.184 376.361,168.85 373.5,192.5C 402.833,192.5 432.167,192.5 461.5,192.5C 461.833,175.487 461.499,158.487 460.5,141.5C 444.151,134.457 438.984,122.457 445,105.5C 453.022,92.7478 464.189,88.9145 478.5,94C 490.716,100.621 495.216,110.788 492,124.5C 489.058,132.609 483.558,138.276 475.5,141.5C 474.978,162.247 474.145,182.914 473,203.5C 472.5,204 472,204.5 471.5,205C 438.835,205.5 406.168,205.667 373.5,205.5C 373.5,222.167 373.5,238.833 373.5,255.5C 398.167,255.5 422.833,255.5 447.5,255.5C 452.181,240.982 462.181,234.815 477.5,237C 492.844,242.195 499.01,252.695 496,268.5C 490.494,283.009 479.994,288.842 464.5,286C 456.391,283.058 450.724,277.558 447.5,269.5C 422.842,268.5 398.176,268.167 373.5,268.5C 373.5,288.5 373.5,308.5 373.5,328.5C 388.17,328.333 402.837,328.5 417.5,329C 419.333,329.5 420.5,330.667 421,332.5C 421.333,345.167 421.667,357.833 422,370.5C 439.545,378.798 444.212,391.798 436,409.5C 424.456,422.264 411.623,423.764 397.5,414C 386.08,399.775 387.08,386.442 400.5,374C 402.955,372.688 405.455,371.522 408,370.5C 408.5,360.839 408.666,351.172 408.5,341.5C 396.833,341.5 385.167,341.5 373.5,341.5C 373.324,360.011 364.324,371.844 346.5,377C 337.173,377.5 327.839,377.666 318.5,377.5C 318.5,406.167 318.5,434.833 318.5,463.5C 336.503,463.667 354.503,463.5 372.5,463C 380.857,445.663 393.857,440.996 411.5,449C 425.386,462.064 426.053,475.731 413.5,490C 399.423,498.752 386.923,496.918 376,484.5C 374.688,482.045 373.522,479.545 372.5,477C 351.167,476.667 329.833,476.333 308.5,476C 307.299,475.097 306.465,473.931 306,472.5C 305.5,440.835 305.333,409.168 305.5,377.5C 289.833,377.5 274.167,377.5 258.5,377.5C 258.5,400.167 258.5,422.833 258.5,445.5C 270.036,449.178 276.369,457.178 277.5,469.5C 274.79,488.025 264.124,496.191 245.5,494C 231.354,489.215 225.188,479.382 227,464.5C 229.315,454.352 235.482,448.019 245.5,445.5C 245.5,422.833 245.5,400.167 245.5,377.5C 224.833,377.5 204.167,377.5 183.5,377.5C 183.667,391.171 183.5,404.837 183,418.5C 182.5,419 182,419.5 181.5,420C 168.833,420.333 156.167,420.667 143.5,421C 135.201,439.546 121.867,444.213 103.5,435C 90.1667,421.333 90.1667,407.667 103.5,394C 114.372,387.734 125.038,388.067 135.5,395C 139.183,398.697 141.849,403.03 143.5,408C 152.494,408.5 161.494,408.666 170.5,408.5C 170.832,397.813 170.499,387.146 169.5,376.5C 158.019,372.518 150.186,364.852 146,353.5C 144.585,341.562 144.085,329.562 144.5,317.5C 111.833,317.5 79.1667,317.5 46.5,317.5C 46.1672,334.513 46.5005,351.513 47.5,368.5C 64.9958,376.852 69.4958,389.852 61,407.5C 47,422.167 33,422.167 19,407.5C 10.5074,389.847 15.0074,376.847 32.5,368.5C 33.3331,348.175 33.8331,327.842 34,307.5C 34.8333,306.667 35.6667,305.833 36.5,305C 72.4985,304.5 108.498,304.333 144.5,304.5C 144.5,288.5 144.5,272.5 144.5,256.5C 117.492,256.167 90.4918,256.5 63.5,257.5C 57.6944,271.404 47.3611,276.904 32.5,274C 16.7189,267.6 11.2189,256.1 16,239.5C 25.4561,224.019 38.2894,220.519 54.5,229C 59.4188,232.676 62.4188,237.51 63.5,243.5C 90.5,243.5 117.5,243.5 144.5,243.5C 144.5,222.833 144.5,202.167 144.5,181.5C 126.073,181.974 107.74,181.474 89.5,180C 88.2986,179.097 87.4652,177.931 87,176.5C 86.5001,163.838 86.3334,151.171 86.5,138.5C 78.4257,136.93 72.9257,132.263 70,124.5C 65.1111,107.443 70.9445,95.9432 87.5,90C 105.965,87.9711 116.298,96.1377 118.5,114.5C 117.922,126.918 111.755,135.252 100,139.5C 99.5002,149.161 99.3335,158.828 99.5,168.5C 115.503,168.667 131.503,168.5 147.5,168C 152.92,157.923 161.253,151.59 172.5,149C 180.493,148.5 188.493,148.334 196.5,148.5C 196.5,115.5 196.5,82.5 196.5,49.5C 178.167,49.5 159.833,49.5 141.5,49.5C 138.148,61.5292 130.148,67.8625 117.5,68.5C 98.9898,65.8308 90.8231,55.1641 93,36.5C 100.307,19.0588 112.807,13.8921 130.5,21C 136.717,24.38 140.384,29.5467 141.5,36.5C 162.836,36.3334 184.169,36.5 205.5,37C 206.333,37.8333 207.167,38.6667 208,39.5C 209.481,75.7717 209.981,112.105 209.5,148.5C 225.5,148.5 241.5,148.5 257.5,148.5C 257.5,120.5 257.5,92.5 257.5,64.5C 245.233,61.3313 239.233,53.3313 239.5,40.5C 240.18,27.8255 246.513,19.4922 258.5,15.5 Z M 261.5,28.5 C 273.486,28.9772 277.986,34.9772 275,46.5C 271.223,52.0434 266.056,53.8768 259.5,52C 253.092,48.6772 250.925,43.5105 253,36.5C 254.773,32.5596 257.606,29.893 261.5,28.5 Z M 115.5,30.5 C 127.563,31.719 131.73,38.0523 128,49.5C 121.623,56.936 114.956,57.2693 108,50.5C 103.521,41.1362 106.021,34.4695 115.5,30.5 Z M 392.5,85.5 C 404.498,85.318 409.331,90.9846 407,102.5C 402.872,109.489 397.039,111.322 389.5,108C 381.086,99.2387 382.086,91.7387 392.5,85.5 Z M 89.5,102.5 C 101.998,102.487 106.831,108.487 104,120.5C 98.9187,126.993 92.752,128.16 85.5,124C 79.2256,115.337 80.5589,108.17 89.5,102.5 Z M 466.5,104.5 C 478.021,106.212 481.855,112.545 478,123.5C 471.669,131.102 465.003,131.435 458,124.5C 453.571,114.599 456.404,107.932 466.5,104.5 Z M 174.5,161.5 C 231.168,161.333 287.834,161.5 344.5,162C 352.333,164.5 357.5,169.667 360,177.5C 360.667,234.5 360.667,291.5 360,348.5C 357.5,356.333 352.333,361.5 344.5,364C 287.833,364.667 231.167,364.667 174.5,364C 165.667,361.833 160.167,356.333 158,347.5C 157.333,291.167 157.333,234.833 158,178.5C 160.349,169.652 165.849,163.986 174.5,161.5 Z M 35.5,237.5 C 47.9979,237.487 52.8313,243.487 50,255.5C 46.2229,261.043 41.0562,262.877 34.5,261C 27.0095,256.021 25.5095,249.521 30,241.5C 32.0153,240.303 33.8487,238.97 35.5,237.5 Z M 468.5,249.5 C 480.307,249.144 485.14,254.81 483,266.5C 478.775,273.345 472.942,275.178 465.5,272C 456.887,263.181 457.887,255.681 468.5,249.5 Z M 239.5,260.5 C 254.262,259.263 262.928,265.93 265.5,280.5C 261.527,297.816 251.193,303.65 234.5,298C 224.491,290.962 221.991,281.796 227,270.5C 230.191,265.837 234.358,262.503 239.5,260.5 Z M 37.5,380.5 C 50.2525,381.358 54.4191,387.691 50,399.5C 43.3333,407.5 36.6667,407.5 30,399.5C 25.9384,390.511 28.4384,384.178 37.5,380.5 Z M 413.5,382.5 C 425.126,384.446 428.96,390.779 425,401.5C 418.711,409.09 412.044,409.423 405,402.5C 400.577,392.576 403.41,385.909 413.5,382.5 Z M 114.5,402.5 C 126.87,401.7 132.036,407.367 130,419.5C 123.075,428.365 115.742,428.698 108,420.5C 105.124,412.626 107.29,406.626 114.5,402.5 Z M 248.5,457.5 C 261.907,457.719 266.407,464.052 262,476.5C 257.318,481.523 251.818,482.689 245.5,480C 236.895,471.136 237.895,463.636 248.5,457.5 Z M 392.5,458.5 C 403.9,457.253 409.4,462.253 409,473.5C 403.93,483.289 396.93,484.956 388,478.5C 383.543,470.332 385.043,463.665 392.5,458.5 Z"/></g>
<g><path style="opacity:0.915" fill="#000000" d="M 180.5,212.5 C 184.287,211.814 187.454,212.814 190,215.5C 190.667,247.167 190.667,278.833 190,310.5C 186,314.5 182,314.5 178,310.5C 177.333,278.833 177.333,247.167 178,215.5C 179.045,214.627 179.878,213.627 180.5,212.5 Z"/></g>
<g><path style="opacity:0.921" fill="#000000" d="M 273.5,212.5 C 294.836,212.333 316.169,212.5 337.5,213C 341.096,216.272 341.429,219.938 338.5,224C 329.582,225.414 320.582,225.914 311.5,225.5C 311.667,254.169 311.5,282.835 311,311.5C 308.159,313.504 304.993,314.004 301.5,313C 299.996,311.509 299.163,309.676 299,307.5C 298.5,280.169 298.333,252.835 298.5,225.5C 289.75,225.91 281.084,225.41 272.5,224C 269.689,219.856 270.022,216.022 273.5,212.5 Z"/></g>
<g><path style="opacity:0.911" fill="#000000" d="M 237.5,247.5 C 261.598,245.602 275.265,256.602 278.5,280.5C 276.29,301.045 264.957,312.045 244.5,313.5C 229.206,313.041 218.706,305.707 213,291.5C 208.472,269.541 216.639,254.875 237.5,247.5 Z M 239.5,260.5 C 234.358,262.503 230.191,265.837 227,270.5C 221.991,281.796 224.491,290.962 234.5,298C 251.193,303.65 261.527,297.816 265.5,280.5C 262.928,265.93 254.262,259.263 239.5,260.5 Z"/></g>
</svg>
