<?xml version="1.0" encoding="UTF-8"?>
<!DOCTYPE svg PUBLIC "-//W3C//DTD SVG 1.1//EN" "http://www.w3.org/Graphics/SVG/1.1/DTD/svg11.dtd">
<svg xmlns="http://www.w3.org/2000/svg" version="1.1" width="512px" height="512px" style="shape-rendering:geometricPrecision; text-rendering:geometricPrecision; image-rendering:optimizeQuality; fill-rule:evenodd; clip-rule:evenodd" xmlns:xlink="http://www.w3.org/1999/xlink">
<g><path style="opacity:0.967" fill="#000000" d="M 251.5,7.5 C 254.187,7.33591 256.854,7.50258 259.5,8C 261.333,8.5 262.5,9.66667 263,11.5C 263.667,24.8333 263.667,38.1667 263,51.5C 262.5,53.3333 261.333,54.5 259.5,55C 256.833,55.6667 254.167,55.6667 251.5,55C 249.667,54.5 248.5,53.3333 248,51.5C 247.333,38.1667 247.333,24.8333 248,11.5C 248.69,9.64977 249.856,8.31643 251.5,7.5 Z"/></g>
<g><path style="opacity:0.894" fill="#000000" d="M 172.5,40.5 C 175.978,40.1842 179.312,40.6842 182.5,42C 190,49.5 197.5,57 205,64.5C 208.612,76.8897 204.445,81.0563 192.5,77C 185,69.5 177.5,62 170,54.5C 167.418,49.1198 168.251,44.4531 172.5,40.5 Z"/></g>
<g><path style="opacity:0.892" fill="#000000" d="M 330.5,40.5 C 341.063,39.8946 344.563,44.5612 341,54.5C 333.167,62.3333 325.333,70.1667 317.5,78C 306.259,80.7588 302.092,76.5921 305,65.5C 313.395,56.937 321.895,48.6037 330.5,40.5 Z"/></g>
<g><path style="opacity:0.963" fill="#000000" d="M 250.5,78.5 C 289.425,78.5339 318.592,95.2005 338,128.5C 343.188,138.92 346.355,149.92 347.5,161.5C 382.844,154.632 418.511,151.465 454.5,152C 461.519,154.351 466.686,158.851 470,165.5C 471.079,174.112 471.912,182.779 472.5,191.5C 488.563,196.063 498.73,206.396 503,222.5C 503.989,304.544 503.655,386.544 502,468.5C 496.894,482.606 487.061,491.44 472.5,495C 327.833,495.667 183.167,495.667 38.5,495C 23.9392,491.44 14.1058,482.606 9,468.5C 7.34454,386.544 7.0112,304.544 8,222.5C 12.3333,206.167 22.6667,195.833 39,191.5C 39.0933,183.091 39.76,174.757 41,166.5C 43.998,158.836 49.498,154.003 57.5,152C 71.5225,151.3 85.5225,151.633 99.5,153C 120.961,154.947 142.294,157.78 163.5,161.5C 168.239,124.928 187.573,99.4283 221.5,85C 231.06,81.7245 240.727,79.5578 250.5,78.5 Z M 254.5,95.5 C 294.528,98.0942 319.695,118.761 330,157.5C 334.763,190.562 323.597,216.729 296.5,236C 284.48,248.714 278.313,263.881 278,281.5C 274.18,285.836 269.346,287.836 263.5,287.5C 263.667,267.497 263.5,247.497 263,227.5C 253.524,215.39 243.691,203.556 233.5,192C 247.167,191.333 260.833,191.333 274.5,192C 269.3,196.865 264.467,202.032 260,207.5C 259.432,218.803 264.265,221.969 274.5,217C 283.667,207.833 292.833,198.667 302,189.5C 304,185.5 304,181.5 302,177.5C 301.25,176.874 300.416,176.374 299.5,176C 270.167,175.333 240.833,175.333 211.5,176C 206.459,179.773 205.626,184.273 209,189.5C 221.429,204.685 234.096,219.685 247,234.5C 247.5,252.164 247.667,269.83 247.5,287.5C 241.654,287.836 236.82,285.836 233,281.5C 232.31,269.072 228.977,257.405 223,246.5C 214.667,236.833 205.667,227.833 196,219.5C 173.721,187.248 174.055,155.248 197,123.5C 212.528,106.485 231.694,97.1518 254.5,95.5 Z M 64.5,167.5 C 97.4597,168.792 130.126,172.792 162.5,179.5C 164.39,198.01 170.89,214.676 182,229.5C 190.363,238.197 199.03,246.531 208,254.5C 213.308,263.426 215.975,273.092 216,283.5C 219.167,293.333 225.667,299.833 235.5,303C 249.167,303.667 262.833,303.667 276.5,303C 290.999,297.2 297.832,286.366 297,270.5C 298.475,263.388 301.475,257.055 306,251.5C 330.846,233.63 345.346,209.463 349.5,179C 382.997,171.933 416.664,168.599 450.5,169C 451.667,170.167 452.833,171.333 454,172.5C 454.667,259.833 454.667,347.167 454,434.5C 452.833,435.667 451.667,436.833 450.5,438C 386.181,439.397 324.014,451.564 264,474.5C 263.5,428.168 263.333,381.835 263.5,335.5C 268.297,335.879 272.964,335.379 277.5,334C 279.429,330.744 279.929,327.244 279,323.5C 278.5,321.667 277.333,320.5 275.5,320C 262.167,319.333 248.833,319.333 235.5,320C 232.484,321.529 231.151,324.029 231.5,327.5C 231.404,329.926 232.07,332.093 233.5,334C 238.036,335.379 242.703,335.879 247.5,335.5C 247.667,381.835 247.5,428.168 247,474.5C 186.986,451.564 124.819,439.397 60.5,438C 57.732,436.238 56.232,433.738 56,430.5C 55.3333,345.833 55.3333,261.167 56,176.5C 57.0152,171.654 59.8486,168.654 64.5,167.5 Z M 38.5,209.5 C 39.333,285.332 39.833,361.332 40,437.5C 42.5,446.667 48.3333,452.5 57.5,455C 108.552,456.509 158.552,464.509 207.5,479C 154.167,479.667 100.833,479.667 47.5,479C 33.3333,477.5 25.5,469.667 24,455.5C 23.3333,380.833 23.3333,306.167 24,231.5C 24.6768,221.341 29.5101,214.007 38.5,209.5 Z M 471.5,209.5 C 481.088,213.606 486.255,220.94 487,231.5C 487.667,306.167 487.667,380.833 487,455.5C 485.167,469.333 477.333,477.167 463.5,479C 410.167,479.667 356.833,479.667 303.5,479C 352.448,464.509 402.448,456.509 453.5,455C 462.667,452.5 468.5,446.667 471,437.5C 471.5,361.501 471.667,285.501 471.5,209.5 Z"/></g>
<g><path style="opacity:0.922" fill="#000000" d="M 86.5,198.5 C 99.2158,199.538 111.882,201.038 124.5,203C 129.833,208 129.833,213 124.5,218C 110.733,218.256 97.0668,217.256 83.5,215C 81.6667,214.5 80.5,213.333 80,211.5C 77.998,204.835 80.1647,200.501 86.5,198.5 Z"/></g>
<g><path style="opacity:0.929" fill="#000000" d="M 85.5,231.5 C 106.933,233.085 128.266,235.585 149.5,239C 155.095,241.354 156.928,245.521 155,251.5C 152.755,254.907 149.588,256.24 145.5,255.5C 125.913,252.638 106.246,250.472 86.5,249C 79.4528,246.301 77.6195,241.468 81,234.5C 82.4087,233.219 83.9087,232.219 85.5,231.5 Z"/></g>
<g><path style="opacity:0.931" fill="#000000" d="M 85.5,287.5 C 131.621,290.158 176.621,298.658 220.5,313C 224.432,317.596 224.432,322.263 220.5,327C 218.966,327.923 217.299,328.423 215.5,328.5C 173.407,315.715 130.407,307.882 86.5,305C 81.2944,304.262 78.9611,301.262 79.5,296C 79.399,291.612 81.399,288.779 85.5,287.5 Z"/></g>
<g><path style="opacity:0.93" fill="#000000" d="M 415.5,288.5 C 419.182,288.335 422.848,288.501 426.5,289C 428.286,289.785 429.786,290.951 431,292.5C 431.667,295.5 431.667,298.5 431,301.5C 429.786,303.049 428.286,304.215 426.5,305C 381.224,308.089 336.89,316.255 293.5,329.5C 284.197,325.487 283.197,319.987 290.5,313C 331.43,300.38 373.096,292.214 415.5,288.5 Z"/></g>
<g><path style="opacity:0.931" fill="#000000" d="M 83.5,327.5 C 129.541,329.285 174.541,337.118 218.5,351C 223.008,355.053 223.674,359.72 220.5,365C 218.412,366.03 216.245,366.863 214,367.5C 171.398,354.539 127.898,346.372 83.5,343C 80.484,341.471 79.1506,338.971 79.5,335.5C 79.2824,331.934 80.6157,329.268 83.5,327.5 Z"/></g>
<g><path style="opacity:0.93" fill="#000000" d="M 410.5,327.5 C 416.176,327.334 421.843,327.501 427.5,328C 428.416,328.374 429.25,328.874 430,329.5C 432.109,333.781 431.942,337.948 429.5,342C 383.656,346.309 338.656,355.142 294.5,368.5C 286.636,366.754 284.136,362.088 287,354.5C 287.833,353.667 288.667,352.833 289.5,352C 329.126,339.642 369.459,331.475 410.5,327.5 Z"/></g>
<g><path style="opacity:0.931" fill="#000000" d="M 83.5,367.5 C 129.541,369.285 174.541,377.118 218.5,391C 225.588,395.53 226.255,400.863 220.5,407C 218.966,407.923 217.299,408.423 215.5,408.5C 173.789,395.391 131.122,387.224 87.5,384C 80.3203,382.825 77.8203,378.658 80,371.5C 80.6897,369.65 81.8564,368.316 83.5,367.5 Z"/></g>
<g><path style="opacity:0.932" fill="#000000" d="M 422.5,367.5 C 431.317,369.132 433.817,374.132 430,382.5C 428.055,383.863 425.888,384.697 423.5,385C 379.95,388.01 337.283,395.843 295.5,408.5C 286.846,407.372 284.012,402.705 287,394.5C 287.833,393.667 288.667,392.833 289.5,392C 333.058,378.854 377.392,370.687 422.5,367.5 Z"/></g>
</svg>
