<?xml version="1.0" encoding="UTF-8"?>
<!DOCTYPE svg PUBLIC "-//W3C//DTD SVG 1.1//EN" "http://www.w3.org/Graphics/SVG/1.1/DTD/svg11.dtd">
<svg xmlns="http://www.w3.org/2000/svg" version="1.1" width="512px" height="512px" style="shape-rendering:geometricPrecision; text-rendering:geometricPrecision; image-rendering:optimizeQuality; fill-rule:evenodd; clip-rule:evenodd" xmlns:xlink="http://www.w3.org/1999/xlink">
<g><path style="opacity:0.953" fill="#000000" d="M 235.5,-0.5 C 248.833,-0.5 262.167,-0.5 275.5,-0.5C 356.714,11.8757 410.88,56.8757 438,134.5C 452.708,186.832 447.042,236.832 421,284.5C 407.667,303.833 394.333,323.167 381,342.5C 377.528,347.816 372.695,349.649 366.5,348C 360.975,345.081 359.142,340.581 361,334.5C 374.333,315.167 387.667,295.833 401,276.5C 427.447,229.518 431.781,180.518 414,129.5C 387.569,67.0854 340.736,30.9187 273.5,21C 202.921,16.3731 148.421,43.5398 110,102.5C 86.1441,144.009 80.1441,188.009 92,234.5C 97.075,251.071 104.075,266.738 113,281.5C 160.5,348.5 208,415.5 255.5,482.5C 274.158,457.184 292.325,431.518 310,405.5C 315.035,400.768 320.535,400.268 326.5,404C 329.78,408.182 330.28,412.682 328,417.5C 310.868,442.264 293.368,466.764 275.5,491C 320.5,491.333 365.5,491.667 410.5,492C 415.275,495.655 416.775,500.488 415,506.5C 413.634,508.362 412.134,510.028 410.5,511.5C 307.167,511.5 203.833,511.5 100.5,511.5C 95.7541,507.658 94.2541,502.658 96,496.5C 97.1667,494.667 98.6667,493.167 100.5,492C 145.5,491.667 190.5,491.333 235.5,491C 186.611,422.444 138.111,353.61 90,284.5C 62.1797,232.414 57.8464,178.414 77,122.5C 106.672,51.6627 159.505,10.6627 235.5,-0.5 Z M 254.5,119.5 C 285.179,121.084 307.012,135.75 320,163.5C 331.989,204.344 319.156,234.511 281.5,254C 249.368,264.674 222.201,257.174 200,231.5C 186.688,212.602 183.022,191.935 189,169.5C 200.168,138.685 222.001,122.018 254.5,119.5 Z"/></g>
<g><path style="opacity:0.943" fill="#000000" d="M 241.5,99.5 C 279.74,95.9456 309.907,109.612 332,140.5C 346.911,166.572 349.578,193.906 340,222.5C 326.626,253.866 303.126,272.699 269.5,279C 231.242,283.045 201.076,269.545 179,238.5C 164.089,212.428 161.422,185.094 171,156.5C 184.541,125.121 208.041,106.121 241.5,99.5 Z M 254.5,119.5 C 222.001,122.018 200.168,138.685 189,169.5C 183.022,191.935 186.688,212.602 200,231.5C 222.201,257.174 249.368,264.674 281.5,254C 319.156,234.511 331.989,204.344 320,163.5C 307.012,135.75 285.179,121.084 254.5,119.5 Z"/></g>
<g><path style="opacity:0.908" fill="#000000" d="M 340.5,365.5 C 352.324,363.824 357.158,368.824 355,380.5C 351.345,385.275 346.512,386.775 340.5,385C 335.725,381.345 334.225,376.512 336,370.5C 337.366,368.638 338.866,366.972 340.5,365.5 Z"/></g>
</svg>
