<?xml version="1.0" encoding="UTF-8"?>
<!DOCTYPE svg PUBLIC "-//W3C//DTD SVG 1.1//EN" "http://www.w3.org/Graphics/SVG/1.1/DTD/svg11.dtd">
<svg xmlns="http://www.w3.org/2000/svg" version="1.1" width="512px" height="512px" style="shape-rendering:geometricPrecision; text-rendering:geometricPrecision; image-rendering:optimizeQuality; fill-rule:evenodd; clip-rule:evenodd" xmlns:xlink="http://www.w3.org/1999/xlink">
<g><path style="opacity:0.935" fill="#000000" d="M 204.5,7.5 C 218.411,5.02929 227.577,10.3626 232,23.5C 236.308,38.3975 240.141,53.3975 243.5,68.5C 265.044,69.435 277.044,80.6016 279.5,102C 279.184,109.95 276.684,117.117 272,123.5C 268.599,127.071 265.099,130.405 261.5,133.5C 265.489,147.79 269.322,162.123 273,176.5C 274.385,185.899 271.219,193.399 263.5,199C 257.724,201.394 251.724,202.061 245.5,201C 215.652,190.704 184.986,184.538 153.5,182.5C 151.167,182.833 148.833,183.167 146.5,183.5C 152.803,205.578 158.803,227.745 164.5,250C 164.205,252.923 162.871,255.257 160.5,257C 139.53,266.225 123.363,261.059 112,241.5C 107.667,225.5 103.333,209.5 99,193.5C 73.6585,200.831 53.3252,193.831 38,172.5C 25.6283,148.368 28.795,126.535 47.5,107C 52.0026,103.245 57.0026,100.245 62.5,98C 78.4429,93.4636 94.4429,89.1303 110.5,85C 124.602,77.56 137.602,68.56 149.5,58C 166.167,42 182.833,26 199.5,10C 201.315,9.24316 202.981,8.40982 204.5,7.5 Z M 208.5,24.5 C 212.757,23.5971 215.257,25.2637 216,29.5C 229.346,79.8825 242.846,130.216 256.5,180.5C 255.097,184.254 252.43,185.421 248.5,184C 245.607,183.369 242.774,182.536 240,181.5C 238.265,180.318 237.265,178.651 237,176.5C 224.499,129.664 211.999,82.831 199.5,36C 199.667,35.1667 199.833,34.3333 200,33.5C 203.038,30.6306 205.871,27.6306 208.5,24.5 Z M 184.5,48.5 C 196.752,90.5045 207.918,132.838 218,175.5C 193.281,168.348 168.114,165.181 142.5,166C 136.322,143.289 129.989,120.622 123.5,98C 145.761,83.9089 166.094,67.4089 184.5,48.5 Z M 249.5,86.5 C 259.621,90.0771 263.455,97.0771 261,107.5C 260.163,109.844 258.829,111.844 257,113.5C 253.729,104.752 251.229,95.7524 249.5,86.5 Z M 105.5,103.5 C 107.614,104.36 108.78,106.027 109,108.5C 114.273,128.761 119.773,148.927 125.5,169C 112.833,172.333 100.167,175.667 87.5,179C 68.8502,180.682 56.0169,172.848 49,155.5C 45.1344,137.752 50.9678,124.252 66.5,115C 79.583,111.023 92.583,107.19 105.5,103.5 Z M 128.5,185.5 C 129.793,186.842 130.626,188.509 131,190.5C 136.133,208.365 140.633,226.365 144.5,244.5C 138.631,244.934 133.798,242.934 130,238.5C 124.778,222.442 119.944,206.275 115.5,190C 119.846,188.336 124.18,186.836 128.5,185.5 Z"/></g>
<g><path style="opacity:0.903" fill="#000000" d="M 279.5,26.5 C 286.939,24.431 291.272,27.0976 292.5,34.5C 289.553,41.7265 286.053,48.7265 282,55.5C 274.348,60.5884 269.181,58.7551 266.5,50C 269.93,41.6369 274.264,33.8036 279.5,26.5 Z"/></g>
<g><path style="opacity:0.898" fill="#000000" d="M 317.5,73.5 C 323.878,73.2126 327.544,76.2126 328.5,82.5C 328.444,85.1113 327.444,87.278 325.5,89C 318.122,91.5533 310.622,93.72 303,95.5C 297.483,95.3167 294.65,92.4834 294.5,87C 294.408,84.1861 295.408,81.8527 297.5,80C 304.274,77.8142 310.941,75.6475 317.5,73.5 Z"/></g>
<g><path style="opacity:0.898" fill="#000000" d="M 293.5,123.5 C 301.165,126.165 308.498,129.665 315.5,134C 320.842,139.33 320.509,144.33 314.5,149C 311.833,149.667 309.167,149.667 306.5,149C 300.998,145.415 295.331,142.081 289.5,139C 285.04,132.228 286.373,127.061 293.5,123.5 Z"/></g>
<g><path style="opacity:0.93" fill="#000000" d="M 441.5,149.5 C 445.883,149.348 449.383,151.015 452,154.5C 451.738,166.867 450.738,179.2 449,191.5C 447.603,199.615 443.103,202.115 435.5,199C 433.236,197.221 431.903,194.887 431.5,192C 432.536,188.879 432.703,185.713 432,182.5C 403.138,211.028 374.638,239.861 346.5,269C 344.412,270.03 342.245,270.863 340,271.5C 306.305,260.495 272.638,249.495 239,238.5C 206.409,263.879 173.909,289.379 141.5,315C 136.759,319.235 131.925,319.401 127,315.5C 124.3,309.733 125.467,304.9 130.5,301C 165.167,274.333 199.833,247.667 234.5,221C 237.558,220.542 240.558,220.876 243.5,222C 275.071,232.636 306.738,242.636 338.5,252C 366.167,224.333 393.833,196.667 421.5,169C 416.577,169.552 411.577,169.552 406.5,169C 402.672,165.736 401.505,161.569 403,156.5C 403.833,155.667 404.667,154.833 405.5,154C 417.607,152.343 429.607,150.843 441.5,149.5 Z"/></g>
<g><path style="opacity:0.946" fill="#000000" d="M 412.5,236.5 C 433.836,236.333 455.169,236.5 476.5,237C 478.049,238.214 479.215,239.714 480,241.5C 480.667,327.167 480.667,412.833 480,498.5C 479.215,500.286 478.049,501.786 476.5,503C 455.167,503.667 433.833,503.667 412.5,503C 409.898,502.065 408.398,500.232 408,497.5C 407.333,412.5 407.333,327.5 408,242.5C 408.599,239.746 410.099,237.746 412.5,236.5 Z M 424.5,253.5 C 437.5,253.5 450.5,253.5 463.5,253.5C 463.5,331.5 463.5,409.5 463.5,487.5C 450.5,487.5 437.5,487.5 424.5,487.5C 424.5,409.5 424.5,331.5 424.5,253.5 Z"/></g>
<g><path style="opacity:0.947" fill="#000000" d="M 205.5,309.5 C 226.836,309.333 248.169,309.5 269.5,310C 271.049,311.214 272.215,312.714 273,314.5C 273.667,375.833 273.667,437.167 273,498.5C 272.215,500.286 271.049,501.786 269.5,503C 248.167,503.667 226.833,503.667 205.5,503C 203.185,501.891 201.685,500.057 201,497.5C 200.333,436.833 200.333,376.167 201,315.5C 201.804,312.854 203.304,310.854 205.5,309.5 Z M 217.5,326.5 C 230.5,326.5 243.5,326.5 256.5,326.5C 256.5,380.167 256.5,433.833 256.5,487.5C 243.5,487.5 230.5,487.5 217.5,487.5C 217.5,433.833 217.5,380.167 217.5,326.5 Z"/></g>
<g><path style="opacity:0.947" fill="#000000" d="M 309.5,332.5 C 330.503,332.333 351.503,332.5 372.5,333C 373.667,334.167 374.833,335.333 376,336.5C 377.649,389.788 377.983,443.122 377,496.5C 376.594,499.494 375.094,501.661 372.5,503C 351.167,503.667 329.833,503.667 308.5,503C 307.333,501.833 306.167,500.667 305,499.5C 304.333,445.5 304.333,391.5 305,337.5C 306.025,335.313 307.525,333.646 309.5,332.5 Z M 321.5,349.5 C 334.5,349.5 347.5,349.5 360.5,349.5C 360.5,395.5 360.5,441.5 360.5,487.5C 347.5,487.5 334.5,487.5 321.5,487.5C 321.5,441.5 321.5,395.5 321.5,349.5 Z"/></g>
<g><path style="opacity:0.95" fill="#000000" d="M 101.5,378.5 C 122.836,378.333 144.169,378.5 165.5,379C 168.094,380.339 169.594,382.506 170,385.5C 170.667,422.5 170.667,459.5 170,496.5C 169.55,498.519 168.717,500.352 167.5,502C 145.589,503.644 123.589,503.978 101.5,503C 100.667,502.167 99.8333,501.333 99,500.5C 97.3457,461.584 97.0123,422.584 98,383.5C 98.9973,381.677 100.164,380.01 101.5,378.5 Z M 114.5,395.5 C 127.5,395.5 140.5,395.5 153.5,395.5C 153.5,426.167 153.5,456.833 153.5,487.5C 140.5,487.5 127.5,487.5 114.5,487.5C 114.5,456.833 114.5,426.167 114.5,395.5 Z"/></g>
</svg>
