<?xml version="1.0" encoding="UTF-8"?>
<!DOCTYPE svg PUBLIC "-//W3C//DTD SVG 1.1//EN" "http://www.w3.org/Graphics/SVG/1.1/DTD/svg11.dtd">
<svg xmlns="http://www.w3.org/2000/svg" version="1.1" width="512px" height="512px" style="shape-rendering:geometricPrecision; text-rendering:geometricPrecision; image-rendering:optimizeQuality; fill-rule:evenodd; clip-rule:evenodd" xmlns:xlink="http://www.w3.org/1999/xlink">
<g><path style="opacity:0.927" fill="#000000" d="M 253.5,8.5 C 256.747,8.41521 259.581,9.41521 262,11.5C 285.175,46.5045 306.842,82.5045 327,119.5C 340.4,143.704 351.067,169.038 359,195.5C 367.264,248.469 348.097,287.969 301.5,314C 259.619,331.402 220.952,326.069 185.5,298C 154.322,268.793 143.488,233.293 153,191.5C 162.764,161.879 175.43,133.546 191,106.5C 209.143,74.0423 228.476,42.3756 249,11.5C 250.409,10.2189 251.909,9.21886 253.5,8.5 Z M 254.5,32.5 C 256.074,32.9371 257.241,33.9371 258,35.5C 282.609,73.0334 304.942,112.033 325,152.5C 331.116,165.515 336.45,178.848 341,192.5C 351.39,233.331 339.89,266.497 306.5,292C 279.674,309.084 251.341,312.084 221.5,301C 186.583,284.397 167.916,256.731 165.5,218C 165.84,209.3 167.34,200.8 170,192.5C 180.632,162.57 193.965,133.904 210,106.5C 224.604,81.612 239.438,56.9453 254.5,32.5 Z"/></g>
<g><path style="opacity:0.925" fill="#000000" d="M 106.5,28.5 C 110.516,27.8999 114.016,28.8999 117,31.5C 132.859,54.2122 145.859,78.5455 156,104.5C 161.75,130.832 152.584,149.999 128.5,162C 100.986,170.501 80.1524,162.334 66,137.5C 60.7046,124.351 60.7046,111.351 66,98.5C 76.7364,73.333 90.2364,49.9997 106.5,28.5 Z M 109.5,51.5 C 121.718,69.2613 131.885,88.2613 140,108.5C 143.572,131.946 133.572,145.613 110,149.5C 88.1477,146.787 77.8144,134.454 79,112.5C 81.0776,105.266 83.7443,98.2659 87,91.5C 94.2707,77.9502 101.771,64.6169 109.5,51.5 Z"/></g>
<g><path style="opacity:0.927" fill="#000000" d="M 397.5,28.5 C 401.516,27.8999 405.016,28.8999 408,31.5C 420.346,50.8507 431.679,70.8507 442,91.5C 453.577,114.55 450.411,135.383 432.5,154C 412.663,168.457 392.33,169.123 371.5,156C 352.606,139.097 348.106,118.931 358,95.5C 368.674,71.4529 381.841,49.1195 397.5,28.5 Z M 400.5,51.5 C 410.319,66.456 419.152,82.1227 427,98.5C 437.09,118.212 432.924,134.045 414.5,146C 396.056,152.677 381.889,147.511 372,130.5C 369.655,124.357 368.989,118.024 370,111.5C 371.607,106.012 373.607,100.678 376,95.5C 383.43,80.295 391.597,65.6284 400.5,51.5 Z"/></g>
<g><path style="opacity:0.914" fill="#000000" d="M 116.5,90.5 C 120.115,90.2055 123.282,91.2055 126,93.5C 130.265,101.023 133.098,109.023 134.5,117.5C 133.997,129.161 128.163,136.495 117,139.5C 111.591,139.59 109.091,136.923 109.5,131.5C 110.205,126.944 112.705,123.61 117,121.5C 117.402,120.128 117.902,118.795 118.5,117.5C 115.564,111.354 113.23,105.021 111.5,98.5C 111.546,94.7935 113.213,92.1268 116.5,90.5 Z"/></g>
<g><path style="opacity:0.912" fill="#000000" d="M 407.5,90.5 C 410.972,90.1262 413.972,91.1262 416.5,93.5C 421.088,100.934 424.088,108.934 425.5,117.5C 424.957,129.195 419.124,136.528 408,139.5C 403.01,139.512 400.176,137.012 399.5,132C 399.933,127.446 402.266,124.446 406.5,123C 407.5,121.333 408.5,119.667 409.5,118C 406.698,111.562 404.032,105.062 401.5,98.5C 402.406,94.9383 404.406,92.2716 407.5,90.5 Z"/></g>
<g><path style="opacity:0.921" fill="#000000" d="M 293.5,149.5 C 296.187,149.336 298.854,149.503 301.5,150C 302.308,150.308 302.975,150.808 303.5,151.5C 315.366,172.266 323.366,194.432 327.5,218C 324.836,254.205 306.169,277.371 271.5,287.5C 262.737,284.177 261.404,279.01 267.5,272C 300.711,260.737 314.211,237.903 308,203.5C 302.976,188.76 296.976,174.427 290,160.5C 288.663,155.872 289.83,152.205 293.5,149.5 Z"/></g>
<g><path style="opacity:0.929" fill="#000000" d="M 31.5,155.5 C 43.1087,154.89 52.2754,159.223 59,168.5C 72.9968,205.822 86.9968,243.156 101,280.5C 127.088,294.128 153.255,307.628 179.5,321C 187.874,326.705 194.04,334.205 198,343.5C 206.068,367.87 214.235,392.204 222.5,416.5C 233.116,416.053 240.95,420.387 246,429.5C 247.613,447.781 247.947,466.114 247,484.5C 245.527,493.973 240.027,499.473 230.5,501C 197.5,501.667 164.5,501.667 131.5,501C 124.453,500.288 119.286,496.788 116,490.5C 114.37,470.898 114.037,451.232 115,431.5C 118.089,422.853 124.256,417.853 133.5,416.5C 130.163,409.657 125.497,403.824 119.5,399C 99.8333,387.333 80.1667,375.667 60.5,364C 54.8402,358.674 50.3402,352.508 47,345.5C 34.3541,293.583 22.0207,241.583 10,189.5C 7.73914,171.972 14.9058,160.639 31.5,155.5 Z M 31.5,172.5 C 37.0698,171.416 41.5698,173.083 45,177.5C 57.8057,211.42 70.3057,245.42 82.5,279.5C 66.3577,283.504 59.5244,293.838 62,310.5C 63.8516,317.034 67.3516,322.534 72.5,327C 87.1667,334.333 101.833,341.667 116.5,349C 123.303,350.773 127.303,348.273 128.5,341.5C 128.444,338.889 127.444,336.722 125.5,335C 111.5,328 97.5,321 83.5,314C 75.6978,307.779 75.6978,301.779 83.5,296C 86.1667,295.333 88.8333,295.333 91.5,296C 118.224,308.195 144.557,321.195 170.5,335C 176.444,338.715 180.611,343.882 183,350.5C 190.308,372.757 197.808,394.924 205.5,417C 188.167,417.667 170.833,417.667 153.5,417C 146.075,400.802 134.742,388.135 119.5,379C 105.328,370.746 90.9948,362.746 76.5,355C 67.6644,349.491 62.1644,341.658 60,331.5C 48.5,282 37,232.5 25.5,183C 26.0705,178.616 28.0705,175.116 31.5,172.5 Z M 132.5,433.5 C 164.877,433.174 197.21,433.507 229.5,434.5C 230.666,450.823 230.833,467.156 230,483.5C 197.238,484.662 164.405,484.829 131.5,484C 130.342,467.907 130.176,451.741 131,435.5C 131.717,434.956 132.217,434.289 132.5,433.5 Z"/></g>
<g><path style="opacity:0.929" fill="#000000" d="M 472.5,155.5 C 490.458,155.958 500.125,165.125 501.5,183C 490.514,233.927 479.014,284.76 467,335.5C 464.051,348.574 457.218,359.074 446.5,367C 428.003,377.414 409.669,388.081 391.5,399C 385.503,403.824 380.837,409.657 377.5,416.5C 386.744,417.853 392.911,422.853 396,431.5C 396.963,451.232 396.63,470.898 395,490.5C 391.714,496.788 386.547,500.288 379.5,501C 346.5,501.667 313.5,501.667 280.5,501C 271.424,499.59 265.924,494.423 264,485.5C 263.052,466.781 263.386,448.114 265,429.5C 270.252,420.206 278.252,415.872 289,416.5C 297.544,389.532 306.878,362.865 317,336.5C 321.167,331 326,326.167 331.5,322C 357.746,308.294 383.912,294.461 410,280.5C 423.34,244.49 436.673,208.49 450,172.5C 454.729,163.063 462.229,157.397 472.5,155.5 Z M 471.5,172.5 C 479.625,171.395 484.292,174.895 485.5,183C 474,232.5 462.5,282 451,331.5C 448.836,341.658 443.336,349.491 434.5,355C 414.715,365.139 395.715,376.473 377.5,389C 369.281,397.22 362.615,406.553 357.5,417C 340.503,417.5 323.503,417.667 306.5,417.5C 313.358,395.425 320.525,373.425 328,351.5C 330.389,344.882 334.556,339.715 340.5,336C 366.439,321.864 392.772,308.531 419.5,296C 430.37,294.532 434.537,299.032 432,309.5C 430.5,311 429,312.5 427.5,314C 413.5,321 399.5,328 385.5,335C 381.074,340.441 381.741,345.108 387.5,349C 389.833,349.667 392.167,349.667 394.5,349C 409.167,341.667 423.833,334.333 438.5,327C 448.541,318.206 451.708,307.373 448,294.5C 444.205,286.016 437.705,281.016 428.5,279.5C 440.701,245.423 453.201,211.423 466,177.5C 467.73,175.598 469.563,173.931 471.5,172.5 Z M 282.5,433.5 C 314.467,433.458 346.467,433.624 378.5,434C 379,434.5 379.5,435 380,435.5C 380.667,451.5 380.667,467.5 380,483.5C 347.238,484.662 314.405,484.829 281.5,484C 280.84,475.742 280.507,467.409 280.5,459C 280.53,450.269 281.196,441.769 282.5,433.5 Z"/></g>
<g><path style="opacity:0.888" fill="#000000" d="M 141.5,451.5 C 146.844,451.334 152.177,451.501 157.5,452C 162.166,456.006 162.666,460.506 159,465.5C 156.072,467.038 152.906,467.704 149.5,467.5C 143.08,468.407 139.08,465.741 137.5,459.5C 137.892,456.299 139.226,453.633 141.5,451.5 Z"/></g>
<g><path style="opacity:0.888" fill="#000000" d="M 353.5,451.5 C 358.844,451.334 364.177,451.501 369.5,452C 375.069,457.391 374.736,462.391 368.5,467C 363.051,467.896 357.718,467.563 352.5,466C 348.308,460.814 348.641,455.981 353.5,451.5 Z"/></g>
</svg>
