<?xml version="1.0" encoding="UTF-8"?>
<!DOCTYPE svg PUBLIC "-//W3C//DTD SVG 1.1//EN" "http://www.w3.org/Graphics/SVG/1.1/DTD/svg11.dtd">
<svg xmlns="http://www.w3.org/2000/svg" version="1.1" width="512px" height="512px" style="shape-rendering:geometricPrecision; text-rendering:geometricPrecision; image-rendering:optimizeQuality; fill-rule:evenodd; clip-rule:evenodd" xmlns:xlink="http://www.w3.org/1999/xlink">
<g><path style="opacity:0.956" fill="#000000" d="M 111.5,-0.5 C 207.5,-0.5 303.5,-0.5 399.5,-0.5C 415.027,4.19751 424.527,14.5308 428,30.5C 428.333,72.1667 428.667,113.833 429,155.5C 456.689,174.079 484.189,192.745 511.5,211.5C 511.5,301.833 511.5,392.167 511.5,482.5C 506.833,497.167 497.167,506.833 482.5,511.5C 331.167,511.5 179.833,511.5 28.5,511.5C 13.8333,506.833 4.16667,497.167 -0.5,482.5C -0.5,392.167 -0.5,301.833 -0.5,211.5C 26.8106,192.745 54.3106,174.079 82,155.5C 82.3333,137.167 82.6667,118.833 83,100.5C 85.2258,96.1392 88.7258,94.6392 93.5,96C 95.6667,96.8333 97.1667,98.3333 98,100.5C 98.1689,156.071 98.6689,211.571 99.5,267C 125.056,284.066 150.722,300.899 176.5,317.5C 192.795,307.014 209.128,296.514 225.5,286C 245.5,277.333 265.5,277.333 285.5,286C 301.872,296.514 318.205,307.014 334.5,317.5C 344.795,311.015 355.128,304.515 365.5,298C 371.475,296.994 375.141,299.494 376.5,305.5C 375.946,307.61 375.112,309.61 374,311.5C 365.833,317 357.667,322.5 349.5,328C 398.419,360.376 447.253,392.876 496,425.5C 496.667,360.5 496.667,295.5 496,230.5C 464.909,250.628 434.076,271.128 403.5,292C 393.544,296.571 389.044,293.405 390,282.5C 396.802,276.433 404.135,271.099 412,266.5C 412.667,188.5 412.667,110.5 412,32.5C 408.98,21.5733 401.814,15.74 390.5,15C 298.47,14.0149 206.47,14.3483 114.5,16C 107.427,18.0724 102.594,22.5724 100,29.5C 98.7188,43.4316 98.0522,57.4316 98,71.5C 94.9867,76.5352 90.8201,77.7019 85.5,75C 84.2986,74.0975 83.4652,72.9308 83,71.5C 82.0664,56.4452 82.3998,41.4452 84,26.5C 88.4193,12.58 97.586,3.57997 111.5,-0.5 Z M 220.5,62.5 C 224.167,62.5 227.833,62.5 231.5,62.5C 231.5,66.5 231.5,70.5 231.5,74.5C 227.089,74.979 222.922,74.3124 219,72.5C 216.729,68.6965 217.229,65.3632 220.5,62.5 Z M 81.5,175.5 C 82.6635,201.997 82.8302,228.664 82,255.5C 62.0303,242.363 42.1969,229.029 22.5,215.5C 42.0224,201.909 61.6891,188.576 81.5,175.5 Z M 428.5,175.5 C 448.852,188.34 468.852,201.673 488.5,215.5C 468.803,229.029 448.97,242.363 429,255.5C 428.5,228.835 428.333,202.169 428.5,175.5 Z M 361.5,225.5 C 367.472,224.309 369.805,226.476 368.5,232C 366.19,232.497 363.857,232.663 361.5,232.5C 361.5,230.167 361.5,227.833 361.5,225.5 Z M 14.5,230.5 C 63.8149,262.493 112.815,294.993 161.5,328C 112.581,360.376 63.7474,392.876 15,425.5C 14.5,360.501 14.3333,295.501 14.5,230.5 Z M 247.5,295.5 C 259.994,294.232 271.661,296.732 282.5,303C 353.5,350.167 424.5,397.333 495.5,444.5C 496.838,456.524 496.672,468.524 495,480.5C 491.312,489.858 484.479,495.025 474.5,496C 328.5,496.667 182.5,496.667 36.5,496C 26.5214,495.025 19.6881,489.858 16,480.5C 14.3285,468.524 14.1618,456.524 15.5,444.5C 86.5,397.333 157.5,350.167 228.5,303C 234.604,299.583 240.937,297.083 247.5,295.5 Z"/></g>
<g><path style="opacity:0.937" fill="#000000" d="M 292.5,29.5 C 299.852,27.7585 305.352,30.0919 309,36.5C 309.667,57.8333 309.667,79.1667 309,100.5C 305.551,106.544 300.385,108.71 293.5,107C 275.131,101.599 256.798,96.0992 238.5,90.5C 238.167,91 237.833,91.5 237.5,92C 240.103,100.674 241.27,109.507 241,118.5C 236.833,123.405 232.333,123.738 227.5,119.5C 224.732,109.995 222.732,100.328 221.5,90.5C 204.79,86.5967 198.623,76.2634 203,59.5C 205.986,53.18 210.819,49.0133 217.5,47C 224.5,46.6667 231.5,46.3333 238.5,46C 256.703,40.7624 274.703,35.2624 292.5,29.5 Z M 291.5,46.5 C 292.831,53.4682 293.497,60.8016 293.5,68.5C 293.333,75.8333 293.167,83.1667 293,90.5C 278.219,85.7401 263.386,81.0734 248.5,76.5C 247.194,70.9462 247.194,65.4462 248.5,60C 263.038,55.7629 277.372,51.2629 291.5,46.5 Z M 220.5,62.5 C 217.229,65.3632 216.729,68.6965 219,72.5C 222.922,74.3124 227.089,74.979 231.5,74.5C 231.5,70.5 231.5,66.5 231.5,62.5C 227.833,62.5 224.167,62.5 220.5,62.5 Z"/></g>
<g><path style="opacity:0.938" fill="#000000" d="M 154.5,134.5 C 157.93,134.107 161.096,134.773 164,136.5C 169.667,144.833 175.333,153.167 181,161.5C 181.098,153.423 181.765,145.423 183,137.5C 188.033,133.221 192.7,133.554 197,138.5C 197.667,155.833 197.667,173.167 197,190.5C 193.68,194.943 189.514,196.109 184.5,194C 178.279,186.112 172.445,177.945 167,169.5C 166.667,175.833 166.333,182.167 166,188.5C 164.535,194.653 160.702,196.82 154.5,195C 153.5,194.167 152.5,193.333 151.5,192.5C 150.347,174.544 150.18,156.544 151,138.5C 152.376,137.295 153.542,135.962 154.5,134.5 Z"/></g>
<g><path style="opacity:0.927" fill="#000000" d="M 210.5,134.5 C 218.84,134.334 227.173,134.5 235.5,135C 241.259,138.892 241.926,143.559 237.5,149C 232.292,150.397 226.959,150.897 221.5,150.5C 221.5,152.833 221.5,155.167 221.5,157.5C 226.179,157.334 230.845,157.501 235.5,158C 240.833,162.667 240.833,167.333 235.5,172C 230.845,172.499 226.179,172.666 221.5,172.5C 221.5,174.833 221.5,177.167 221.5,179.5C 226.959,179.103 232.292,179.603 237.5,181C 241.5,185.333 241.5,189.667 237.5,194C 228.602,195.609 219.602,195.942 210.5,195C 208.333,194.167 206.833,192.667 206,190.5C 205.333,173.5 205.333,156.5 206,139.5C 207.025,137.313 208.525,135.646 210.5,134.5 Z"/></g>
<g><path style="opacity:0.931" fill="#000000" d="M 251.5,134.5 C 255.909,133.618 259.409,134.952 262,138.5C 263.461,144.806 264.794,151.139 266,157.5C 268.155,151.214 270.155,144.88 272,138.5C 276.3,133.554 280.967,133.221 286,137.5C 288.155,143.786 290.155,150.12 292,156.5C 293.585,151.249 294.918,145.915 296,140.5C 297.695,135.401 301.195,133.568 306.5,135C 308.286,135.785 309.786,136.951 311,138.5C 311.667,141.5 311.667,144.5 311,147.5C 308.333,160.833 305.667,174.167 303,187.5C 301.41,194.214 297.244,196.714 290.5,195C 288.714,194.215 287.214,193.049 286,191.5C 283.663,184.489 281.33,177.489 279,170.5C 276.997,178.009 274.497,185.342 271.5,192.5C 266.762,196.423 262.095,196.423 257.5,192.5C 253.073,176.034 249.406,159.368 246.5,142.5C 246.672,138.807 248.339,136.141 251.5,134.5 Z"/></g>
<g><path style="opacity:0.921" fill="#000000" d="M 332.5,134.5 C 342.296,133.267 350.796,135.933 358,142.5C 360.509,151.661 357.009,155.495 347.5,154C 344.865,151.954 341.865,150.787 338.5,150.5C 336.681,150.342 335.348,151.009 334.5,152.5C 341.779,155.473 348.779,158.973 355.5,163C 365.175,178.295 361.509,188.962 344.5,195C 333.559,196.798 324.392,193.631 317,185.5C 314.353,178.794 316.519,174.461 323.5,172.5C 327.859,174.03 331.859,176.197 335.5,179C 337.833,179.667 340.167,179.667 342.5,179C 345.167,177.333 345.167,175.667 342.5,174C 336.833,171.667 331.167,169.333 325.5,167C 318.009,160.006 316.509,151.84 321,142.5C 324.15,138.689 327.983,136.023 332.5,134.5 Z"/></g>
<g><path style="opacity:0.92" fill="#000000" d="M 129.5,209.5 C 133.954,208.617 137.454,209.95 140,213.5C 140.5,227.163 140.667,240.829 140.5,254.5C 144.182,254.335 147.848,254.501 151.5,255C 156.224,257.435 157.724,261.269 156,266.5C 154.833,267.667 153.667,268.833 152.5,270C 144.833,270.667 137.167,270.667 129.5,270C 126.906,268.661 125.406,266.494 125,263.5C 124.333,247.833 124.333,232.167 125,216.5C 125.53,213.415 127.03,211.082 129.5,209.5 Z"/></g>
<g><path style="opacity:0.928" fill="#000000" d="M 169.5,209.5 C 177.84,209.334 186.173,209.5 194.5,210C 197.813,211.566 199.479,214.233 199.5,218C 199.297,220.406 198.297,222.406 196.5,224C 191.292,225.397 185.959,225.897 180.5,225.5C 180.5,227.833 180.5,230.167 180.5,232.5C 185.179,232.334 189.845,232.501 194.5,233C 198.5,237.667 198.5,242.333 194.5,247C 189.845,247.499 185.179,247.666 180.5,247.5C 180.5,249.833 180.5,252.167 180.5,254.5C 185.959,254.103 191.292,254.603 196.5,256C 200.379,260.298 200.379,264.631 196.5,269C 187.602,270.609 178.602,270.942 169.5,270C 167.333,269.167 165.833,267.667 165,265.5C 164.333,248.5 164.333,231.5 165,214.5C 166.025,212.313 167.525,210.646 169.5,209.5 Z"/></g>
<g><path style="opacity:0.95" fill="#000000" d="M 211.5,209.5 C 222.603,209.046 233.603,209.546 244.5,211C 249.849,221.432 246.515,226.266 234.5,225.5C 234.667,239.171 234.5,252.837 234,266.5C 232.607,269.366 230.274,270.699 227,270.5C 223.726,270.699 221.393,269.366 220,266.5C 219.5,252.837 219.333,239.171 219.5,225.5C 210.342,227.165 206.175,223.499 207,214.5C 208.025,212.313 209.525,210.646 211.5,209.5 Z"/></g>
<g><path style="opacity:0.924" fill="#000000" d="M 259.5,209.5 C 270.172,209.333 280.839,209.5 291.5,210C 295.277,212.955 296.443,216.788 295,221.5C 291.96,224.966 288.126,226.3 283.5,225.5C 283.667,238.504 283.5,251.504 283,264.5C 281.02,269.906 277.186,271.739 271.5,270C 270.333,268.833 269.167,267.667 268,266.5C 267.5,252.837 267.333,239.171 267.5,225.5C 257.295,226.474 253.462,222.141 256,212.5C 257.145,211.364 258.312,210.364 259.5,209.5 Z"/></g>
<g><path style="opacity:0.934" fill="#000000" d="M 308.5,209.5 C 316.507,209.334 324.507,209.5 332.5,210C 339.016,213.402 340.016,218.069 335.5,224C 330.292,225.397 324.959,225.897 319.5,225.5C 319.5,227.833 319.5,230.167 319.5,232.5C 323.846,232.334 328.179,232.501 332.5,233C 335.366,234.393 336.699,236.726 336.5,240C 336.699,243.274 335.366,245.607 332.5,247C 328.179,247.499 323.846,247.666 319.5,247.5C 319.5,249.833 319.5,252.167 319.5,254.5C 324.959,254.103 330.292,254.603 335.5,256C 339.483,260.294 339.483,264.627 335.5,269C 326.576,270.58 317.576,270.913 308.5,270C 306.333,269.167 304.833,267.667 304,265.5C 303.333,248.5 303.333,231.5 304,214.5C 305.025,212.313 306.525,210.646 308.5,209.5 Z"/></g>
<g><path style="opacity:0.931" fill="#000000" d="M 350.5,209.5 C 358.571,209.137 366.571,209.637 374.5,211C 386.523,218.774 389.023,228.941 382,241.5C 379.926,243.452 377.759,245.285 375.5,247C 377.628,250.13 380.128,252.963 383,255.5C 387.288,259.885 387.455,264.385 383.5,269C 379.833,271 376.167,271 372.5,269C 369,264.833 365.5,260.667 362,256.5C 361.667,259.5 361.333,262.5 361,265.5C 357.108,271.259 352.441,271.926 347,267.5C 345.361,249.924 345.028,232.258 346,214.5C 347.025,212.313 348.525,210.646 350.5,209.5 Z M 361.5,225.5 C 361.5,227.833 361.5,230.167 361.5,232.5C 363.857,232.663 366.19,232.497 368.5,232C 369.805,226.476 367.472,224.309 361.5,225.5 Z"/></g>
</svg>
