<?xml version="1.0" encoding="UTF-8"?>
<!DOCTYPE svg PUBLIC "-//W3C//DTD SVG 1.1//EN" "http://www.w3.org/Graphics/SVG/1.1/DTD/svg11.dtd">
<svg xmlns="http://www.w3.org/2000/svg" version="1.1" width="512px" height="512px" style="shape-rendering:geometricPrecision; text-rendering:geometricPrecision; image-rendering:optimizeQuality; fill-rule:evenodd; clip-rule:evenodd" xmlns:xlink="http://www.w3.org/1999/xlink">
<g><path style="opacity:0.993" fill="#000000" d="M 3.5,-0.5 C 141.5,-0.5 279.5,-0.5 417.5,-0.5C 419.144,0.316435 420.31,1.64977 421,3.5C 421.5,12.1603 421.666,20.8269 421.5,29.5C 430.94,29.0545 440.274,29.5545 449.5,31C 450.126,31.7504 450.626,32.5838 451,33.5C 451.5,42.1603 451.666,50.8269 451.5,59.5C 460.94,59.0545 470.274,59.5545 479.5,61C 480.126,61.7504 480.626,62.5838 481,63.5C 481.5,72.1603 481.666,80.8269 481.5,89.5C 490.173,89.3336 498.84,89.5002 507.5,90C 509.35,90.6897 510.684,91.8564 511.5,93.5C 511.5,218.833 511.5,344.167 511.5,469.5C 507.351,484.628 498.684,496.462 485.5,505C 480.256,507.685 474.923,509.852 469.5,511.5C 326.833,511.5 184.167,511.5 41.5,511.5C 26.3718,507.351 14.5384,498.684 6,485.5C 3.31502,480.256 1.14836,474.923 -0.5,469.5C -0.5,314.167 -0.5,158.833 -0.5,3.5C 0.5,1.83333 1.83333,0.5 3.5,-0.5 Z M 14.5,14.5 C 145.167,14.5 275.833,14.5 406.5,14.5C 406.333,166.167 406.5,317.834 407,469.5C 409.104,479.879 413.938,488.713 421.5,496C 298.5,496.667 175.5,496.667 52.5,496C 29.6667,493.833 17.1667,481.333 15,458.5C 14.5,310.5 14.3333,162.5 14.5,14.5 Z M 421.5,44.5 C 426.5,44.5 431.5,44.5 436.5,44.5C 436.333,173.834 436.5,303.167 437,432.5C 438.393,435.366 440.726,436.699 444,436.5C 447.274,436.699 449.607,435.366 451,432.5C 451.5,313.167 451.667,193.834 451.5,74.5C 456.5,74.5 461.5,74.5 466.5,74.5C 466.667,202.5 466.5,330.5 466,458.5C 465.084,464.74 461.584,466.906 455.5,465C 454.667,464.167 453.833,463.333 453,462.5C 452.997,453.82 448.831,450.32 440.5,452C 438.667,452.5 437.5,453.667 437,455.5C 435.668,471.501 443.001,480.168 459,481.5C 470.262,481.572 477.595,476.239 481,465.5C 481.5,345.167 481.667,224.834 481.5,104.5C 486.5,104.5 491.5,104.5 496.5,104.5C 496.983,225.521 496.483,346.521 495,467.5C 487.542,488.484 472.709,497.65 450.5,495C 432.777,489.275 423.277,477.108 422,458.5C 421.5,320.5 421.333,182.5 421.5,44.5 Z"/></g>
<g><path style="opacity:0.936" fill="#000000" d="M 74.5,59.5 C 78.2568,59.0708 81.7568,59.7375 85,61.5C 93.3333,74.1667 101.667,86.8333 110,99.5C 110.06,87.0966 110.727,74.7632 112,62.5C 116.002,58.8775 120.335,58.5442 125,61.5C 126.147,73.2409 126.647,85.0743 126.5,97C 126.333,108.167 126.167,119.333 126,130.5C 124.471,133.516 121.971,134.849 118.5,134.5C 115.675,134.881 113.509,133.881 112,131.5C 103.667,118.833 95.3333,106.167 87,93.5C 86.6667,105.833 86.3333,118.167 86,130.5C 84.4714,133.516 81.9714,134.849 78.5,134.5C 75.6753,134.881 73.5087,133.881 72,131.5C 70.3661,109.564 70.0328,87.5639 71,65.5C 71.5637,63.1133 72.7304,61.1133 74.5,59.5 Z"/></g>
<g><path style="opacity:0.963" fill="#000000" d="M 144.5,59.5 C 160.503,59.3334 176.503,59.5001 192.5,60C 196.212,62.513 197.378,66.013 196,70.5C 195.5,72.3333 194.333,73.5 192.5,74C 180.505,74.4999 168.505,74.6665 156.5,74.5C 156.5,79.5 156.5,84.5 156.5,89.5C 168.505,89.3335 180.505,89.5001 192.5,90C 195.366,91.3929 196.699,93.7262 196.5,97C 196.699,100.274 195.366,102.607 192.5,104C 180.505,104.5 168.505,104.667 156.5,104.5C 156.5,109.5 156.5,114.5 156.5,119.5C 168.505,119.333 180.505,119.5 192.5,120C 196.212,122.513 197.378,126.013 196,130.5C 195.5,132.333 194.333,133.5 192.5,134C 176.5,134.667 160.5,134.667 144.5,134C 143.667,133.167 142.833,132.333 142,131.5C 140.366,109.564 140.033,87.5639 141,65.5C 141.564,63.1133 142.73,61.1133 144.5,59.5 Z"/></g>
<g><path style="opacity:0.94" fill="#000000" d="M 211.5,59.5 C 216.742,58.2706 220.575,59.9372 223,64.5C 225.441,78.1476 227.775,91.8142 230,105.5C 233.468,100.066 237.301,94.8992 241.5,90C 246.212,88.5568 250.045,89.7235 253,93.5C 255.667,97.5 258.333,101.5 261,105.5C 263.225,91.8142 265.559,78.1476 268,64.5C 270.435,59.7762 274.269,58.2762 279.5,60C 282.018,61.8703 283.352,64.3703 283.5,67.5C 280.108,88.1857 276.608,108.852 273,129.5C 270.565,134.224 266.731,135.724 261.5,134C 256.033,126.884 250.7,119.718 245.5,112.5C 240.3,119.718 234.967,126.884 229.5,134C 225.409,135.227 221.909,134.394 219,131.5C 214.632,110.294 210.799,88.9603 207.5,67.5C 207.782,64.2691 209.115,61.6024 211.5,59.5 Z"/></g>
<g><path style="opacity:0.924" fill="#000000" d="M 313.5,59.5 C 324.427,57.8159 334.427,59.9826 343.5,66C 348.723,70.5793 350.223,76.0793 348,82.5C 341.324,87.3004 336.157,85.967 332.5,78.5C 331.335,77.4164 330.002,76.5831 328.5,76C 324.167,75.3333 319.833,75.3333 315.5,76C 310.33,78.2127 309.33,81.5461 312.5,86C 321.973,88.1616 331.306,90.8282 340.5,94C 352.11,104.344 353.11,115.678 343.5,128C 332.981,134.606 321.648,136.273 309.5,133C 301.635,129.805 296.635,124.138 294.5,116C 296.562,108.919 300.895,106.919 307.5,110C 312.333,117.95 319.333,120.616 328.5,118C 334.595,115.431 335.428,111.931 331,107.5C 324.595,105.619 318.095,104.119 311.5,103C 294.679,96.8782 290.179,85.7116 298,69.5C 302.205,64.4922 307.372,61.1589 313.5,59.5 Z"/></g>
<g><path style="opacity:0.995" fill="#000000" d="M 63.5,149.5 C 161.501,149.333 259.501,149.5 357.5,150C 360.366,151.393 361.699,153.726 361.5,157C 361.699,160.274 360.366,162.607 357.5,164C 259.5,164.667 161.5,164.667 63.5,164C 60.6339,162.607 59.3006,160.274 59.5,157C 59.4302,153.634 60.7635,151.134 63.5,149.5 Z"/></g>
<g><path style="opacity:0.983" fill="#000000" d="M 63.5,194.5 C 103.835,194.333 144.168,194.5 184.5,195C 186.049,196.214 187.215,197.714 188,199.5C 188.667,211.167 188.667,222.833 188,234.5C 185.565,239.224 181.731,240.724 176.5,239C 174.951,237.786 173.785,236.286 173,234.5C 172.5,226.173 172.334,217.84 172.5,209.5C 139.833,209.5 107.167,209.5 74.5,209.5C 74.5,234.5 74.5,259.5 74.5,284.5C 107.167,284.5 139.833,284.5 172.5,284.5C 172.334,276.16 172.5,267.827 173,259.5C 175.435,254.776 179.269,253.276 184.5,255C 186.049,256.214 187.215,257.714 188,259.5C 188.667,271.167 188.667,282.833 188,294.5C 187.215,296.286 186.049,297.786 184.5,299C 143.416,299.988 102.416,299.655 61.5,298C 60.8742,297.25 60.3742,296.416 60,295.5C 59.3333,263.167 59.3333,230.833 60,198.5C 60.6897,196.65 61.8564,195.316 63.5,194.5 Z"/></g>
<g><path style="opacity:0.988" fill="#000000" d="M 236.5,194.5 C 276.835,194.333 317.168,194.5 357.5,195C 360.366,196.393 361.699,198.726 361.5,202C 361.699,205.274 360.366,207.607 357.5,209C 317.167,209.667 276.833,209.667 236.5,209C 231.232,204.171 231.232,199.337 236.5,194.5 Z"/></g>
<g><path style="opacity:0.988" fill="#000000" d="M 236.5,239.5 C 276.835,239.333 317.168,239.5 357.5,240C 360.366,241.393 361.699,243.726 361.5,247C 361.699,250.274 360.366,252.607 357.5,254C 317.167,254.667 276.833,254.667 236.5,254C 231.232,249.171 231.232,244.337 236.5,239.5 Z"/></g>
<g><path style="opacity:0.983" fill="#000000" d="M 236.5,284.5 C 276.835,284.333 317.168,284.5 357.5,285C 359.333,285.5 360.5,286.667 361,288.5C 361.667,320.833 361.667,353.167 361,385.5C 360.626,386.416 360.126,387.25 359.5,388C 318.584,389.655 277.584,389.988 236.5,389C 234.951,387.786 233.785,386.286 233,384.5C 232.333,372.833 232.333,361.167 233,349.5C 235.435,344.776 239.269,343.276 244.5,345C 246.049,346.214 247.215,347.714 248,349.5C 248.5,357.827 248.666,366.16 248.5,374.5C 281.167,374.5 313.833,374.5 346.5,374.5C 346.5,349.5 346.5,324.5 346.5,299.5C 313.833,299.5 281.167,299.5 248.5,299.5C 248.943,308.608 248.443,317.608 247,326.5C 242.667,330.5 238.333,330.5 234,326.5C 232.374,314.263 232.041,301.929 233,289.5C 233.997,287.677 235.164,286.01 236.5,284.5 Z"/></g>
<g><path style="opacity:0.988" fill="#000000" d="M 63.5,329.5 C 103.835,329.333 144.168,329.5 184.5,330C 189.833,334.667 189.833,339.333 184.5,344C 144.167,344.667 103.833,344.667 63.5,344C 60.6339,342.607 59.3006,340.274 59.5,337C 59.4302,333.634 60.7635,331.134 63.5,329.5 Z"/></g>
<g><path style="opacity:0.988" fill="#000000" d="M 63.5,374.5 C 103.835,374.333 144.168,374.5 184.5,375C 189.833,379.667 189.833,384.333 184.5,389C 144.167,389.667 103.833,389.667 63.5,389C 60.6339,387.607 59.3006,385.274 59.5,382C 59.4302,378.634 60.7635,376.134 63.5,374.5 Z"/></g>
<g><path style="opacity:0.988" fill="#000000" d="M 63.5,419.5 C 103.835,419.333 144.168,419.5 184.5,420C 189.833,424.667 189.833,429.333 184.5,434C 144.167,434.667 103.833,434.667 63.5,434C 60.6339,432.607 59.3006,430.274 59.5,427C 59.4302,423.634 60.7635,421.134 63.5,419.5 Z"/></g>
<g><path style="opacity:0.988" fill="#000000" d="M 236.5,419.5 C 276.835,419.333 317.168,419.5 357.5,420C 360.366,421.393 361.699,423.726 361.5,427C 361.699,430.274 360.366,432.607 357.5,434C 317.167,434.667 276.833,434.667 236.5,434C 231.232,429.171 231.232,424.337 236.5,419.5 Z"/></g>
</svg>
