<?xml version="1.0" encoding="UTF-8"?>
<!DOCTYPE svg PUBLIC "-//W3C//DTD SVG 1.1//EN" "http://www.w3.org/Graphics/SVG/1.1/DTD/svg11.dtd">
<svg xmlns="http://www.w3.org/2000/svg" version="1.1" width="512px" height="512px" style="shape-rendering:geometricPrecision; text-rendering:geometricPrecision; image-rendering:optimizeQuality; fill-rule:evenodd; clip-rule:evenodd" xmlns:xlink="http://www.w3.org/1999/xlink">
<g><path style="opacity:0.954" fill="#000000" d="M 116.5,511.5 C 113.833,511.5 111.167,511.5 108.5,511.5C 106.559,510.326 105.059,508.659 104,506.5C 76.6667,459.167 49.3333,411.833 22,364.5C 18.8343,357.822 20.3343,352.656 26.5,349C 51.7045,334.3 77.0379,319.8 102.5,305.5C 103.333,210.168 103.833,114.835 104,19.5C 104.374,18.5838 104.874,17.7504 105.5,17C 164.752,15.8369 224.085,15.3369 283.5,15.5C 342.915,15.3369 402.248,15.8369 461.5,17C 462.126,17.7504 462.626,18.5838 463,19.5C 463.5,100.499 463.667,181.499 463.5,262.5C 480.552,266.087 489.886,276.587 491.5,294C 490.937,301.021 488.771,307.521 485,313.5C 441.962,350.263 398.462,386.429 354.5,422C 346.699,427.566 338.033,430.9 328.5,432C 293.158,433.177 257.825,434.51 222.5,436C 218.996,437.918 215.663,440.084 212.5,442.5C 215.61,447.897 214.943,452.73 210.5,457C 178.94,474.941 147.607,493.108 116.5,511.5 Z M 119.5,31.5 C 228.833,31.5 338.167,31.5 447.5,31.5C 447.833,109.17 447.5,186.836 446.5,264.5C 442.332,266.75 438.332,269.25 434.5,272C 411,291.5 387.5,311 364,330.5C 358.519,318.352 349.352,310.519 336.5,307C 314.536,305.734 292.536,305.067 270.5,305C 253.5,298 236.5,291 219.5,284C 197.154,276.906 175.487,278.572 154.5,289C 146.917,293.374 139.417,297.874 132,302.5C 129.513,297.173 125.347,294.84 119.5,295.5C 119.5,207.5 119.5,119.5 119.5,31.5 Z M 212.5,72.5 C 218.326,71.4887 221.826,73.822 223,79.5C 223.667,90.1667 223.667,100.833 223,111.5C 221.134,118.347 216.968,120.18 210.5,117C 209.283,115.352 208.45,113.519 208,111.5C 207.333,100.833 207.333,90.1667 208,79.5C 208.53,76.415 210.03,74.0817 212.5,72.5 Z M 453.5,279.5 C 467.983,278.482 474.483,285.149 473,299.5C 472,301.167 471,302.833 470,304.5C 428.167,339 386.333,373.5 344.5,408C 339.34,411.499 333.674,413.833 327.5,415C 290.835,416.373 254.168,417.706 217.5,419C 213.065,421.634 208.565,424.134 204,426.5C 182.447,390.601 161.28,354.434 140.5,318C 152.457,308.742 165.79,302.075 180.5,298C 193.561,295.398 206.228,296.731 218.5,302C 234.5,308.667 250.5,315.333 266.5,322C 288.191,322.188 309.857,322.688 331.5,323.5C 344.333,327.493 350.166,336.16 349,349.5C 347.833,350.667 346.667,351.833 345.5,353C 311.833,353.333 278.167,353.667 244.5,354C 239.204,355.547 237.038,359.047 238,364.5C 238.685,367.057 240.185,368.891 242.5,370C 277.833,370.667 313.167,370.667 348.5,370C 353.895,368.554 358.395,365.721 362,361.5C 363.945,356.635 366.445,352.135 369.5,348C 397.689,325.303 425.689,302.469 453.5,279.5 Z M 118.5,315.5 C 143.933,358.855 169.266,402.355 194.5,446C 190.25,448.374 186.084,450.874 182,453.5C 156.581,410.33 131.414,366.997 106.5,323.5C 110.565,320.81 114.565,318.143 118.5,315.5 Z M 90.5,331.5 C 116.369,374.572 141.702,418.072 166.5,462C 149.913,472.212 133.08,482.045 116,491.5C 90.5809,448.33 65.4142,404.997 40.5,361.5C 57.2301,351.474 73.8968,341.474 90.5,331.5 Z"/></g>
<g><path style="opacity:0.973" fill="#000000" d="M 139.5,55.5 C 143.257,55.0708 146.757,55.7375 150,57.5C 155.667,68.8333 161.333,80.1667 167,91.5C 167.333,80.8333 167.667,70.1667 168,59.5C 168.5,57.6667 169.667,56.5 171.5,56C 175.244,55.0715 178.744,55.5715 182,57.5C 183.149,70.0752 183.649,82.7418 183.5,95.5C 183.333,107.5 183.167,119.5 183,131.5C 181.471,134.516 178.971,135.849 175.5,135.5C 173.074,135.596 170.907,134.93 169,133.5C 163.333,122.167 157.667,110.833 152,99.5C 151.667,110.167 151.333,120.833 151,131.5C 150.5,133.333 149.333,134.5 147.5,135C 143.756,135.929 140.256,135.429 137,133.5C 135.353,108.921 135.02,84.2542 136,59.5C 136.69,57.6498 137.856,56.3164 139.5,55.5 Z"/></g>
<g><path style="opacity:0.959" fill="#000000" d="M 208.5,55.5 C 223.367,53.0115 233.534,58.6782 239,72.5C 239.667,87.8333 239.667,103.167 239,118.5C 233.543,132.482 223.376,137.982 208.5,135C 200.333,132.167 194.833,126.667 192,118.5C 191.333,103.167 191.333,87.8333 192,72.5C 195.019,64.3156 200.519,58.649 208.5,55.5 Z M 212.5,72.5 C 210.03,74.0817 208.53,76.415 208,79.5C 207.333,90.1667 207.333,100.833 208,111.5C 208.45,113.519 209.283,115.352 210.5,117C 216.968,120.18 221.134,118.347 223,111.5C 223.667,100.833 223.667,90.1667 223,79.5C 221.826,73.822 218.326,71.4887 212.5,72.5 Z"/></g>
<g><path style="opacity:0.979" fill="#000000" d="M 251.5,55.5 C 265.598,55.0351 279.598,55.5351 293.5,57C 295.942,61.0524 296.109,65.2191 294,69.5C 293.25,70.1258 292.416,70.6258 291.5,71C 287.514,71.4988 283.514,71.6655 279.5,71.5C 279.667,91.5028 279.5,111.503 279,131.5C 277.471,134.516 274.971,135.849 271.5,135.5C 268.029,135.849 265.529,134.516 264,131.5C 263.5,111.503 263.333,91.5028 263.5,71.5C 259.486,71.6655 255.486,71.4988 251.5,71C 250.584,70.6258 249.75,70.1258 249,69.5C 246.425,64.034 247.258,59.3673 251.5,55.5 Z"/></g>
<g><path style="opacity:0.981" fill="#000000" d="M 307.5,55.5 C 310.187,55.3359 312.854,55.5026 315.5,56C 317.333,56.5 318.5,57.6667 319,59.5C 319.667,83.5 319.667,107.5 319,131.5C 317.471,134.516 314.971,135.849 311.5,135.5C 308.029,135.849 305.529,134.516 304,131.5C 303.333,107.5 303.333,83.5 304,59.5C 304.69,57.6498 305.856,56.3164 307.5,55.5 Z"/></g>
<g><path style="opacity:0.944" fill="#000000" d="M 344.5,55.5 C 359.367,53.0115 369.534,58.6782 375,72.5C 378.267,85.2222 373.767,89.7222 361.5,86C 359.927,82.2221 358.427,78.3887 357,74.5C 350.493,70.7418 346.159,72.4085 344,79.5C 343.333,90.1667 343.333,100.833 344,111.5C 345.866,118.347 350.032,120.18 356.5,117C 358.378,113.326 359.878,109.493 361,105.5C 373.447,100.939 378.114,105.272 375,118.5C 369.543,132.482 359.376,137.982 344.5,135C 336.333,132.167 330.833,126.667 328,118.5C 327.333,103.167 327.333,87.8333 328,72.5C 331.019,64.3156 336.519,58.649 344.5,55.5 Z"/></g>
<g><path style="opacity:0.981" fill="#000000" d="M 387.5,55.5 C 400.837,55.3334 414.171,55.5001 427.5,56C 428.416,56.3742 429.25,56.8742 430,57.5C 431.483,60.7024 431.817,64.0357 431,67.5C 430.5,69.3333 429.333,70.5 427.5,71C 418.173,71.4998 408.839,71.6665 399.5,71.5C 399.5,76.8333 399.5,82.1667 399.5,87.5C 406.175,87.3337 412.842,87.5004 419.5,88C 422.516,89.5286 423.849,92.0286 423.5,95.5C 423.849,98.9714 422.516,101.471 419.5,103C 412.842,103.5 406.175,103.666 399.5,103.5C 399.5,108.833 399.5,114.167 399.5,119.5C 408.839,119.334 418.173,119.5 427.5,120C 429.333,120.5 430.5,121.667 431,123.5C 431.667,126.167 431.667,128.833 431,131.5C 430.5,133.333 429.333,134.5 427.5,135C 414.167,135.667 400.833,135.667 387.5,135C 386.584,134.626 385.75,134.126 385,133.5C 383.353,108.921 383.02,84.2542 384,59.5C 384.69,57.6498 385.856,56.3164 387.5,55.5 Z"/></g>
<g><path style="opacity:0.995" fill="#000000" d="M 147.5,159.5 C 238.167,159.333 328.834,159.5 419.5,160C 422.516,161.529 423.849,164.029 423.5,167.5C 423.849,170.971 422.516,173.471 419.5,175C 328.833,175.667 238.167,175.667 147.5,175C 144.484,173.471 143.151,170.971 143.5,167.5C 143.282,163.934 144.616,161.268 147.5,159.5 Z"/></g>
<g><path style="opacity:0.995" fill="#000000" d="M 147.5,199.5 C 238.167,199.333 328.834,199.5 419.5,200C 422.516,201.529 423.849,204.029 423.5,207.5C 423.849,210.971 422.516,213.471 419.5,215C 328.833,215.667 238.167,215.667 147.5,215C 144.484,213.471 143.151,210.971 143.5,207.5C 143.282,203.934 144.616,201.268 147.5,199.5 Z"/></g>
<g><path style="opacity:0.995" fill="#000000" d="M 147.5,239.5 C 238.167,239.333 328.834,239.5 419.5,240C 422.516,241.529 423.849,244.029 423.5,247.5C 423.849,250.971 422.516,253.471 419.5,255C 328.833,255.667 238.167,255.667 147.5,255C 144.484,253.471 143.151,250.971 143.5,247.5C 143.282,243.934 144.616,241.268 147.5,239.5 Z"/></g>
</svg>
