<?xml version="1.0" encoding="UTF-8"?>
<!DOCTYPE svg PUBLIC "-//W3C//DTD SVG 1.1//EN" "http://www.w3.org/Graphics/SVG/1.1/DTD/svg11.dtd">
<svg xmlns="http://www.w3.org/2000/svg" version="1.1" width="512px" height="512px" style="shape-rendering:geometricPrecision; text-rendering:geometricPrecision; image-rendering:optimizeQuality; fill-rule:evenodd; clip-rule:evenodd" xmlns:xlink="http://www.w3.org/1999/xlink">
<g><path style="opacity:0.945" fill="#000000" d="M 413.5,-0.5 C 416.167,-0.5 418.833,-0.5 421.5,-0.5C 423.475,0.646381 424.975,2.31305 426,4.5C 426.996,124.247 426.663,243.914 425,363.5C 367.716,385.559 312.549,412.059 259.5,443C 253.569,444.925 249.402,443.092 247,437.5C 246.667,324.833 246.333,212.167 246,99.5C 222.707,89.575 198.374,84.9083 173,85.5C 132.631,85.9419 92.7981,90.7752 53.5,100C 52.1686,159.457 51.5019,219.124 51.5,279C 51.6667,338.5 51.8333,398 52,457.5C 103.156,445.031 154.989,440.865 207.5,445C 224.128,447.876 240.295,452.376 256,458.5C 302.777,442.67 350.61,438.503 399.5,446C 419.684,448.531 439.684,452.031 459.5,456.5C 459.5,337.833 459.5,219.167 459.5,100.5C 453.781,100.395 448.615,98.7281 444,95.5C 440.145,87.2716 442.645,82.2716 451.5,80.5C 459.291,81.8909 466.958,83.7243 474.5,86C 475.701,86.9025 476.535,88.0692 477,89.5C 477.667,217.167 477.667,344.833 477,472.5C 475.336,476.084 472.503,477.751 468.5,477.5C 420.304,464.547 371.304,459.381 321.5,462C 302.396,464.443 283.729,468.776 265.5,475C 264.524,481.076 264.19,487.242 264.5,493.5C 334.501,493.667 404.501,493.5 474.5,493C 484,490.167 490.167,484 493,474.5C 493.333,361.5 493.667,248.5 494,135.5C 495.56,127.97 500.06,125.47 507.5,128C 508.705,129.376 510.038,130.542 511.5,131.5C 511.5,247.167 511.5,362.833 511.5,478.5C 506.167,495.167 495.167,506.167 478.5,511.5C 329.833,511.5 181.167,511.5 32.5,511.5C 15.8595,506.193 4.85945,495.193 -0.5,478.5C -0.5,362.833 -0.5,247.167 -0.5,131.5C 5.00121,126.203 10.5012,126.203 16,131.5C 16.3333,132.833 16.6667,134.167 17,135.5C 17.3333,248.5 17.6667,361.5 18,474.5C 20.8333,484 27,490.167 36.5,493C 106.499,493.5 176.499,493.667 246.5,493.5C 246.83,487.132 246.496,480.798 245.5,474.5C 223.698,465.717 201.031,461.05 177.5,460.5C 131.882,461.327 86.8821,466.994 42.5,477.5C 39.4857,477.742 36.9857,476.742 35,474.5C 33.337,346.247 33.0037,217.914 34,89.5C 34.8333,87.3333 36.3333,85.8333 38.5,85C 96.6937,69.3698 155.694,64.7032 215.5,71C 232.116,74.0373 247.783,79.5373 262.5,87.5C 263,88.5 263.5,89.5 264,90.5C 264.167,199.835 264.667,309.168 265.5,418.5C 311.018,392.409 358.351,370.075 407.5,351.5C 408.667,241.502 408.833,131.502 408,21.5C 365.699,39.066 325.199,59.8993 286.5,84C 276.481,86.6475 271.981,82.8142 273,72.5C 273.465,71.0692 274.299,69.9025 275.5,69C 319.479,41.8437 365.479,18.677 413.5,-0.5 Z"/></g>
<g><path style="opacity:0.928" fill="#000000" d="M 374.5,92.5 C 382.466,93.9787 385.299,98.6454 383,106.5C 382.167,107.333 381.333,108.167 380.5,109C 352.681,120.494 325.181,132.661 298,145.5C 290.805,143.969 288.139,139.636 290,132.5C 290.785,130.714 291.951,129.214 293.5,128C 319.911,114.453 346.911,102.619 374.5,92.5 Z"/></g>
<g><path style="opacity:0.926" fill="#000000" d="M 370.5,144.5 C 380.604,143.104 384.771,147.438 383,157.5C 381.833,158.667 380.667,159.833 379.5,161C 353.458,170.687 328.124,182.02 303.5,195C 293.476,197.643 288.976,193.809 290,183.5C 290.465,182.069 291.299,180.903 292.5,180C 317.995,166.747 343.995,154.914 370.5,144.5 Z"/></g>
<g><path style="opacity:0.933" fill="#000000" d="M 149.5,152.5 C 169.081,151.971 188.414,153.805 207.5,158C 213.876,161.542 215.043,166.376 211,172.5C 209.139,173.764 207.139,174.764 205,175.5C 167.59,168.67 130.423,170.003 93.5,179.5C 85.1563,177.479 82.6563,172.479 86,164.5C 87.7998,162.683 89.9664,161.516 92.5,161C 111.439,156.761 130.439,153.928 149.5,152.5 Z"/></g>
<g><path style="opacity:0.926" fill="#000000" d="M 371.5,195.5 C 381.157,194.658 384.99,198.991 383,208.5C 382.167,209.5 381.333,210.5 380.5,211.5C 354.36,221.902 328.694,233.402 303.5,246C 293.055,249.036 288.555,245.203 290,234.5C 290.93,232.448 292.43,230.948 294.5,230C 319.784,217.352 345.45,205.852 371.5,195.5 Z"/></g>
<g><path style="opacity:0.935" fill="#000000" d="M 161.5,203.5 C 177.015,203.835 192.349,205.668 207.5,209C 212.992,212.142 214.492,216.642 212,222.5C 210.681,224.487 208.848,225.654 206.5,226C 168.672,219.956 131.006,221.456 93.5,230.5C 84.9703,228.439 82.637,223.439 86.5,215.5C 88.5543,213.806 90.8877,212.639 93.5,212C 116.03,206.851 138.697,204.017 161.5,203.5 Z"/></g>
<g><path style="opacity:0.926" fill="#000000" d="M 371.5,246.5 C 381.179,245.678 385.012,250.011 383,259.5C 382.07,261.552 380.57,263.052 378.5,264C 352.246,273.96 326.579,285.293 301.5,298C 291.833,299.331 288,295.164 290,285.5C 291.36,283.895 292.86,282.395 294.5,281C 319.784,268.352 345.45,256.852 371.5,246.5 Z"/></g>
<g><path style="opacity:0.934" fill="#000000" d="M 140.5,255.5 C 163.027,254.454 185.36,255.954 207.5,260C 214.418,264.582 215.084,269.915 209.5,276C 207.801,276.958 205.967,277.458 204,277.5C 168.273,271.376 132.773,272.542 97.5,281C 86.8255,282.326 82.9921,277.826 86,267.5C 86.8333,266.667 87.6667,265.833 88.5,265C 105.66,260.197 122.993,257.031 140.5,255.5 Z"/></g>
<g><path style="opacity:0.926" fill="#000000" d="M 372.5,297.5 C 382.019,297.514 385.519,302.181 383,311.5C 382.167,312.333 381.333,313.167 380.5,314C 353.914,324.309 327.914,335.975 302.5,349C 292.836,351 288.669,347.167 290,337.5C 290.785,335.714 291.951,334.214 293.5,333C 319.391,319.883 345.724,308.049 372.5,297.5 Z"/></g>
<g><path style="opacity:0.935" fill="#000000" d="M 142.5,306.5 C 164.021,305.557 185.355,307.057 206.5,311C 212.027,312.904 214.194,316.738 213,322.5C 211.2,326.651 208.033,328.651 203.5,328.5C 168.271,322.43 133.271,323.597 98.5,332C 86.9341,334.106 82.7674,329.606 86,318.5C 87.214,316.951 88.714,315.785 90.5,315C 107.793,311.011 125.126,308.177 142.5,306.5 Z"/></g>
<g><path style="opacity:0.936" fill="#000000" d="M 145.5,357.5 C 165.68,356.775 185.68,358.275 205.5,362C 211.83,363.313 214.33,367.146 213,373.5C 211.246,377.756 208.08,379.756 203.5,379.5C 168.604,373.462 133.937,374.629 99.5,383C 87.4444,385.613 82.9444,381.113 86,369.5C 87.5793,367.959 89.4127,366.792 91.5,366C 109.462,361.984 127.462,359.15 145.5,357.5 Z"/></g>
</svg>
