<?xml version="1.0" encoding="UTF-8"?>
<!DOCTYPE svg PUBLIC "-//W3C//DTD SVG 1.1//EN" "http://www.w3.org/Graphics/SVG/1.1/DTD/svg11.dtd">
<svg xmlns="http://www.w3.org/2000/svg" version="1.1" width="512px" height="512px" style="shape-rendering:geometricPrecision; text-rendering:geometricPrecision; image-rendering:optimizeQuality; fill-rule:evenodd; clip-rule:evenodd" xmlns:xlink="http://www.w3.org/1999/xlink">
<g><path style="opacity:0.953" fill="#000000" d="M 250.5,-0.5 C 253.833,-0.5 257.167,-0.5 260.5,-0.5C 263.2,1.04602 265.033,3.37935 266,6.5C 266.333,49.1667 266.667,91.8333 267,134.5C 286.556,117.642 306.39,101.142 326.5,85C 338.673,84.1752 343.173,89.6752 340,101.5C 314.833,123.333 289.667,145.167 264.5,167C 258.5,171.667 252.5,171.667 246.5,167C 221.333,145.167 196.167,123.333 171,101.5C 167.827,89.6752 172.327,84.1752 184.5,85C 204.61,101.142 224.444,117.642 244,134.5C 244.333,91.8333 244.667,49.1667 245,6.5C 245.967,3.37935 247.8,1.04602 250.5,-0.5 Z"/></g>
<g><path style="opacity:0.959" fill="#000000" d="M 264.5,511.5 C 258.5,511.5 252.5,511.5 246.5,511.5C 186.916,504.341 127.249,496.841 67.5,489C 65.1064,487.048 63.6064,484.548 63,481.5C 62.5,441.835 62.3333,402.168 62.5,362.5C 50.8286,362.667 39.1619,362.5 27.5,362C 20.4948,357.902 18.6615,352.069 22,344.5C 36.1584,308.184 50.9918,272.184 66.5,236.5C 67.9122,235.194 69.5789,234.36 71.5,234C 132.635,226.546 193.801,219.379 255,212.5C 317.599,219.344 380.099,226.844 442.5,235C 445.531,237.559 447.698,240.726 449,244.5C 463.412,279.983 477.245,315.649 490.5,351.5C 490.389,356.451 488.055,359.951 483.5,362C 471.505,362.5 459.505,362.667 447.5,362.5C 447.667,403.168 447.5,443.835 447,484.5C 444.075,488.88 439.909,491.047 434.5,491C 377.648,497.524 320.982,504.357 264.5,511.5 Z M 227.5,237.5 C 229.604,237.201 231.604,237.534 233.5,238.5C 213.96,272.415 194.293,306.249 174.5,340C 132.496,340.833 90.496,340.667 48.5,339.5C 59.6403,311.41 70.9736,283.41 82.5,255.5C 130.975,249.634 179.309,243.634 227.5,237.5 Z M 277.5,237.5 C 327.896,243.091 378.229,249.091 428.5,255.5C 440.026,283.41 451.36,311.41 462.5,339.5C 420.504,340.667 378.504,340.833 336.5,340C 316.431,306.023 296.764,271.857 277.5,237.5 Z M 243.5,265.5 C 244.499,339.665 244.833,413.998 244.5,488.5C 191.51,482.085 138.51,475.751 85.5,469.5C 85.5,433.833 85.5,398.167 85.5,362.5C 118.502,362.667 151.502,362.5 184.5,362C 185.833,361.333 187.167,360.667 188.5,360C 207.235,328.691 225.569,297.191 243.5,265.5 Z M 266.5,265.5 C 285.348,297.353 304.348,329.186 323.5,361C 357.438,362.479 391.438,362.979 425.5,362.5C 425.5,398.167 425.5,433.833 425.5,469.5C 372.487,475.761 319.487,482.094 266.5,488.5C 266.5,414.167 266.5,339.833 266.5,265.5 Z"/></g>
</svg>
