<?xml version="1.0" encoding="UTF-8"?>
<!DOCTYPE svg PUBLIC "-//W3C//DTD SVG 1.1//EN" "http://www.w3.org/Graphics/SVG/1.1/DTD/svg11.dtd">
<svg xmlns="http://www.w3.org/2000/svg" version="1.1" width="512px" height="512px" style="shape-rendering:geometricPrecision; text-rendering:geometricPrecision; image-rendering:optimizeQuality; fill-rule:evenodd; clip-rule:evenodd" xmlns:xlink="http://www.w3.org/1999/xlink">
<g><path style="opacity:0.924" fill="#000000" d="M 341.5,-0.5 C 353.167,-0.5 364.833,-0.5 376.5,-0.5C 439.933,9.75874 482.766,45.0921 505,105.5C 507.676,115.19 509.843,124.857 511.5,134.5C 511.5,146.167 511.5,157.833 511.5,169.5C 504.432,219.482 479.432,257.649 436.5,284C 426.963,285.468 423.463,281.635 426,272.5C 480.857,236.769 503.024,186.435 492.5,121.5C 477.499,66.6652 442.499,32.1652 387.5,18C 328.861,8.21092 281.694,27.0443 246,74.5C 220.499,114.014 215.499,156.014 231,200.5C 255.304,256.599 298.137,286.265 359.5,289.5C 373.601,288.89 387.435,286.556 401,282.5C 408.761,284.896 410.595,289.73 406.5,297C 350.803,313.571 300.803,303.238 256.5,266C 210.687,221.197 196.187,167.697 213,105.5C 235.234,45.0921 278.067,9.75874 341.5,-0.5 Z"/></g>
<g><path style="opacity:0.956" fill="#000000" d="M 404.5,92.5 C 409.528,92.8396 414.195,94.3396 418.5,97C 435.356,110.69 452.356,124.19 469.5,137.5C 476.019,145.005 477.186,153.338 473,162.5C 470.833,165.333 468.333,167.833 465.5,170C 449.652,182.092 433.985,194.426 418.5,207C 408.842,212.926 399.675,212.092 391,204.5C 386.914,197.783 385.414,190.45 386.5,182.5C 366.831,182.667 347.164,182.5 327.5,182C 323.788,179.487 322.622,175.987 324,171.5C 324.5,169.667 325.667,168.5 327.5,168C 351.167,167.333 374.833,167.333 398.5,168C 400.049,169.214 401.215,170.714 402,172.5C 402.333,179.5 402.667,186.5 403,193.5C 404,194.167 405,194.833 406,195.5C 422.076,182.879 438.243,170.379 454.5,158C 456.557,156.281 458.224,154.281 459.5,152C 458.224,149.719 456.557,147.719 454.5,146C 438.243,133.621 422.076,121.121 406,108.5C 405,109.167 404,109.833 403,110.5C 402.667,117.5 402.333,124.5 402,131.5C 401.215,133.286 400.049,134.786 398.5,136C 347.833,136.667 297.167,136.667 246.5,136C 243.634,134.607 242.301,132.274 242.5,129C 242.301,125.726 243.634,123.393 246.5,122C 293.165,121.5 339.832,121.333 386.5,121.5C 383.743,105.999 389.743,96.3319 404.5,92.5 Z"/></g>
<g><path style="opacity:0.922" fill="#000000" d="M -0.5,241.5 C -0.5,231.833 -0.5,222.167 -0.5,212.5C 2.53266,195.255 9.36599,179.589 20,165.5C 32.8039,151.695 45.9706,138.195 59.5,125C 67.5,120.333 75.5,120.333 83.5,125C 89.6667,131.167 95.8333,137.333 102,143.5C 105.012,153.154 101.512,157.32 91.5,156C 85.2565,149.252 78.5898,143.085 71.5,137.5C 66.9156,140.578 62.7489,144.244 59,148.5C 58.3333,149.167 58.3333,149.833 59,150.5C 86.5,178 114,205.5 141.5,233C 142.167,233.667 142.833,233.667 143.5,233C 147,229.5 150.5,226 154,222.5C 154.667,221.167 154.667,219.833 154,218.5C 140.333,204.833 126.667,191.167 113,177.5C 111.715,167.45 115.881,163.95 125.5,167C 139.333,180.833 153.167,194.667 167,208.5C 171.477,215.193 172.144,222.193 169,229.5C 154.029,245.471 138.696,261.138 123,276.5C 120.135,282.691 119.801,289.024 122,295.5C 126.419,302.672 131.085,309.672 136,316.5C 136.747,326.048 132.58,329.215 123.5,326C 117.046,317.595 111.212,308.762 106,299.5C 102.547,287.994 103.88,276.994 110,266.5C 116.667,259.833 123.333,253.167 130,246.5C 130.667,245.833 130.667,245.167 130,244.5C 102.5,217 75,189.5 47.5,162C 46.8333,161.333 46.1667,161.333 45.5,162C 11.8806,194.892 6.38062,232.059 29,273.5C 78.0196,358.853 144.853,426.686 229.5,477C 233.138,481.512 232.804,485.845 228.5,490C 226.305,491.373 223.971,491.706 221.5,491C 129.545,436.713 58.3787,362.547 8,268.5C 4.37259,259.629 1.53925,250.629 -0.5,241.5 Z"/></g>
<g><path style="opacity:0.958" fill="#000000" d="M 276.5,149.5 C 287.505,149.333 298.505,149.5 309.5,150C 313.212,152.513 314.378,156.013 313,160.5C 312.5,162.333 311.333,163.5 309.5,164C 298.5,164.667 287.5,164.667 276.5,164C 273.634,162.607 272.301,160.274 272.5,157C 272.43,153.634 273.763,151.134 276.5,149.5 Z"/></g>
<g><path style="opacity:0.924" fill="#000000" d="M 297.5,511.5 C 288.5,511.5 279.5,511.5 270.5,511.5C 263.797,510.251 257.13,508.417 250.5,506C 246.878,501.998 246.544,497.665 249.5,493C 251.366,492.015 253.366,491.515 255.5,491.5C 292.064,501.807 323.23,493.14 349,465.5C 349.667,464.833 349.667,464.167 349,463.5C 321.5,436 294,408.5 266.5,381C 265.833,380.333 265.167,380.333 264.5,381C 256.724,389.782 248.058,397.449 238.5,404C 229.614,406.914 220.614,407.248 211.5,405C 186.371,390.216 163.871,372.05 144,350.5C 142.154,339.84 146.32,336.34 156.5,340C 173.462,358.615 192.462,374.615 213.5,388C 216.905,389.544 220.405,390.711 224,391.5C 227.595,390.711 231.095,389.544 234.5,388C 249.862,372.304 265.529,356.971 281.5,342C 287.5,340 293.5,340 299.5,342C 328.639,370.138 357.472,398.638 386,427.5C 390.661,435.463 390.661,443.463 386,451.5C 371.071,467.433 355.238,482.266 338.5,496C 325.799,504.029 312.133,509.196 297.5,511.5 Z M 288.5,356.5 C 289.873,356.343 291.207,356.51 292.5,357C 319.333,383.833 346.167,410.667 373,437.5C 373.667,438.833 373.667,440.167 373,441.5C 369.5,445 366,448.5 362.5,452C 361.833,452.667 361.167,452.667 360.5,452C 333,424.5 305.5,397 278,369.5C 277.333,368.833 277.333,368.167 278,367.5C 281.704,363.964 285.204,360.298 288.5,356.5 Z"/></g>
</svg>
