<?xml version="1.0" encoding="UTF-8"?>
<!DOCTYPE svg PUBLIC "-//W3C//DTD SVG 1.1//EN" "http://www.w3.org/Graphics/SVG/1.1/DTD/svg11.dtd">
<svg xmlns="http://www.w3.org/2000/svg" version="1.1" width="512px" height="512px" style="shape-rendering:geometricPrecision; text-rendering:geometricPrecision; image-rendering:optimizeQuality; fill-rule:evenodd; clip-rule:evenodd" xmlns:xlink="http://www.w3.org/1999/xlink">
<g><path style="opacity:0.946" fill="#000000" d="M -0.5,-0.5 C 28.1667,-0.5 56.8333,-0.5 85.5,-0.5C 85.5,4.83333 85.5,10.1667 85.5,15.5C 90.5111,15.6659 95.5111,15.4993 100.5,15C 111.805,9.51005 123.138,4.34339 134.5,-0.5C 177.833,-0.5 221.167,-0.5 264.5,-0.5C 275.879,2.01475 286.546,6.51475 296.5,13C 315.138,30.6379 333.472,48.6379 351.5,67C 404.832,67.5 458.166,67.6667 511.5,67.5C 511.5,141.833 511.5,216.167 511.5,290.5C 391.833,290.5 272.167,290.5 152.5,290.5C 152.833,254.161 152.5,217.827 151.5,181.5C 132.764,179.978 115.764,173.811 100.5,163C 95.5111,162.501 90.5111,162.334 85.5,162.5C 85.5,170.833 85.5,179.167 85.5,187.5C 56.8333,187.5 28.1667,187.5 -0.5,187.5C -0.5,124.833 -0.5,62.1667 -0.5,-0.5 Z M 17.5,17.5 C 34.1667,17.5 50.8333,17.5 67.5,17.5C 67.5,68.1667 67.5,118.833 67.5,169.5C 50.8333,169.5 34.1667,169.5 17.5,169.5C 17.5,118.833 17.5,68.1667 17.5,17.5 Z M 137.5,17.5 C 178.835,17.3333 220.168,17.5 261.5,18C 271.366,20.1007 280.366,24.1007 288.5,30C 300.833,42.3333 313.167,54.6667 325.5,67C 302.833,67.6667 280.167,67.6667 257.5,67C 250.652,59.9853 243.652,53.152 236.5,46.5C 232.015,50.4846 227.682,54.6513 223.5,59C 244.695,79.8615 265.529,101.028 286,122.5C 291.771,136.551 287.271,145.218 272.5,148.5C 268.946,147.945 265.613,146.779 262.5,145C 245,127.5 227.5,110 210,92.5C 187.744,113.062 164.911,113.728 141.5,94.5C 138.146,98.0191 134.98,101.686 132,105.5C 131.018,106.759 130.685,108.092 131,109.5C 136.903,115.207 143.737,119.54 151.5,122.5C 152.666,136.154 152.833,149.821 152,163.5C 135.075,161.637 119.909,155.47 106.5,145C 99.5079,144.5 92.5079,144.334 85.5,144.5C 85.5,107.5 85.5,70.5 85.5,33.5C 92.8956,33.8003 100.229,33.3003 107.5,32C 117.713,27.3919 127.713,22.5586 137.5,17.5 Z M 276.5,86.5 C 348.665,85.5008 420.998,85.1674 493.5,85.5C 493.5,147.833 493.5,210.167 493.5,272.5C 385.833,272.5 278.167,272.5 170.5,272.5C 170.5,223.833 170.5,175.167 170.5,126.5C 183.922,127.303 196.422,124.303 208,117.5C 213.122,121.62 217.956,126.12 222.5,131C 212.777,141.3 200.777,145.8 186.5,144.5C 186.5,167.5 186.5,190.5 186.5,213.5C 215.995,211.995 230.328,225.995 229.5,255.5C 298.167,255.5 366.833,255.5 435.5,255.5C 434.5,226.5 448.5,212.5 477.5,213.5C 477.5,190.5 477.5,167.5 477.5,144.5C 456.57,146.133 442.737,137.133 436,117.5C 435.501,112.177 435.334,106.844 435.5,101.5C 387.499,101.667 339.499,101.5 291.5,101C 286.631,95.9635 281.631,91.1302 276.5,86.5 Z M 292.5,160.5 C 284.723,182.907 290.056,201.407 308.5,216C 331.094,227.596 350.928,224.096 368,205.5C 381.199,183.341 378.699,163.175 360.5,145C 341.694,132.23 323.027,132.397 304.5,145.5C 306.744,136.929 307.077,128.262 305.5,119.5C 342.835,119.333 380.168,119.5 417.5,120C 423.27,141.604 436.937,155.437 458.5,161.5C 459.499,173.148 459.832,184.814 459.5,196.5C 436.826,201.174 423.16,214.84 418.5,237.5C 361.167,237.5 303.833,237.5 246.5,237.5C 241.705,214.371 227.705,200.705 204.5,196.5C 204.168,184.814 204.501,173.148 205.5,161.5C 217.31,158.931 227.31,153.264 235.5,144.5C 241.35,150.184 247.35,155.684 253.5,161C 266.637,168.291 279.637,168.124 292.5,160.5 Z M 328.5,153.5 C 343.532,153.036 353.032,160.036 357,174.5C 357.164,195.002 346.997,204.502 326.5,203C 312.042,197.924 305.875,187.757 308,172.5C 311.257,162.15 318.091,155.817 328.5,153.5 Z"/></g>
<g><path style="opacity:0.942" fill="#000000" d="M 511.5,340.5 C 511.5,397.5 511.5,454.5 511.5,511.5C 482.833,511.5 454.167,511.5 425.5,511.5C 425.666,507.486 425.499,503.486 425,499.5C 414.918,503.967 404.751,507.967 394.5,511.5C 348.167,511.5 301.833,511.5 255.5,511.5C 247.563,508.444 239.897,504.611 232.5,500C 182.167,469.667 131.833,439.333 81.5,409C 71.775,399.486 68.275,387.986 71,374.5C 78.7777,352.858 93.9443,344.692 116.5,350C 146.833,366.167 177.167,382.333 207.5,398.5C 211.696,389.471 218.363,382.971 227.5,379C 263.725,368.925 300.058,359.258 336.5,350C 355.172,348.033 373.839,348.033 392.5,350C 396.265,351.049 399.932,352.382 403.5,354C 410.369,358.366 417.369,362.532 424.5,366.5C 425.498,357.859 425.831,349.192 425.5,340.5C 454.167,340.5 482.833,340.5 511.5,340.5 Z M 443.5,358.5 C 460.167,358.5 476.833,358.5 493.5,358.5C 493.5,403.5 493.5,448.5 493.5,493.5C 476.833,493.5 460.167,493.5 443.5,493.5C 443.5,448.5 443.5,403.5 443.5,358.5 Z M 99.5,366.5 C 102.85,366.335 106.183,366.502 109.5,367C 141.659,383.912 173.659,401.079 205.5,418.5C 213.482,440.953 229.149,449.453 252.5,444C 282.5,436 312.5,428 342.5,420C 343.022,419.439 343.355,418.772 343.5,418C 341.772,412.921 340.439,407.755 339.5,402.5C 307.811,410.506 276.144,418.672 244.5,427C 232.488,428.658 225.488,423.491 223.5,411.5C 224.108,404.103 227.775,398.937 234.5,396C 269.167,386.667 303.833,377.333 338.5,368C 355.51,366.055 372.51,366.055 389.5,368C 401.572,374.401 413.405,381.235 425,388.5C 425.5,419.165 425.667,449.832 425.5,480.5C 414.164,484.558 402.83,488.724 391.5,493C 346.108,493.985 300.774,493.651 255.5,492C 201.5,459.667 147.5,427.333 93.5,395C 85.2833,383.302 87.2833,373.802 99.5,366.5 Z"/></g>
</svg>
