<?xml version="1.0" encoding="UTF-8"?>
<!DOCTYPE svg PUBLIC "-//W3C//DTD SVG 1.1//EN" "http://www.w3.org/Graphics/SVG/1.1/DTD/svg11.dtd">
<svg xmlns="http://www.w3.org/2000/svg" version="1.1" width="512px" height="512px" style="shape-rendering:geometricPrecision; text-rendering:geometricPrecision; image-rendering:optimizeQuality; fill-rule:evenodd; clip-rule:evenodd" xmlns:xlink="http://www.w3.org/1999/xlink">
<g><path style="opacity:0.964" fill="#000000" d="M 106.5,31.5 C 175.501,31.3333 244.501,31.5 313.5,32C 322.268,34.0515 330.268,37.7182 337.5,43C 371.697,77.5291 405.53,112.362 439,147.5C 442.78,153.726 445.447,160.393 447,167.5C 447.667,257.167 447.667,346.833 447,436.5C 441.5,459.333 427.333,473.5 404.5,479C 305.167,479.667 205.833,479.667 106.5,479C 83.6311,473.464 69.4644,459.298 64,436.5C 63.3333,315.833 63.3333,195.167 64,74.5C 69.6815,51.6524 83.8481,37.3191 106.5,31.5 Z M 110.5,53.5 C 176.5,53.5 242.5,53.5 308.5,53.5C 308.333,77.5023 308.5,101.502 309,125.5C 313.743,147.58 326.91,162.08 348.5,169C 374.031,170.124 399.531,170.957 425,171.5C 425.667,258.5 425.667,345.5 425,432.5C 421.5,445.333 413.333,453.5 400.5,457C 303.833,457.667 207.167,457.667 110.5,457C 97.6667,453.5 89.5,445.333 86,432.5C 85.3333,314.5 85.3333,196.5 86,78.5C 89.6829,65.6514 97.8496,57.3181 110.5,53.5 Z M 330.5,68.5 C 356.633,94.7999 382.633,121.3 408.5,148C 391.833,148.667 375.167,148.667 358.5,148C 343.333,144.833 334.167,135.667 331,120.5C 330.5,103.17 330.333,85.8365 330.5,68.5 Z M 244.5,213.5 C 292.246,211.441 325.746,232.107 345,275.5C 357.421,314.406 349.588,348.572 321.5,378C 290.228,405.229 255.228,411.229 216.5,396C 176.005,374.858 157.505,341.358 161,295.5C 170.573,249.426 198.406,222.093 244.5,213.5 Z"/></g>
<g><path style="opacity:0.955" fill="#000000" d="M 133.5,95.5 C 158.169,95.3334 182.836,95.5 207.5,96C 216.003,103.964 215.336,110.964 205.5,117C 182.167,117.667 158.833,117.667 135.5,117C 127.44,113.555 125.274,107.721 129,99.5C 130.397,97.9297 131.897,96.5964 133.5,95.5 Z"/></g>
<g><path style="opacity:0.96" fill="#000000" d="M 134.5,148.5 C 172.501,148.333 210.501,148.5 248.5,149C 255.132,152.097 257.299,157.264 255,164.5C 253.749,167.381 251.583,169.214 248.5,170C 210.5,170.667 172.5,170.667 134.5,170C 129.296,168.428 126.963,164.928 127.5,159.5C 127.083,153.986 129.416,150.32 134.5,148.5 Z"/></g>
<g><path style="opacity:0.946" fill="#000000" d="M 239.5,191.5 C 290.166,187.419 329.332,206.419 357,248.5C 381.645,295.667 378.312,340.667 347,383.5C 313.322,421.056 271.822,433.889 222.5,422C 185.144,410.644 159.311,386.81 145,350.5C 128.85,299.597 140.017,255.763 178.5,219C 196.415,204.374 216.748,195.207 239.5,191.5 Z M 244.5,213.5 C 198.406,222.093 170.573,249.426 161,295.5C 157.505,341.358 176.005,374.858 216.5,396C 255.228,411.229 290.228,405.229 321.5,378C 349.588,348.572 357.421,314.406 345,275.5C 325.746,232.107 292.246,211.441 244.5,213.5 Z"/></g>
<g><path style="opacity:0.945" fill="#000000" d="M 250.5,233.5 C 272.092,232.54 287.258,241.873 296,261.5C 302.933,286.792 294.766,305.292 271.5,317C 270.333,318.167 269.167,319.333 268,320.5C 266.796,326.753 266.129,333.086 266,339.5C 262.23,346.414 256.73,348.247 249.5,345C 247.622,343.457 246.122,341.624 245,339.5C 241.226,323.401 245.393,309.901 257.5,299C 272.989,293.518 278.489,283.018 274,267.5C 262.67,252.806 250.67,252.139 238,265.5C 235.576,270.194 234.243,275.194 234,280.5C 233.214,283.583 231.381,285.749 228.5,287C 217.979,289.751 212.645,285.751 212.5,275C 215.316,252.022 227.983,238.188 250.5,233.5 Z"/></g>
<g><path style="opacity:0.933" fill="#000000" d="M 250.5,356.5 C 266.534,355.365 273.367,362.698 271,378.5C 266.31,388.219 258.81,391.386 248.5,388C 240.283,383.053 237.45,375.886 240,366.5C 242.106,361.557 245.606,358.224 250.5,356.5 Z"/></g>
</svg>
