<?xml version="1.0" encoding="UTF-8"?>
<!DOCTYPE svg PUBLIC "-//W3C//DTD SVG 1.1//EN" "http://www.w3.org/Graphics/SVG/1.1/DTD/svg11.dtd">
<svg xmlns="http://www.w3.org/2000/svg" version="1.1" width="512px" height="512px" style="shape-rendering:geometricPrecision; text-rendering:geometricPrecision; image-rendering:optimizeQuality; fill-rule:evenodd; clip-rule:evenodd" xmlns:xlink="http://www.w3.org/1999/xlink">
<g><path style="opacity:0.98" fill="#000000" d="M 434.5,-0.5 C 437.833,-0.5 441.167,-0.5 444.5,-0.5C 446.168,1.34004 447.668,3.34004 449,5.5C 449.5,24.1637 449.667,42.8304 449.5,61.5C 468.17,61.3334 486.836,61.5001 505.5,62C 507.66,63.332 509.66,64.832 511.5,66.5C 511.5,69.8333 511.5,73.1667 511.5,76.5C 510.028,78.1343 508.362,79.6343 506.5,81C 487.503,81.4999 468.503,81.6666 449.5,81.5C 449.667,101.503 449.5,121.503 449,141.5C 442.623,149.466 436.289,149.466 430,141.5C 429.5,121.503 429.333,101.503 429.5,81.5C 409.497,81.6666 389.497,81.5 369.5,81C 361.534,74.7106 361.534,68.3772 369.5,62C 389.497,61.5 409.497,61.3334 429.5,61.5C 429.333,42.4971 429.5,23.4971 430,4.5C 431.366,2.63834 432.866,0.971672 434.5,-0.5 Z"/></g>
<g><path style="opacity:0.943" fill="#000000" d="M -0.5,283.5 C -0.5,268.5 -0.5,253.5 -0.5,238.5C 11.8087,142.033 61.8087,72.8664 149.5,31C 210.407,5.97541 272.074,3.97541 334.5,25C 340.271,29.8951 340.938,35.3951 336.5,41.5C 334.395,43.4684 331.895,44.4684 329,44.5C 244.086,17.5088 167.252,32.0088 98.5,88C 36.6565,145.185 11.4898,215.685 23,299.5C 25.9725,314.557 29.8059,329.39 34.5,344C 32.8284,352.342 27.8284,355.342 19.5,353C 17,351.833 15.1667,350 14,347.5C 6.65523,326.592 1.8219,305.258 -0.5,283.5 Z"/></g>
<g><path style="opacity:0.942" fill="#000000" d="M 176.5,143.5 C 226.251,143.009 275.918,143.509 325.5,145C 332.778,152.612 331.778,158.946 322.5,164C 305.167,164.333 287.833,164.667 270.5,165C 280.957,175.748 287.291,188.582 289.5,203.5C 300.838,203.333 312.172,203.5 323.5,204C 330.502,208.005 332.002,213.505 328,220.5C 326.421,222.041 324.587,223.208 322.5,224C 311.505,224.5 300.505,224.667 289.5,224.5C 282.275,258.891 261.275,278.725 226.5,284C 220.167,284.333 213.833,284.667 207.5,285C 234.333,310.5 261.167,336 288,361.5C 292.031,368.16 290.864,373.66 284.5,378C 280.705,378.837 277.039,378.504 273.5,377C 239.031,344.865 204.864,312.365 171,279.5C 167.919,272.51 169.752,267.343 176.5,264C 193.167,263.667 209.833,263.333 226.5,263C 248.098,258.735 262.098,246.069 268.5,225C 238.167,224.667 207.833,224.333 177.5,224C 168.97,220.016 167.303,214.016 172.5,206C 173.833,205.333 175.167,204.667 176.5,204C 207.167,203.667 237.833,203.333 268.5,203C 262.328,182.829 248.995,170.162 228.5,165C 210.434,164.96 192.434,164.294 174.5,163C 167.44,155.603 168.107,149.103 176.5,143.5 Z"/></g>
<g><path style="opacity:0.945" fill="#000000" d="M 272.5,511.5 C 257.5,511.5 242.5,511.5 227.5,511.5C 184.089,507.196 144.256,492.862 108,468.5C 106.739,468.759 105.739,469.426 105,470.5C 98.5518,479.949 91.7185,489.116 84.5,498C 77.4865,501.995 71.9865,500.495 68,493.5C 63.5588,468.519 59.2254,443.519 55,418.5C 52.4053,409.509 55.572,404.009 64.5,402C 87.8333,399 111.167,396 134.5,393C 139.287,392.121 143.953,392.455 148.5,394C 152.203,397.396 153.369,401.563 152,406.5C 142.386,420.447 132.386,434.114 122,447.5C 121.018,448.759 120.685,450.092 121,451.5C 190.076,495.764 262.909,502.931 339.5,473C 409.683,440.811 454.517,387.311 474,312.5C 481.859,275.344 481.193,238.344 472,201.5C 468.588,190.432 465.088,179.432 461.5,168.5C 462.811,159.832 467.811,156.665 476.5,159C 477.579,159.956 478.745,160.789 480,161.5C 502.198,214.014 506.531,268.014 493,323.5C 469.624,406.208 418.124,463.708 338.5,496C 316.959,503.721 294.959,508.887 272.5,511.5 Z M 111.5,416.5 C 113.857,416.337 116.19,416.503 118.5,417C 107,432.5 95.5,448 84,463.5C 81.7135,449.779 79.2135,436.113 76.5,422.5C 88.2292,420.247 99.8959,418.247 111.5,416.5 Z"/></g>
</svg>
