<?xml version="1.0" encoding="UTF-8"?>
<!DOCTYPE svg PUBLIC "-//W3C//DTD SVG 1.1//EN" "http://www.w3.org/Graphics/SVG/1.1/DTD/svg11.dtd">
<svg xmlns="http://www.w3.org/2000/svg" version="1.1" width="512px" height="512px" style="shape-rendering:geometricPrecision; text-rendering:geometricPrecision; image-rendering:optimizeQuality; fill-rule:evenodd; clip-rule:evenodd" xmlns:xlink="http://www.w3.org/1999/xlink">
<g><path style="opacity:0.955" fill="#000000" d="M 80.5,2.5 C 105.502,2.33336 130.502,2.50003 155.5,3C 163.555,6.27767 166.389,12.111 164,20.5C 162.514,24.4979 159.68,26.9979 155.5,28C 131.167,28.3333 106.833,28.6667 82.5,29C 54.7459,34.0881 37.2459,50.2548 30,77.5C 28.7225,103.465 28.0558,129.465 28,155.5C 24.7223,163.555 18.889,166.389 10.5,164C 6.50206,162.514 4.00206,159.68 3,155.5C 2.33333,130.5 2.33333,105.5 3,80.5C 11.0127,36.6543 36.846,10.6543 80.5,2.5 Z"/></g>
<g><path style="opacity:0.955" fill="#000000" d="M 355.5,2.5 C 474.315,-14.1849 525.148,36.8151 508,155.5C 504.722,163.555 498.889,166.389 490.5,164C 486.502,162.514 484.002,159.68 483,155.5C 482.667,131.5 482.333,107.5 482,83.5C 477.37,55.2032 461.203,37.3699 433.5,30C 406.478,29.0185 379.478,28.0185 352.5,27C 345.342,21.1988 344.175,14.3655 349,6.5C 351.095,4.87527 353.261,3.54193 355.5,2.5 Z"/></g>
<g><path style="opacity:0.974" fill="#000000" d="M 129.5,109.5 C 156.835,109.333 184.169,109.5 211.5,110C 221.774,113.273 228.274,120.106 231,130.5C 231.667,157.167 231.667,183.833 231,210.5C 228.167,221.333 221.333,228.167 210.5,231C 183.833,231.667 157.167,231.667 130.5,231C 120.106,228.274 113.273,221.774 110,211.5C 109.333,184.167 109.333,156.833 110,129.5C 113.351,119.65 119.851,112.983 129.5,109.5 Z M 137.5,134.5 C 159.879,134.177 182.212,134.511 204.5,135.5C 205.5,158.824 205.833,182.157 205.5,205.5C 182.157,205.833 158.824,205.5 135.5,204.5C 134.344,182.21 134.178,159.876 135,137.5C 135.698,136.309 136.531,135.309 137.5,134.5 Z"/></g>
<g><path style="opacity:0.967" fill="#000000" d="M 299.5,109.5 C 326.835,109.333 354.169,109.5 381.5,110C 391.333,113.167 397.833,119.667 401,129.5C 401.667,156.833 401.667,184.167 401,211.5C 397.727,221.774 390.894,228.274 380.5,231C 353.833,231.667 327.167,231.667 300.5,231C 289.667,228.167 282.833,221.333 280,210.5C 279.333,183.833 279.333,157.167 280,130.5C 282.914,120.089 289.414,113.089 299.5,109.5 Z M 307.5,134.5 C 329.879,134.177 352.212,134.511 374.5,135.5C 375.5,158.824 375.833,182.157 375.5,205.5C 352.167,205.5 328.833,205.5 305.5,205.5C 304.859,181.604 305.526,157.937 307.5,134.5 Z"/></g>
<g><path style="opacity:0.974" fill="#000000" d="M 130.5,279.5 C 157.169,279.333 183.835,279.5 210.5,280C 221.333,282.833 228.167,289.667 231,300.5C 231.667,327.167 231.667,353.833 231,380.5C 228.274,390.894 221.774,397.727 211.5,401C 184.167,401.667 156.833,401.667 129.5,401C 119.667,397.833 113.167,391.333 110,381.5C 109.333,354.167 109.333,326.833 110,299.5C 113.453,289.212 120.286,282.545 130.5,279.5 Z M 135.5,305.5 C 158.833,305.5 182.167,305.5 205.5,305.5C 205.833,328.843 205.5,352.176 204.5,375.5C 182.21,376.656 159.876,376.822 137.5,376C 136.333,375.5 135.5,374.667 135,373.5C 134.188,350.79 134.354,328.124 135.5,305.5 Z"/></g>
<g><path style="opacity:0.974" fill="#000000" d="M 300.5,279.5 C 327.169,279.333 353.835,279.5 380.5,280C 390.894,282.726 397.727,289.226 401,299.5C 401.667,326.833 401.667,354.167 401,381.5C 397.833,391.333 391.333,397.833 381.5,401C 354.167,401.667 326.833,401.667 299.5,401C 289.226,397.727 282.726,390.894 280,380.5C 279.333,353.833 279.333,327.167 280,300.5C 283.016,289.652 289.849,282.652 300.5,279.5 Z M 305.5,305.5 C 328.843,305.167 352.176,305.5 375.5,306.5C 376.833,329.167 376.833,351.833 375.5,374.5C 374.975,375.192 374.308,375.692 373.5,376C 351.124,376.822 328.79,376.656 306.5,375.5C 305.5,352.176 305.167,328.843 305.5,305.5 Z"/></g>
<g><path style="opacity:0.955" fill="#000000" d="M 14.5,345.5 C 21.3591,345.829 25.8591,349.162 28,355.5C 28.3333,379.5 28.6667,403.5 29,427.5C 33.6304,455.797 49.797,473.63 77.5,481C 104.522,481.982 131.522,482.982 158.5,484C 165.938,490.083 166.938,497.083 161.5,505C 159.725,506.439 157.725,507.439 155.5,508C 128.469,508.936 101.469,508.603 74.5,507C 33.7915,497.291 9.9582,471.791 3,430.5C 2.33333,405.5 2.33333,380.5 3,355.5C 4.75027,349.716 8.5836,346.383 14.5,345.5 Z"/></g>
<g><path style="opacity:0.955" fill="#000000" d="M 494.5,345.5 C 501.359,345.829 505.859,349.162 508,355.5C 508.667,380.5 508.667,405.5 508,430.5C 501.042,471.791 477.208,497.291 436.5,507C 409.531,508.603 382.531,508.936 355.5,508C 349.461,506.127 346.127,501.961 345.5,495.5C 346.201,490.585 348.534,486.752 352.5,484C 379.478,482.982 406.478,481.982 433.5,481C 461.203,473.63 477.37,455.797 482,427.5C 482.333,403.5 482.667,379.5 483,355.5C 484.75,349.716 488.584,346.383 494.5,345.5 Z"/></g>
</svg>
