<?xml version="1.0" encoding="UTF-8"?>
<!DOCTYPE svg PUBLIC "-//W3C//DTD SVG 1.1//EN" "http://www.w3.org/Graphics/SVG/1.1/DTD/svg11.dtd">
<svg xmlns="http://www.w3.org/2000/svg" version="1.1" width="512px" height="512px" style="shape-rendering:geometricPrecision; text-rendering:geometricPrecision; image-rendering:optimizeQuality; fill-rule:evenodd; clip-rule:evenodd" xmlns:xlink="http://www.w3.org/1999/xlink">
<g><path style="opacity:0.933" fill="#000000" d="M 293.5,7.5 C 309.503,7.33341 325.503,7.50007 341.5,8C 342.667,9.16667 343.833,10.3333 345,11.5C 347.738,18.5497 350.571,25.5497 353.5,32.5C 364.134,35.7659 374.301,40.0993 384,45.5C 391.541,41.4861 399.375,38.1527 407.5,35.5C 408.795,36.0983 410.128,36.5983 411.5,37C 422,47.5 432.5,58 443,68.5C 443.667,71.1667 443.667,73.8333 443,76.5C 440.029,82.9416 437.196,89.4416 434.5,96C 439.593,105.189 443.593,114.856 446.5,125C 447.444,126.477 448.777,127.477 450.5,128C 456.952,130.206 463.286,132.706 469.5,135.5C 470.333,136.5 471.167,137.5 472,138.5C 472.667,154.167 472.667,169.833 472,185.5C 471.535,186.931 470.701,188.097 469.5,189C 461.927,192.038 454.427,195.204 447,198.5C 443.81,209.069 439.644,219.236 434.5,229C 437.333,235.5 440.167,242 443,248.5C 443.79,251.634 443.457,254.634 442,257.5C 431.804,268.03 421.304,278.197 410.5,288C 408.167,288.667 405.833,288.667 403.5,288C 397.058,285.029 390.558,282.196 384,279.5C 374.108,284.364 363.941,288.53 353.5,292C 350.338,299.483 347.171,306.983 344,314.5C 343.097,315.701 341.931,316.535 340.5,317C 325.167,317.667 309.833,317.667 294.5,317C 292.714,316.215 291.214,315.049 290,313.5C 287.554,306.158 284.72,298.991 281.5,292C 270.942,288.813 260.775,284.647 251,279.5C 244.224,282.471 237.391,285.305 230.5,288C 227.697,288.755 225.03,288.422 222.5,287C 211.97,276.804 201.803,266.304 192,255.5C 191.333,252.833 191.333,250.167 192,247.5C 194.833,241.167 197.667,234.833 200.5,228.5C 194.965,219.094 190.798,209.094 188,198.5C 180.573,195.204 173.073,192.038 165.5,189C 164.299,188.097 163.465,186.931 163,185.5C 162.333,169.833 162.333,154.167 163,138.5C 163.374,137.584 163.874,136.75 164.5,136C 172.552,132.876 180.385,129.376 188,125.5C 191.093,115.054 195.26,105.054 200.5,95.5C 197.667,89.1667 194.833,82.8333 192,76.5C 191.183,73.0357 191.517,69.7024 193,66.5C 202.863,56.3031 213.029,46.4698 223.5,37C 226.45,35.2864 229.45,35.2864 232.5,37C 238.742,39.7047 244.908,42.5381 251,45.5C 260.536,39.7096 270.702,35.3763 281.5,32.5C 284.291,26.2952 286.791,19.9618 289,13.5C 289.804,10.8541 291.304,8.85408 293.5,7.5 Z M 303.5,23.5 C 312.857,23.1684 322.19,23.5017 331.5,24.5C 333.972,32.4267 337.305,39.9267 341.5,47C 355.248,50.5807 368.248,55.914 380.5,63C 382.5,63.6667 384.5,63.6667 386.5,63C 392.742,60.2953 398.908,57.4619 405,54.5C 411.333,60.8333 417.667,67.1667 424,73.5C 422.572,80.0498 420.239,86.3832 417,92.5C 416.333,95.1667 416.333,97.8333 417,100.5C 424.278,112.329 429.611,124.996 433,138.5C 440.131,142.213 447.464,145.547 455,148.5C 455.832,157.851 455.665,167.184 454.5,176.5C 448.872,178.765 443.206,180.931 437.5,183C 435.714,183.785 434.214,184.951 433,186.5C 429.221,199.841 423.888,212.508 417,224.5C 416.333,227.167 416.333,229.833 417,232.5C 419.956,238.388 422.29,244.388 424,250.5C 417.652,257.015 411.152,263.348 404.5,269.5C 397.481,266.071 390.314,263.071 383,260.5C 370.243,267.794 356.743,273.294 342.5,277C 341.333,278.167 340.167,279.333 339,280.5C 336.5,286.833 334,293.167 331.5,299.5C 322.184,300.665 312.851,300.832 303.5,300C 300.809,293.595 298.309,287.095 296,280.5C 294.833,279.333 293.667,278.167 292.5,277C 278.236,273.282 264.736,267.782 252,260.5C 245.02,262.904 238.187,265.738 231.5,269C 230.5,269.667 229.5,269.667 228.5,269C 222.167,262.667 215.833,256.333 209.5,250C 213.338,242.994 216.338,235.66 218.5,228C 215.171,220.168 211.671,212.335 208,204.5C 205.998,198.489 203.998,192.489 202,186.5C 200.786,184.951 199.286,183.785 197.5,183C 191.794,180.931 186.128,178.765 180.5,176.5C 179.335,167.184 179.168,157.851 180,148.5C 187.536,145.547 194.869,142.213 202,138.5C 205.578,124.764 210.911,111.764 218,99.5C 217.803,92.4011 215.803,85.7344 212,79.5C 211.009,77.5527 210.675,75.5527 211,73.5C 217.333,67.1667 223.667,60.8333 230,54.5C 236.885,58.193 244.052,61.193 251.5,63.5C 259.115,60.028 266.782,56.528 274.5,53C 281.253,50.8604 287.92,48.5271 294.5,46C 297.919,38.6628 300.919,31.1628 303.5,23.5 Z M 309.5,101.5 C 342.814,100.227 364.981,115.227 376,146.5C 380.192,163.154 377.859,178.821 369,193.5C 363.221,181.388 354.388,172.221 342.5,166C 351.622,153.947 352.788,141.114 346,127.5C 333.202,110.677 317.369,107.177 298.5,117C 285.411,127.854 281.578,141.354 287,157.5C 288.439,160.603 290.273,163.436 292.5,166C 281.359,171.974 272.692,180.474 266.5,191.5C 265.833,192.833 265.167,192.833 264.5,191.5C 250.452,161.666 255.786,135.833 280.5,114C 289.3,107.594 298.967,103.427 309.5,101.5 Z M 313.5,128.5 C 326.809,127.977 333.309,134.31 333,147.5C 328.017,159.94 319.517,163.107 307.5,157C 298.1,144.989 300.1,135.489 313.5,128.5 Z M 310.5,177.5 C 333.748,175.945 349.081,186.111 356.5,208C 337.551,223.464 316.551,226.797 293.5,218C 288.162,215.333 283.162,212.166 278.5,208.5C 283.317,192.015 293.984,181.681 310.5,177.5 Z"/></g>
<g><path style="opacity:0.934" fill="#000000" d="M 308.5,84.5 C 348.084,82.9571 375.584,100.29 391,136.5C 402.378,181.733 387.211,214.567 345.5,235C 305.334,247.058 273.501,235.892 250,201.5C 232.166,164.66 237.666,131.827 266.5,103C 278.819,92.8447 292.819,86.678 308.5,84.5 Z M 309.5,101.5 C 298.967,103.427 289.3,107.594 280.5,114C 255.786,135.833 250.452,161.666 264.5,191.5C 265.167,192.833 265.833,192.833 266.5,191.5C 272.692,180.474 281.359,171.974 292.5,166C 290.273,163.436 288.439,160.603 287,157.5C 281.578,141.354 285.411,127.854 298.5,117C 317.369,107.177 333.202,110.677 346,127.5C 352.788,141.114 351.622,153.947 342.5,166C 354.388,172.221 363.221,181.388 369,193.5C 377.859,178.821 380.192,163.154 376,146.5C 364.981,115.227 342.814,100.227 309.5,101.5 Z M 313.5,128.5 C 300.1,135.489 298.1,144.989 307.5,157C 319.517,163.107 328.017,159.94 333,147.5C 333.309,134.31 326.809,127.977 313.5,128.5 Z M 310.5,177.5 C 293.984,181.681 283.317,192.015 278.5,208.5C 283.162,212.166 288.162,215.333 293.5,218C 316.551,226.797 337.551,223.464 356.5,208C 349.081,186.111 333.748,175.945 310.5,177.5 Z"/></g>
<g><path style="opacity:0.931" fill="#000000" d="M 193.5,294.5 C 198.478,295.201 203.478,296.034 208.5,297C 225.833,303 243.167,309 260.5,315C 272.341,318.627 284.341,321.627 296.5,324C 317.937,332.373 325.27,347.54 318.5,369.5C 319,369.833 319.5,370.167 320,370.5C 353.062,352.053 385.895,333.219 418.5,314C 432.193,306.243 446.86,302.909 462.5,304C 482.566,308.942 491.732,321.775 490,342.5C 488.813,352.327 484.313,360.161 476.5,366C 422.167,399.835 367.5,433.169 312.5,466C 300.463,470.57 288.129,471.903 275.5,470C 237.036,460.301 198.703,450.134 160.5,439.5C 156.167,442.167 151.833,444.833 147.5,447.5C 150.603,452.706 153.436,458.04 156,463.5C 157.769,471.39 156.102,478.39 151,484.5C 140.573,491.299 129.74,497.466 118.5,503C 108.364,505.511 100.197,502.678 94,494.5C 71.6667,455.167 49.3333,415.833 27,376.5C 21.344,368.889 19.6774,360.556 22,351.5C 23.7766,347.096 26.6099,343.596 30.5,341C 39.5,336 48.5,331 57.5,326C 67.69,322.838 76.19,325.338 83,333.5C 85.1667,337.167 87.3333,340.833 89.5,344.5C 114.842,329.494 140.509,314.994 166.5,301C 175.295,297.383 184.295,295.216 193.5,294.5 Z M 192.5,311.5 C 195.813,312.045 199.146,312.545 202.5,313C 232.155,324.552 262.489,333.885 293.5,341C 304.08,346.738 306.58,354.905 301,365.5C 299.269,367.617 297.102,369.117 294.5,370C 288.775,370.717 283.109,370.384 277.5,369C 260.976,364.577 244.476,360.077 228,355.5C 222.483,355.683 219.65,358.517 219.5,364C 219.408,366.814 220.408,369.147 222.5,371C 249.31,380.411 276.81,386.911 305,390.5C 313.825,390.169 322.325,388.335 330.5,385C 361.664,367.252 392.664,349.252 423.5,331C 434.84,323.772 447.173,320.439 460.5,321C 471.645,325.124 475.478,332.957 472,344.5C 470.939,347.562 469.106,350.062 466.5,352C 413.833,384.333 361.167,416.667 308.5,449C 296.837,454.43 284.837,455.43 272.5,452C 234.871,441.676 197.205,431.51 159.5,421.5C 152.184,424.242 145.35,427.909 139,432.5C 125.247,408.662 111.747,384.662 98.5,360.5C 120.966,346.763 143.632,333.263 166.5,320C 174.864,315.822 183.531,312.989 192.5,311.5 Z M 64.5,341.5 C 66.1703,341.751 67.6703,342.418 69,343.5C 92.3333,384.833 115.667,426.167 139,467.5C 139.825,469.701 139.325,471.534 137.5,473C 129.833,477.333 122.167,481.667 114.5,486C 111.975,486.896 109.808,486.396 108,484.5C 84.5,442.833 61,401.167 37.5,359.5C 38.0402,358.252 38.7069,357.085 39.5,356C 47.8962,351.14 56.2295,346.307 64.5,341.5 Z"/></g>
<g><path style="opacity:0.877" fill="#000000" d="M 58.5,357.5 C 67.3743,356.871 71.2076,360.871 70,369.5C 67.6471,374.426 63.8138,376.26 58.5,375C 50.5548,369.17 50.5548,363.336 58.5,357.5 Z"/></g>
</svg>
