<?xml version="1.0" encoding="UTF-8"?>
<!DOCTYPE svg PUBLIC "-//W3C//DTD SVG 1.1//EN" "http://www.w3.org/Graphics/SVG/1.1/DTD/svg11.dtd">
<svg xmlns="http://www.w3.org/2000/svg" version="1.1" width="512px" height="512px" style="shape-rendering:geometricPrecision; text-rendering:geometricPrecision; image-rendering:optimizeQuality; fill-rule:evenodd; clip-rule:evenodd" xmlns:xlink="http://www.w3.org/1999/xlink">
<g><path style="opacity:0.93" fill="#000000" d="M 315.5,-0.5 C 322.833,-0.5 330.167,-0.5 337.5,-0.5C 371.332,9.47144 387.165,32.1381 385,67.5C 382.056,84.7406 373.556,98.4072 359.5,108.5C 378.687,117.187 393.187,130.854 403,149.5C 406.734,146.048 410.9,143.215 415.5,141C 396.059,123.259 391.892,102.425 403,78.5C 416.803,58.3406 435.636,51.1739 459.5,57C 483.486,66.8002 494.319,84.6335 492,110.5C 489.914,123.229 483.747,133.396 473.5,141C 494.316,151.308 506.983,167.808 511.5,190.5C 511.5,209.5 511.5,228.5 511.5,247.5C 508.375,255.118 502.708,259.618 494.5,261C 457.502,261.5 420.502,261.667 383.5,261.5C 376.972,292.279 357.972,308.946 326.5,311.5C 295.264,308.753 275.931,292.253 268.5,262C 250.101,261.961 231.768,261.294 213.5,260C 209.539,255.464 209.539,250.964 213.5,246.5C 222.78,245.527 232.113,245.193 241.5,245.5C 241.333,223.497 241.5,201.497 242,179.5C 242.264,175.045 243.098,170.711 244.5,166.5C 227.71,150.442 208.376,146.609 186.5,155C 170.135,163.704 160.302,177.204 157,195.5C 156.182,211.544 156.349,227.544 157.5,243.5C 158.025,244.192 158.692,244.692 159.5,245C 168.833,245.333 178.167,245.667 187.5,246C 193.421,252.395 192.421,257.395 184.5,261C 175.5,261.667 166.5,261.667 157.5,261C 149.002,259.512 143.502,254.678 141,246.5C 140.333,228.833 140.333,211.167 141,193.5C 144.586,169.588 157.086,152.088 178.5,141C 161.787,126.655 156.287,108.822 162,87.5C 174.589,59.4578 195.756,49.6245 225.5,58C 252.662,72.4778 261.162,94.3111 251,123.5C 247.238,130.258 242.405,136.091 236.5,141C 241.59,142.958 246.09,145.792 250,149.5C 259.748,131.252 273.914,117.586 292.5,108.5C 268.464,89.2188 261.298,64.8855 271,35.5C 279.911,15.987 294.744,3.98697 315.5,-0.5 Z M 317.5,15.5 C 336.809,12.9838 351.975,19.6504 363,35.5C 375.338,60.8191 369.838,81.3191 346.5,97C 325.671,106.086 307.504,102.253 292,85.5C 279.333,67.5 279.333,49.5 292,31.5C 298.907,23.4716 307.407,18.1382 317.5,15.5 Z M 203.5,70.5 C 222.406,70.2425 234.239,79.2425 239,97.5C 240.192,116.971 231.359,129.138 212.5,134C 190.866,134.539 178.533,124.039 175.5,102.5C 177.479,85.1992 186.812,74.5325 203.5,70.5 Z M 440.5,70.5 C 459.406,70.2425 471.239,79.2425 476,97.5C 477.179,116.982 468.345,129.149 449.5,134C 427.866,134.539 415.533,124.039 412.5,102.5C 414.45,85.2252 423.783,74.5585 440.5,70.5 Z M 315.5,118.5 C 350.279,115.963 375.112,130.296 390,161.5C 391.802,166.375 393.135,171.375 394,176.5C 394.5,199.498 394.667,222.498 394.5,245.5C 390.833,245.5 387.167,245.5 383.5,245.5C 377.194,214.091 358.028,197.424 326,195.5C 294.756,197.572 275.59,213.905 268.5,244.5C 264.893,245.489 261.226,245.823 257.5,245.5C 257.333,223.831 257.5,202.164 258,180.5C 263.586,147.085 282.753,126.419 315.5,118.5 Z M 437.5,150.5 C 467.861,149.382 487.028,163.382 495,192.5C 495.667,209.5 495.667,226.5 495,243.5C 494.25,244.126 493.416,244.626 492.5,245C 465.169,245.5 437.835,245.667 410.5,245.5C 410.904,218.755 410.404,192.089 409,165.5C 416.96,157.438 426.46,152.438 437.5,150.5 Z M 318.5,211.5 C 340.174,209.414 355.674,218.081 365,237.5C 371.527,257.92 366.36,274.754 349.5,288C 325.83,300.29 305.997,295.79 290,274.5C 279.088,250.309 284.588,230.809 306.5,216C 310.571,214.37 314.571,212.87 318.5,211.5 Z"/></g>
<g><path style="opacity:0.91" fill="#000000" d="M 343.5,236.5 C 351.658,235.823 355.158,239.49 354,247.5C 345.5,257.333 336.333,266.5 326.5,275C 323.217,275.743 320.217,275.076 317.5,273C 311.634,267.469 306.134,261.635 301,255.5C 299.505,245.991 303.339,242.491 312.5,245C 316.015,248.682 319.682,252.182 323.5,255.5C 330.214,249.117 336.88,242.784 343.5,236.5 Z"/></g>
<g><path style="opacity:0.933" fill="#000000" d="M 511.5,361.5 C 511.5,367.167 511.5,372.833 511.5,378.5C 507.649,390.327 500.315,399.493 489.5,406C 466.934,416.131 444.267,425.964 421.5,435.5C 415.041,434.592 412.541,430.926 414,424.5C 414.465,423.069 415.299,421.903 416.5,421C 437.382,411.392 458.382,402.059 479.5,393C 491.224,386.97 496.39,377.47 495,364.5C 489.372,350.438 479.205,345.604 464.5,350C 421.828,362.834 379.161,375.668 336.5,388.5C 327.924,404.198 314.924,409.698 297.5,405C 274.167,399.333 250.833,393.667 227.5,388C 219.833,384.333 218.833,379.333 224.5,373C 226,372.833 227.5,372.667 229,372.5C 254.216,378.077 279.383,383.91 304.5,390C 316.862,390.644 323.195,384.644 323.5,372C 322.808,362.29 317.808,355.956 308.5,353C 280.932,341.216 252.932,330.55 224.5,321C 203.851,319.39 183.184,319.39 162.5,321C 142.957,323.27 124.623,329.27 107.5,339C 93.3329,347.918 78.9995,356.585 64.5,365C 48.0337,370.378 31.5337,375.545 15,380.5C 14.1705,418.738 14.3372,456.905 15.5,495C 17.5527,495.325 19.5527,494.991 21.5,494C 58.1667,480 94.8333,466 131.5,452C 155.62,443.214 180.287,441.214 205.5,446C 225.724,453.075 245.724,460.741 265.5,469C 281.403,474.036 297.07,473.369 312.5,467C 337.167,456 361.833,445 386.5,434C 396.048,433.253 399.215,437.42 396,446.5C 368.843,459.66 341.343,472.16 313.5,484C 296.606,489.556 279.606,489.889 262.5,485C 241.366,476.432 220.033,468.432 198.5,461C 178.756,457.91 159.423,459.576 140.5,466C 100.967,480.944 61.634,496.111 22.5,511.5C 18.5,511.5 14.5,511.5 10.5,511.5C 5.16667,509.5 1.5,505.833 -0.5,500.5C -0.5,458.5 -0.5,416.5 -0.5,374.5C 1.59151,370.572 4.59151,367.406 8.5,365C 25.2698,360.308 41.9364,355.308 58.5,350C 70.8333,342.333 83.1667,334.667 95.5,327C 129.137,307.862 165.304,300.029 204,303.5C 214.336,303.278 224.503,304.445 234.5,307C 262.402,317.078 290.069,327.745 317.5,339C 330.769,345.284 338.269,355.784 340,370.5C 379.473,358.677 418.973,346.843 458.5,335C 484.384,327.942 502.05,336.775 511.5,361.5 Z"/></g>
</svg>
