<?xml version="1.0" encoding="UTF-8"?>
<!DOCTYPE svg PUBLIC "-//W3C//DTD SVG 1.1//EN" "http://www.w3.org/Graphics/SVG/1.1/DTD/svg11.dtd">
<svg xmlns="http://www.w3.org/2000/svg" version="1.1" width="512px" height="512px" style="shape-rendering:geometricPrecision; text-rendering:geometricPrecision; image-rendering:optimizeQuality; fill-rule:evenodd; clip-rule:evenodd" xmlns:xlink="http://www.w3.org/1999/xlink">
<g><path style="opacity:0.949" fill="#000000" d="M 191.5,9.5 C 218.102,6.46576 239.435,15.4658 255.5,36.5C 274.955,11.5174 299.955,3.68408 330.5,13C 356.071,24.2584 369.405,43.925 370.5,72C 370.609,85.8394 366.609,98.3394 358.5,109.5C 392.313,135.454 404.313,168.954 394.5,210C 392.913,210.862 391.246,211.529 389.5,212C 374.489,212.167 359.489,212.667 344.5,213.5C 346.373,224.414 346.873,235.414 346,246.5C 345.167,251.333 342.333,254.167 337.5,255C 282.833,255.667 228.167,255.667 173.5,255C 168.667,254.167 165.833,251.333 165,246.5C 164.127,235.414 164.627,224.414 166.5,213.5C 151.511,212.667 136.511,212.167 121.5,212C 118.452,211.394 115.952,209.894 114,207.5C 107.32,167.021 120.153,134.355 152.5,109.5C 139.873,90.9683 137.039,70.9683 144,49.5C 153.313,28.3485 169.146,15.0152 191.5,9.5 Z M 202.5,29.5 C 219.493,30.4893 232.159,38.3226 240.5,53C 211.684,62.4382 195.518,82.2715 192,112.5C 169.512,103.864 159.512,87.5305 162,63.5C 168.071,43.2585 181.571,31.9252 202.5,29.5 Z M 307.5,29.5 C 329.031,31.5387 342.865,42.872 349,63.5C 351.483,87.5435 341.483,103.877 319,112.5C 315.482,82.2715 299.316,62.4382 270.5,53C 278.677,38.5805 291.01,30.7471 307.5,29.5 Z M 247.5,73.5 C 271.781,71.3789 287.948,81.7122 296,104.5C 299.562,121.813 294.729,136.313 281.5,148C 265.584,158.532 249.251,159.199 232.5,150C 213.514,135.076 209.014,116.576 219,94.5C 225.775,83.7058 235.275,76.7058 247.5,73.5 Z M 167.5,125.5 C 176.49,129.553 185.824,132.719 195.5,135C 198.058,141.452 201.392,147.452 205.5,153C 191.39,162.606 180.724,175.106 173.5,190.5C 160.183,191.499 146.85,191.833 133.5,191.5C 132.724,163.046 144.058,141.046 167.5,125.5 Z M 340.5,125.5 C 359.513,135.044 371.346,150.378 376,171.5C 377.21,178.112 377.71,184.778 377.5,191.5C 364.15,191.833 350.817,191.499 337.5,190.5C 330.276,175.106 319.61,162.606 305.5,153C 309.608,147.452 312.942,141.452 315.5,135C 324.491,133.285 332.824,130.119 340.5,125.5 Z M 220.5,168.5 C 226.547,171.516 232.881,174.016 239.5,176C 257.047,179.929 273.547,177.429 289,168.5C 313.884,183.254 326.051,205.254 325.5,234.5C 278.833,234.5 232.167,234.5 185.5,234.5C 185.127,205.904 196.793,183.904 220.5,168.5 Z"/></g>
<g><path style="opacity:0.951" fill="#000000" d="M -0.5,298.5 C -0.5,290.5 -0.5,282.5 -0.5,274.5C 4.91068,267.462 11.0773,266.795 18,272.5C 18.8624,274.087 19.5291,275.754 20,277.5C 18.926,289.903 21.2593,301.57 27,312.5C 40.2117,326.712 54.3784,339.879 69.5,352C 82.3453,363.169 92.5119,376.335 100,391.5C 103.105,398.86 104.605,406.526 104.5,414.5C 134.5,414.5 164.5,414.5 194.5,414.5C 194.834,394.346 193.334,374.346 190,354.5C 184.967,331.815 172.134,315.315 151.5,305C 140.789,300.987 130.122,296.987 119.5,293C 116.96,290.795 114.793,288.295 113,285.5C 104.585,271 95.918,256.667 87,242.5C 77.8376,232.707 69.5043,233.373 62,244.5C 61.5779,246.355 61.0779,248.189 60.5,250C 61.0779,251.811 61.5779,253.645 62,255.5C 76.6667,279.5 91.3333,303.5 106,327.5C 107.333,338.498 102.5,342.998 91.5,341C 89,339.833 87.1667,338 86,335.5C 71.0819,311.333 56.4152,286.999 42,262.5C 36.4773,242.218 42.9773,227.218 61.5,217.5C 60.4136,190.199 58.5802,162.866 56,135.5C 53.3153,124.743 46.8153,121.243 36.5,125C 32.6749,127.488 30.5082,130.988 30,135.5C 28.686,155.214 27.0194,174.881 25,194.5C 20.8805,199.71 15.7138,200.877 9.5,198C 7.95118,196.786 6.78451,195.286 6,193.5C 5.86773,177.479 6.5344,161.479 8,145.5C 6.82377,128.694 12.9904,115.528 26.5,106C 48.3332,97.5053 64.4998,103.672 75,124.5C 75.7943,127.471 76.461,130.471 77,133.5C 79.0029,160.868 81.3362,188.201 84,215.5C 91.6879,217.845 98.0212,222.178 103,228.5C 112.959,244.249 122.792,260.083 132.5,276C 179.417,286.247 206.25,315.08 213,362.5C 214.761,380.455 215.594,398.455 215.5,416.5C 224.583,419.088 230.083,425.088 232,434.5C 232.667,450.167 232.667,465.833 232,481.5C 229.677,491.156 223.843,497.656 214.5,501C 171.167,501.667 127.833,501.667 84.5,501C 75.5725,497.74 69.7392,491.573 67,482.5C 66.3333,466.167 66.3333,449.833 67,433.5C 69.5095,424.99 74.8429,418.99 83,415.5C 83.1813,405.509 80.1813,396.509 74,388.5C 60.8173,373.318 46.3173,359.485 30.5,347C 20.1174,338.295 11.6174,328.128 5,316.5C 2.52292,310.565 0.689586,304.565 -0.5,298.5 Z M 90.5,435.5 C 129.835,435.333 169.168,435.5 208.5,436C 209.667,436.5 210.5,437.333 211,438.5C 211.667,451.833 211.667,465.167 211,478.5C 209.829,479.893 208.329,480.727 206.5,481C 167.44,481.982 128.44,481.649 89.5,480C 89,479.5 88.5,479 88,478.5C 87.3333,464.833 87.3333,451.167 88,437.5C 88.9947,436.934 89.828,436.267 90.5,435.5 Z"/></g>
<g><path style="opacity:0.951" fill="#000000" d="M 511.5,264.5 C 511.5,275.833 511.5,287.167 511.5,298.5C 509.898,308.124 506.398,317.124 501,325.5C 494.532,332.97 487.698,340.136 480.5,347C 464.683,359.485 450.183,373.318 437,388.5C 430.839,396.479 427.839,405.479 428,415.5C 436.157,418.99 441.49,424.99 444,433.5C 444.667,449.833 444.667,466.167 444,482.5C 441.261,491.573 435.427,497.74 426.5,501C 383.167,501.667 339.833,501.667 296.5,501C 287.157,497.656 281.323,491.156 279,481.5C 278.333,465.833 278.333,450.167 279,434.5C 280.917,425.088 286.417,419.088 295.5,416.5C 295.285,396.412 296.452,376.412 299,356.5C 307.642,312.191 334.142,285.358 378.5,276C 388.125,260.584 397.625,245.084 407,229.5C 412.127,222.606 418.794,217.939 427,215.5C 429.638,187.346 432.138,159.18 434.5,131C 440.955,107.934 455.955,98.9338 479.5,104C 492.129,109.311 499.629,118.811 502,132.5C 504.889,176.675 508.055,220.675 511.5,264.5 Z M 463.5,123.5 C 473.009,122.179 478.842,126.179 481,135.5C 485.507,189.101 488.507,242.768 490,296.5C 488.626,303.914 485.626,310.581 481,316.5C 468.43,329.074 455.263,340.907 441.5,352C 428.655,363.169 418.488,376.335 411,391.5C 407.749,398.836 406.249,406.503 406.5,414.5C 376.5,414.5 346.5,414.5 316.5,414.5C 316.476,397.788 317.309,381.121 319,364.5C 322.461,334.065 338.294,313.231 366.5,302C 375.153,299.758 383.486,296.758 391.5,293C 393,291.5 394.5,290 396,288.5C 406.045,271.129 416.878,254.296 428.5,238C 440.293,233.566 447.626,237.566 450.5,250C 449.896,252.584 449.063,255.084 448,257.5C 433.27,280.569 418.937,303.902 405,327.5C 403.667,338.498 408.5,342.998 419.5,341C 420.931,340.535 422.097,339.701 423,338.5C 437,315.833 451,293.167 465,270.5C 475.277,251.66 472.444,235.16 456.5,221C 453.89,219.519 451.223,218.352 448.5,217.5C 450.59,190.167 452.756,162.834 455,135.5C 456.147,130.204 458.98,126.204 463.5,123.5 Z M 302.5,435.5 C 341.835,435.333 381.168,435.5 420.5,436C 421.416,436.374 422.25,436.874 423,437.5C 423.667,451.167 423.667,464.833 423,478.5C 421.829,479.893 420.329,480.727 418.5,481C 379.44,481.982 340.44,481.649 301.5,480C 301,479.5 300.5,479 300,478.5C 299.333,465.167 299.333,451.833 300,438.5C 300.698,437.309 301.531,436.309 302.5,435.5 Z"/></g>
<g><path style="opacity:0.889" fill="#000000" d="M 9.5,223.5 C 20.6513,223.491 24.818,228.824 22,239.5C 18.5616,244.081 14.0616,245.581 8.5,244C 2.89116,240.723 1.05783,235.89 3,229.5C 4.49363,226.686 6.6603,224.686 9.5,223.5 Z"/></g>
</svg>
