<?xml version="1.0" encoding="UTF-8"?>
<!DOCTYPE svg PUBLIC "-//W3C//DTD SVG 1.1//EN" "http://www.w3.org/Graphics/SVG/1.1/DTD/svg11.dtd">
<svg xmlns="http://www.w3.org/2000/svg" version="1.1" width="512px" height="512px" style="shape-rendering:geometricPrecision; text-rendering:geometricPrecision; image-rendering:optimizeQuality; fill-rule:evenodd; clip-rule:evenodd" xmlns:xlink="http://www.w3.org/1999/xlink">
<g><path style="opacity:0.955" fill="#000000" d="M 100.5,-0.5 C 183.833,-0.5 267.167,-0.5 350.5,-0.5C 401.983,8.17536 436.483,37.1754 454,86.5C 456.637,95.3206 458.303,104.321 459,113.5C 459.667,199.833 459.667,286.167 459,372.5C 456.649,376.511 453.149,378.011 448.5,377C 446.333,376.167 444.833,374.667 444,372.5C 443.667,289.833 443.333,207.167 443,124.5C 439.707,105.065 428.54,92.8986 409.5,88C 401.876,86.9043 394.209,86.2377 386.5,86C 379.268,83.101 374.435,77.9343 372,70.5C 374.148,53.2788 369.315,38.4455 357.5,26C 349.218,18.7934 339.552,15.1267 328.5,15C 254.833,14.3333 181.167,14.3333 107.5,15C 105.671,15.2735 104.171,16.1068 103,17.5C 102.5,29.8288 102.333,42.1622 102.5,54.5C 136.502,54.3333 170.502,54.5 204.5,55C 216.014,58.1708 222.848,65.6708 225,77.5C 225.667,92.1667 225.667,106.833 225,121.5C 222.248,135.585 213.748,143.419 199.5,145C 188.833,145.667 178.167,145.667 167.5,145C 161.842,143.171 160.008,139.337 162,133.5C 162.374,132.584 162.874,131.75 163.5,131C 175.07,129.708 186.737,129.042 198.5,129C 202.664,128.177 205.831,126.01 208,122.5C 209.615,108.235 209.948,93.9021 209,79.5C 206.985,74.1527 203.151,70.986 197.5,70C 178,69.8333 158.5,69.6667 139,69.5C 117.793,69.3618 96.6262,69.8618 75.5,71C 71.9151,72.9158 69.4151,75.7491 68,79.5C 67.167,96.8429 67.3337,114.176 68.5,131.5C 69.7946,130.902 71.1279,130.402 72.5,130C 94.1667,129.333 115.833,129.333 137.5,130C 139.333,130.5 140.5,131.667 141,133.5C 142.992,139.337 141.158,143.171 135.5,145C 124.505,145.5 113.505,145.667 102.5,145.5C 102.333,261.5 102.5,377.5 103,493.5C 104.171,494.893 105.671,495.727 107.5,496C 217.5,496.667 327.5,496.667 437.5,496C 439.848,495.654 441.681,494.487 443,492.5C 443.333,462.167 443.667,431.833 444,401.5C 447.013,396.465 451.18,395.298 456.5,398C 457.701,398.903 458.535,400.069 459,401.5C 459.667,432.5 459.667,463.5 459,494.5C 456.941,502.667 452.108,508.333 444.5,511.5C 329.833,511.5 215.167,511.5 100.5,511.5C 94.1873,508.686 89.6873,504.019 87,497.5C 86.5,393.501 86.3333,289.501 86.5,185.5C 73.0235,187.294 62.5235,182.627 55,171.5C 53.6011,168.637 52.6011,165.637 52,162.5C 51.3333,134.167 51.3333,105.833 52,77.5C 56.8063,60.0017 68.3063,52.335 86.5,54.5C 86.3334,40.8293 86.5001,27.1626 87,13.5C 89.6873,6.98101 94.1873,2.31434 100.5,-0.5 Z M 376.5,24.5 C 376.56,23.9569 376.893,23.6236 377.5,23.5C 404.069,35.5658 422.903,54.8991 434,81.5C 420.834,72.9159 406.334,69.0826 390.5,70C 389.667,69.1667 388.833,68.3333 388,67.5C 388.786,53.7631 386.119,40.7631 380,28.5C 379.051,26.9069 377.885,25.5736 376.5,24.5 Z M 75.5,145.5 C 79.1667,145.5 82.8333,145.5 86.5,145.5C 86.5,153.5 86.5,161.5 86.5,169.5C 74.375,171.397 68.2084,166.397 68,154.5C 69.6416,150.7 72.1416,147.7 75.5,145.5 Z M 143.5,194.5 C 154.167,194.5 164.833,194.5 175.5,194.5C 175.5,205.5 175.5,216.5 175.5,227.5C 164.5,227.5 153.5,227.5 142.5,227.5C 142.19,216.419 142.523,205.419 143.5,194.5 Z M 191.5,194.5 C 211.5,194.5 231.5,194.5 251.5,194.5C 251.5,205.5 251.5,216.5 251.5,227.5C 231.5,227.5 211.5,227.5 191.5,227.5C 191.5,216.5 191.5,205.5 191.5,194.5 Z M 267.5,194.5 C 287.5,194.5 307.5,194.5 327.5,194.5C 327.5,205.5 327.5,216.5 327.5,227.5C 319.097,227.13 310.764,227.63 302.5,229C 297.167,233.667 297.167,238.333 302.5,243C 310.827,243.5 319.16,243.666 327.5,243.5C 327.5,253.5 327.5,263.5 327.5,273.5C 307.5,273.5 287.5,273.5 267.5,273.5C 267.5,263.5 267.5,253.5 267.5,243.5C 270.978,243.816 274.312,243.316 277.5,242C 281.762,232.037 278.429,227.204 267.5,227.5C 267.5,216.5 267.5,205.5 267.5,194.5 Z M 343.5,194.5 C 363.169,194.333 382.836,194.5 402.5,195C 403.487,205.752 403.82,216.585 403.5,227.5C 383.5,227.5 363.5,227.5 343.5,227.5C 343.5,216.5 343.5,205.5 343.5,194.5 Z M 142.5,243.5 C 153.5,243.5 164.5,243.5 175.5,243.5C 175.5,253.5 175.5,263.5 175.5,273.5C 164.5,273.5 153.5,273.5 142.5,273.5C 142.5,263.5 142.5,253.5 142.5,243.5 Z M 191.5,243.5 C 211.5,243.5 231.5,243.5 251.5,243.5C 251.5,253.5 251.5,263.5 251.5,273.5C 231.5,273.5 211.5,273.5 191.5,273.5C 191.5,263.5 191.5,253.5 191.5,243.5 Z M 343.5,243.5 C 363.5,243.5 383.5,243.5 403.5,243.5C 403.5,253.5 403.5,263.5 403.5,273.5C 383.5,273.5 363.5,273.5 343.5,273.5C 343.5,263.5 343.5,253.5 343.5,243.5 Z M 142.5,289.5 C 153.5,289.5 164.5,289.5 175.5,289.5C 175.5,299.5 175.5,309.5 175.5,319.5C 164.5,319.5 153.5,319.5 142.5,319.5C 142.5,309.5 142.5,299.5 142.5,289.5 Z M 191.5,289.5 C 211.5,289.5 231.5,289.5 251.5,289.5C 251.5,299.5 251.5,309.5 251.5,319.5C 231.5,319.5 211.5,319.5 191.5,319.5C 191.5,309.5 191.5,299.5 191.5,289.5 Z M 267.5,289.5 C 287.5,289.5 307.5,289.5 327.5,289.5C 327.5,299.5 327.5,309.5 327.5,319.5C 307.5,319.5 287.5,319.5 267.5,319.5C 267.5,309.5 267.5,299.5 267.5,289.5 Z M 343.5,289.5 C 363.5,289.5 383.5,289.5 403.5,289.5C 403.5,299.5 403.5,309.5 403.5,319.5C 383.5,319.5 363.5,319.5 343.5,319.5C 343.5,309.5 343.5,299.5 343.5,289.5 Z M 142.5,335.5 C 153.5,335.5 164.5,335.5 175.5,335.5C 175.5,345.167 175.5,354.833 175.5,364.5C 164.5,364.5 153.5,364.5 142.5,364.5C 142.5,354.833 142.5,345.167 142.5,335.5 Z M 191.5,335.5 C 211.5,335.5 231.5,335.5 251.5,335.5C 251.5,345.167 251.5,354.833 251.5,364.5C 231.5,364.5 211.5,364.5 191.5,364.5C 191.5,354.833 191.5,345.167 191.5,335.5 Z M 267.5,335.5 C 287.5,335.5 307.5,335.5 327.5,335.5C 327.5,345.167 327.5,354.833 327.5,364.5C 307.5,364.5 287.5,364.5 267.5,364.5C 267.5,354.833 267.5,345.167 267.5,335.5 Z M 343.5,335.5 C 363.5,335.5 383.5,335.5 403.5,335.5C 403.5,345.167 403.5,354.833 403.5,364.5C 383.5,364.5 363.5,364.5 343.5,364.5C 343.5,354.833 343.5,345.167 343.5,335.5 Z M 142.5,426.5 C 153.5,426.5 164.5,426.5 175.5,426.5C 175.5,436.5 175.5,446.5 175.5,456.5C 164.781,456.81 154.115,456.477 143.5,455.5C 142.502,445.856 142.168,436.19 142.5,426.5 Z M 191.5,426.5 C 211.5,426.5 231.5,426.5 251.5,426.5C 251.5,436.5 251.5,446.5 251.5,456.5C 231.5,456.5 211.5,456.5 191.5,456.5C 191.5,446.5 191.5,436.5 191.5,426.5 Z M 267.5,426.5 C 287.5,426.5 307.5,426.5 327.5,426.5C 327.5,436.5 327.5,446.5 327.5,456.5C 307.5,456.5 287.5,456.5 267.5,456.5C 267.5,446.5 267.5,436.5 267.5,426.5 Z M 343.5,426.5 C 363.5,426.5 383.5,426.5 403.5,426.5C 403.666,435.839 403.5,445.173 403,454.5C 402.5,455 402,455.5 401.5,456C 382.17,456.5 362.836,456.667 343.5,456.5C 343.5,446.5 343.5,436.5 343.5,426.5 Z"/></g>
<g><path style="opacity:0.95" fill="#000000" d="M 139.5,178.5 C 228.167,178.333 316.834,178.5 405.5,179C 412.667,180.833 417.167,185.333 419,192.5C 419.667,281.167 419.667,369.833 419,458.5C 417.108,464.449 413.275,468.616 407.5,471C 317.5,471.667 227.5,471.667 137.5,471C 132.667,468.833 129.167,465.333 127,460.5C 126.333,370.5 126.333,280.5 127,190.5C 129.208,184.337 133.375,180.337 139.5,178.5 Z M 143.5,194.5 C 142.523,205.419 142.19,216.419 142.5,227.5C 153.5,227.5 164.5,227.5 175.5,227.5C 175.5,216.5 175.5,205.5 175.5,194.5C 164.833,194.5 154.167,194.5 143.5,194.5 Z M 191.5,194.5 C 191.5,205.5 191.5,216.5 191.5,227.5C 211.5,227.5 231.5,227.5 251.5,227.5C 251.5,216.5 251.5,205.5 251.5,194.5C 231.5,194.5 211.5,194.5 191.5,194.5 Z M 267.5,194.5 C 267.5,205.5 267.5,216.5 267.5,227.5C 278.429,227.204 281.762,232.037 277.5,242C 274.312,243.316 270.978,243.816 267.5,243.5C 267.5,253.5 267.5,263.5 267.5,273.5C 287.5,273.5 307.5,273.5 327.5,273.5C 327.5,263.5 327.5,253.5 327.5,243.5C 319.16,243.666 310.827,243.5 302.5,243C 297.167,238.333 297.167,233.667 302.5,229C 310.764,227.63 319.097,227.13 327.5,227.5C 327.5,216.5 327.5,205.5 327.5,194.5C 307.5,194.5 287.5,194.5 267.5,194.5 Z M 343.5,194.5 C 343.5,205.5 343.5,216.5 343.5,227.5C 363.5,227.5 383.5,227.5 403.5,227.5C 403.82,216.585 403.487,205.752 402.5,195C 382.836,194.5 363.169,194.333 343.5,194.5 Z M 142.5,243.5 C 142.5,253.5 142.5,263.5 142.5,273.5C 153.5,273.5 164.5,273.5 175.5,273.5C 175.5,263.5 175.5,253.5 175.5,243.5C 164.5,243.5 153.5,243.5 142.5,243.5 Z M 191.5,243.5 C 191.5,253.5 191.5,263.5 191.5,273.5C 211.5,273.5 231.5,273.5 251.5,273.5C 251.5,263.5 251.5,253.5 251.5,243.5C 231.5,243.5 211.5,243.5 191.5,243.5 Z M 343.5,243.5 C 343.5,253.5 343.5,263.5 343.5,273.5C 363.5,273.5 383.5,273.5 403.5,273.5C 403.5,263.5 403.5,253.5 403.5,243.5C 383.5,243.5 363.5,243.5 343.5,243.5 Z M 142.5,289.5 C 142.5,299.5 142.5,309.5 142.5,319.5C 153.5,319.5 164.5,319.5 175.5,319.5C 175.5,309.5 175.5,299.5 175.5,289.5C 164.5,289.5 153.5,289.5 142.5,289.5 Z M 191.5,289.5 C 191.5,299.5 191.5,309.5 191.5,319.5C 211.5,319.5 231.5,319.5 251.5,319.5C 251.5,309.5 251.5,299.5 251.5,289.5C 231.5,289.5 211.5,289.5 191.5,289.5 Z M 267.5,289.5 C 267.5,299.5 267.5,309.5 267.5,319.5C 287.5,319.5 307.5,319.5 327.5,319.5C 327.5,309.5 327.5,299.5 327.5,289.5C 307.5,289.5 287.5,289.5 267.5,289.5 Z M 343.5,289.5 C 343.5,299.5 343.5,309.5 343.5,319.5C 363.5,319.5 383.5,319.5 403.5,319.5C 403.5,309.5 403.5,299.5 403.5,289.5C 383.5,289.5 363.5,289.5 343.5,289.5 Z M 142.5,335.5 C 142.5,345.167 142.5,354.833 142.5,364.5C 153.5,364.5 164.5,364.5 175.5,364.5C 175.5,354.833 175.5,345.167 175.5,335.5C 164.5,335.5 153.5,335.5 142.5,335.5 Z M 191.5,335.5 C 191.5,345.167 191.5,354.833 191.5,364.5C 211.5,364.5 231.5,364.5 251.5,364.5C 251.5,354.833 251.5,345.167 251.5,335.5C 231.5,335.5 211.5,335.5 191.5,335.5 Z M 267.5,335.5 C 267.5,345.167 267.5,354.833 267.5,364.5C 287.5,364.5 307.5,364.5 327.5,364.5C 327.5,354.833 327.5,345.167 327.5,335.5C 307.5,335.5 287.5,335.5 267.5,335.5 Z M 343.5,335.5 C 343.5,345.167 343.5,354.833 343.5,364.5C 363.5,364.5 383.5,364.5 403.5,364.5C 403.5,354.833 403.5,345.167 403.5,335.5C 383.5,335.5 363.5,335.5 343.5,335.5 Z M 142.5,380.5 C 153.5,380.5 164.5,380.5 175.5,380.5C 175.5,390.5 175.5,400.5 175.5,410.5C 164.5,410.5 153.5,410.5 142.5,410.5C 142.5,400.5 142.5,390.5 142.5,380.5 Z M 191.5,380.5 C 211.5,380.5 231.5,380.5 251.5,380.5C 251.5,390.5 251.5,400.5 251.5,410.5C 231.5,410.5 211.5,410.5 191.5,410.5C 191.5,400.5 191.5,390.5 191.5,380.5 Z M 267.5,380.5 C 287.5,380.5 307.5,380.5 327.5,380.5C 327.5,390.5 327.5,400.5 327.5,410.5C 307.5,410.5 287.5,410.5 267.5,410.5C 267.5,400.5 267.5,390.5 267.5,380.5 Z M 343.5,380.5 C 363.5,380.5 383.5,380.5 403.5,380.5C 403.5,390.5 403.5,400.5 403.5,410.5C 383.5,410.5 363.5,410.5 343.5,410.5C 343.5,400.5 343.5,390.5 343.5,380.5 Z M 142.5,426.5 C 142.168,436.19 142.502,445.856 143.5,455.5C 154.115,456.477 164.781,456.81 175.5,456.5C 175.5,446.5 175.5,436.5 175.5,426.5C 164.5,426.5 153.5,426.5 142.5,426.5 Z M 191.5,426.5 C 191.5,436.5 191.5,446.5 191.5,456.5C 211.5,456.5 231.5,456.5 251.5,456.5C 251.5,446.5 251.5,436.5 251.5,426.5C 231.5,426.5 211.5,426.5 191.5,426.5 Z M 267.5,426.5 C 267.5,436.5 267.5,446.5 267.5,456.5C 287.5,456.5 307.5,456.5 327.5,456.5C 327.5,446.5 327.5,436.5 327.5,426.5C 307.5,426.5 287.5,426.5 267.5,426.5 Z M 343.5,426.5 C 343.5,436.5 343.5,446.5 343.5,456.5C 362.836,456.667 382.17,456.5 401.5,456C 402,455.5 402.5,455 403,454.5C 403.5,445.173 403.666,435.839 403.5,426.5C 383.5,426.5 363.5,426.5 343.5,426.5 Z"/></g>
</svg>
