<?xml version="1.0" encoding="UTF-8"?>
<!DOCTYPE svg PUBLIC "-//W3C//DTD SVG 1.1//EN" "http://www.w3.org/Graphics/SVG/1.1/DTD/svg11.dtd">
<svg xmlns="http://www.w3.org/2000/svg" version="1.1" width="512px" height="512px" style="shape-rendering:geometricPrecision; text-rendering:geometricPrecision; image-rendering:optimizeQuality; fill-rule:evenodd; clip-rule:evenodd" xmlns:xlink="http://www.w3.org/1999/xlink">
<g><path style="opacity:0.95" fill="#000000" d="M 233.5,-0.5 C 248.167,-0.5 262.833,-0.5 277.5,-0.5C 325.716,3.35908 366.549,22.6924 400,57.5C 402.723,60.5568 405.056,63.8901 407,67.5C 407.667,71.5 407.667,75.5 407,79.5C 399.333,133.167 391.667,186.833 384,240.5C 383.594,243.494 382.094,245.661 379.5,247C 370.84,247.5 362.173,247.666 353.5,247.5C 365.952,330.497 378.452,413.497 391,496.5C 391.667,500.167 391.667,503.833 391,507.5C 390.31,509.35 389.144,510.684 387.5,511.5C 368.833,511.5 350.167,511.5 331.5,511.5C 309.194,491.365 286.694,471.365 264,451.5C 263.667,470.167 263.333,488.833 263,507.5C 262.31,509.35 261.144,510.684 259.5,511.5C 256.833,511.5 254.167,511.5 251.5,511.5C 248.746,509.671 247.246,507.005 247,503.5C 246.667,486.5 246.333,469.5 246,452.5C 223.639,472.032 201.473,491.699 179.5,511.5C 160.833,511.5 142.167,511.5 123.5,511.5C 121.856,510.684 120.69,509.35 120,507.5C 119.333,503.5 119.333,499.5 120,495.5C 132.641,412.844 145.141,330.178 157.5,247.5C 148.827,247.666 140.16,247.5 131.5,247C 128.906,245.661 127.406,243.494 127,240.5C 119.333,186.833 111.667,133.167 104,79.5C 103.333,75.5 103.333,71.5 104,67.5C 120.795,44.5095 142.295,27.3428 168.5,16C 189.457,7.17788 211.124,1.67788 233.5,-0.5 Z M 253.5,15.5 C 296.409,14.7504 335.076,26.9171 369.5,52C 373.5,55.6667 377.5,59.3333 381.5,63C 354.167,63.3333 326.833,63.6667 299.5,64C 296.484,65.5286 295.151,68.0286 295.5,71.5C 295.151,74.9714 296.484,77.4714 299.5,79C 329.498,79.5 359.498,79.6666 389.5,79.5C 382.313,130.142 375.313,180.809 368.5,231.5C 293.167,231.5 217.833,231.5 142.5,231.5C 135.687,180.809 128.687,130.142 121.5,79.5C 151.502,79.6666 181.502,79.5 211.5,79C 214.516,77.4714 215.849,74.9714 215.5,71.5C 215.849,68.0286 214.516,65.5286 211.5,64C 184.167,63.6667 156.833,63.3333 129.5,63C 154.402,39.0497 184.069,24.3831 218.5,19C 230.271,17.3357 241.938,16.1691 253.5,15.5 Z M 254.5,87.5 C 255.496,87.4142 256.329,87.7476 257,88.5C 268.333,105.167 279.667,121.833 291,138.5C 299.388,161.341 292.555,177.841 270.5,188C 248.214,194.686 231.047,188.186 219,168.5C 215.426,158.357 215.759,148.357 220,138.5C 231.721,121.619 243.221,104.619 254.5,87.5 Z M 174.5,247.5 C 182.167,247.5 189.833,247.5 197.5,247.5C 187.914,329.853 178.081,412.187 168,494.5C 157.916,495.486 147.749,495.819 137.5,495.5C 150.02,412.861 162.353,330.194 174.5,247.5 Z M 225.5,248.5 C 232.648,247.508 239.981,247.175 247.5,247.5C 247.666,256.173 247.5,264.84 247,273.5C 239.968,264.975 232.802,256.641 225.5,248.5 Z M 263.5,247.5 C 270.841,247.334 278.174,247.5 285.5,248C 278.333,256.5 271.167,265 264,273.5C 263.5,264.84 263.334,256.173 263.5,247.5 Z M 313.5,247.5 C 321.167,247.5 328.833,247.5 336.5,247.5C 348.647,330.194 360.98,412.861 373.5,495.5C 363.251,495.819 353.084,495.486 343,494.5C 332.919,412.187 323.086,329.853 313.5,247.5 Z M 213.5,261.5 C 223.969,273.475 234.302,285.642 244.5,298C 231,314.167 217.5,330.333 204,346.5C 206.588,318.13 209.754,289.797 213.5,261.5 Z M 296.5,261.5 C 297.268,262.263 297.768,263.263 298,264.5C 301.516,291.814 304.516,319.148 307,346.5C 293.5,330.333 280,314.167 266.5,298C 276.712,285.96 286.712,273.793 296.5,261.5 Z M 246.5,321.5 C 247.664,351.997 247.831,382.664 247,413.5C 232.649,400.315 218.149,387.315 203.5,374.5C 218.236,357.104 232.569,339.437 246.5,321.5 Z M 263.5,321.5 C 278.114,339.123 292.78,356.789 307.5,374.5C 292.851,387.315 278.351,400.315 264,413.5C 263.5,382.835 263.333,352.168 263.5,321.5 Z M 197.5,392.5 C 212.332,405.83 227.332,418.997 242.5,432C 224,448.5 205.5,465 187,481.5C 190.408,451.898 193.908,422.231 197.5,392.5 Z M 312.5,392.5 C 317.064,422.007 320.897,451.673 324,481.5C 305.5,465 287,448.5 268.5,432C 283.66,419.338 298.326,406.171 312.5,392.5 Z"/></g>
<g><path style="opacity:0.929" fill="#000000" d="M 251.5,63.5 C 255.257,63.0708 258.757,63.7375 262,65.5C 275.753,86.0073 289.753,106.341 304,126.5C 318.585,156.329 312.418,180.829 285.5,200C 256.939,213.887 231.772,209.387 210,186.5C 197.166,167.153 196.166,147.153 207,126.5C 221.376,105.045 236.209,84.0449 251.5,63.5 Z M 254.5,87.5 C 243.221,104.619 231.721,121.619 220,138.5C 215.759,148.357 215.426,158.357 219,168.5C 231.047,188.186 248.214,194.686 270.5,188C 292.555,177.841 299.388,161.341 291,138.5C 279.667,121.833 268.333,105.167 257,88.5C 256.329,87.7476 255.496,87.4142 254.5,87.5 Z"/></g>
<g><path style="opacity:0.919" fill="#000000" d="M 267.5,143.5 C 278.446,142.66 282.279,147.66 279,158.5C 273.763,172.534 263.93,177.701 249.5,174C 247.058,169.948 246.891,165.781 249,161.5C 252.778,159.927 256.611,158.427 260.5,157C 262.378,153.326 263.878,149.493 265,145.5C 265.995,144.934 266.828,144.267 267.5,143.5 Z"/></g>
</svg>
