<?xml version="1.0" encoding="UTF-8"?>
<!DOCTYPE svg PUBLIC "-//W3C//DTD SVG 1.1//EN" "http://www.w3.org/Graphics/SVG/1.1/DTD/svg11.dtd">
<svg xmlns="http://www.w3.org/2000/svg" version="1.1" width="512px" height="512px" style="shape-rendering:geometricPrecision; text-rendering:geometricPrecision; image-rendering:optimizeQuality; fill-rule:evenodd; clip-rule:evenodd" xmlns:xlink="http://www.w3.org/1999/xlink">
<g><path style="opacity:0.969" fill="#000000" d="M 511.5,55.5 C 511.5,188.833 511.5,322.167 511.5,455.5C 510.038,456.458 508.705,457.624 507.5,459C 339.5,459.667 171.5,459.667 3.5,459C 2.29493,457.624 0.961599,456.458 -0.5,455.5C -0.5,322.167 -0.5,188.833 -0.5,55.5C 0.961599,54.5423 2.29493,53.3756 3.5,52C 67.1667,51.3333 130.833,51.3333 194.5,52C 195.931,52.4652 197.097,53.2986 198,54.5C 199.329,167.753 199.996,281.086 200,394.5C 201.908,400.74 206.075,404.573 212.5,406C 249.167,406.667 285.833,406.667 322.5,406C 329.743,404.348 333.909,399.848 335,392.5C 335.333,280.167 335.667,167.833 336,55.5C 337.214,53.9512 338.714,52.7845 340.5,52C 396.167,51.3333 451.833,51.3333 507.5,52C 508.705,53.3756 510.038,54.5423 511.5,55.5 Z M 15.5,67.5 C 71.1667,67.5 126.833,67.5 182.5,67.5C 182.5,80.5 182.5,93.5 182.5,106.5C 126.833,106.5 71.1667,106.5 15.5,106.5C 15.5,93.5 15.5,80.5 15.5,67.5 Z M 240.5,67.5 C 257.833,67.5 275.167,67.5 292.5,67.5C 292.803,72.43 292.469,77.2633 291.5,82C 272.828,91.2498 255.994,103.083 241,117.5C 240.5,100.837 240.333,84.17 240.5,67.5 Z M 351.5,67.5 C 399.5,67.5 447.5,67.5 495.5,67.5C 495.5,80.5 495.5,93.5 495.5,106.5C 447.5,106.5 399.5,106.5 351.5,106.5C 351.5,93.5 351.5,80.5 351.5,67.5 Z M 305.5,94.5 C 286.343,128.657 259.343,154.657 224.5,172.5C 231.655,153.494 242.989,137.327 258.5,124C 272.737,111.938 288.404,102.105 305.5,94.5 Z M 15.5,122.5 C 71.1667,122.5 126.833,122.5 182.5,122.5C 182.5,189.167 182.5,255.833 182.5,322.5C 126.833,322.5 71.1667,322.5 15.5,322.5C 15.5,255.833 15.5,189.167 15.5,122.5 Z M 351.5,122.5 C 399.5,122.5 447.5,122.5 495.5,122.5C 495.5,189.167 495.5,255.833 495.5,322.5C 447.5,322.5 399.5,322.5 351.5,322.5C 351.5,255.833 351.5,189.167 351.5,122.5 Z M 291.5,142.5 C 292.814,147.348 292.814,152.348 291.5,157.5C 272.858,166.977 256.025,178.977 241,193.5C 240.333,190.167 240.333,186.833 241,183.5C 259.907,172.308 276.741,158.642 291.5,142.5 Z M 304.5,169.5 C 305.043,169.56 305.376,169.893 305.5,170.5C 286.371,204.463 259.537,230.463 225,248.5C 227.694,239.112 232.027,230.445 238,222.5C 256.16,199.687 278.327,182.02 304.5,169.5 Z M 291.5,218.5 C 292.824,223.234 292.824,228.067 291.5,233C 272.828,242.25 255.994,254.083 241,268.5C 240.211,264.909 240.378,261.409 241.5,258C 260.236,247.464 276.903,234.297 291.5,218.5 Z M 305.5,245.5 C 286.343,279.657 259.343,305.657 224.5,323.5C 231.995,304.152 243.662,287.652 259.5,274C 273.413,262.21 288.747,252.71 305.5,245.5 Z M 291.5,293.5 C 292.662,311.995 292.829,330.662 292,349.5C 283.72,358.402 275.22,367.069 266.5,375.5C 257.845,366.677 249.345,357.677 241,348.5C 240.171,343.467 240.338,338.467 241.5,333.5C 260.23,322.772 276.897,309.439 291.5,293.5 Z M 15.5,338.5 C 71.1667,338.5 126.833,338.5 182.5,338.5C 182.333,356.503 182.5,374.503 183,392.5C 184.705,407.763 192.871,417.596 207.5,422C 247.5,422.667 287.5,422.667 327.5,422C 339.746,418.087 347.579,409.92 351,397.5C 351.5,377.836 351.667,358.169 351.5,338.5C 399.5,338.5 447.5,338.5 495.5,338.5C 495.5,373.5 495.5,408.5 495.5,443.5C 335.5,443.5 175.5,443.5 15.5,443.5C 15.5,408.5 15.5,373.5 15.5,338.5 Z"/></g>
<g><path style="opacity:0.94" fill="#000000" d="M 229.5,51.5 C 254.502,51.3334 279.502,51.5 304.5,52C 305.667,53.1667 306.833,54.3333 308,55.5C 308.333,61.8333 308.667,68.1667 309,74.5C 313.173,72.4418 317.507,70.7751 322,69.5C 328.649,70.7893 331.316,74.7893 330,81.5C 324.833,96.1677 317.833,109.834 309,122.5C 308.168,131.518 308.335,140.518 309.5,149.5C 329.462,141.634 334.962,147.634 326,167.5C 321.346,178.149 315.679,188.149 309,197.5C 308.5,206.494 308.334,215.494 308.5,224.5C 312.313,223.84 315.979,222.674 319.5,221C 325.926,219.541 329.592,222.041 330.5,228.5C 326.346,244.14 319.513,258.473 310,271.5C 309.667,298.5 309.333,325.5 309,352.5C 308.667,353.833 308.333,355.167 308,356.5C 295.799,369.033 283.965,381.866 272.5,395C 269.298,396.483 265.964,396.817 262.5,396C 250.333,383.167 238.167,370.333 226,357.5C 224.947,352.909 224.114,348.242 223.5,343.5C 219.533,345.656 215.366,347.323 211,348.5C 207.186,348.019 204.52,346.019 203,342.5C 204.968,322.561 211.968,304.561 224,288.5C 224.667,281.5 224.667,274.5 224,267.5C 219.08,271.253 213.58,272.753 207.5,272C 204.187,270.434 202.521,267.767 202.5,264C 205.788,245.457 212.954,228.624 224,213.5C 224.831,206.476 224.664,199.476 223.5,192.5C 219.603,194.866 215.436,196.533 211,197.5C 205.833,197 203,194.167 202.5,189C 205.699,170.111 212.866,152.944 224,137.5C 224.333,110.167 224.667,82.8333 225,55.5C 226.397,53.9297 227.897,52.5964 229.5,51.5 Z M 240.5,67.5 C 240.333,84.17 240.5,100.837 241,117.5C 255.994,103.083 272.828,91.2498 291.5,82C 292.469,77.2633 292.803,72.43 292.5,67.5C 275.167,67.5 257.833,67.5 240.5,67.5 Z M 305.5,94.5 C 286.343,128.657 259.343,154.657 224.5,172.5C 231.655,153.494 242.989,137.327 258.5,124C 272.737,111.938 288.404,102.105 305.5,94.5 Z M 291.5,142.5 C 276.741,158.642 259.907,172.308 241,183.5C 240.333,186.833 240.333,190.167 241,193.5C 256.025,178.977 272.858,166.977 291.5,157.5C 292.814,152.348 292.814,147.348 291.5,142.5 Z M 304.5,169.5 C 278.327,182.02 256.16,199.687 238,222.5C 232.027,230.445 227.694,239.112 225,248.5C 259.537,230.463 286.371,204.463 305.5,170.5C 305.376,169.893 305.043,169.56 304.5,169.5 Z M 291.5,218.5 C 276.903,234.297 260.236,247.464 241.5,258C 240.378,261.409 240.211,264.909 241,268.5C 255.994,254.083 272.828,242.25 291.5,233C 292.824,228.067 292.824,223.234 291.5,218.5 Z M 305.5,245.5 C 286.343,279.657 259.343,305.657 224.5,323.5C 231.995,304.152 243.662,287.652 259.5,274C 273.413,262.21 288.747,252.71 305.5,245.5 Z M 291.5,293.5 C 276.897,309.439 260.23,322.772 241.5,333.5C 240.338,338.467 240.171,343.467 241,348.5C 249.345,357.677 257.845,366.677 266.5,375.5C 275.22,367.069 283.72,358.402 292,349.5C 292.829,330.662 292.662,311.995 291.5,293.5 Z"/></g>
<g><path style="opacity:0.889" fill="#000000" d="M 470.5,144.5 C 476.192,143.26 480.026,145.26 482,150.5C 482.667,159.5 482.667,168.5 482,177.5C 479.167,182.777 475,184.277 469.5,182C 467.513,180.681 466.346,178.848 466,176.5C 465.333,167.833 465.333,159.167 466,150.5C 466.804,147.854 468.304,145.854 470.5,144.5 Z"/></g>
<g><path style="opacity:0.932" fill="#000000" d="M 370.5,147.5 C 375.28,146.641 378.78,148.308 381,152.5C 381.667,161.833 381.667,171.167 381,180.5C 376.775,187.358 371.775,188.025 366,182.5C 365.333,172.167 365.333,161.833 366,151.5C 367.397,149.93 368.897,148.596 370.5,147.5 Z"/></g>
<g><path style="opacity:0.931" fill="#000000" d="M 147.5,148.5 C 151.803,147.796 155.303,149.13 158,152.5C 158.667,162.833 158.667,173.167 158,183.5C 153,188.833 148,188.833 143,183.5C 142.333,173.5 142.333,163.5 143,153.5C 144.025,151.313 145.525,149.646 147.5,148.5 Z"/></g>
<g><path style="opacity:0.894" fill="#000000" d="M 44.5,151.5 C 49.4596,151.06 52.9596,153.06 55,157.5C 55.6667,166.5 55.6667,175.5 55,184.5C 54.015,188.666 51.3484,190.666 47,190.5C 42.6516,190.666 39.985,188.666 39,184.5C 38.3333,175.5 38.3333,166.5 39,157.5C 40.0209,154.65 41.8542,152.65 44.5,151.5 Z"/></g>
<g><path style="opacity:0.89" fill="#000000" d="M 426.5,180.5 C 430.57,180.735 433.403,182.735 435,186.5C 435.923,196.574 435.59,206.574 434,216.5C 430.205,219.803 426.038,220.303 421.5,218C 420.54,216.581 419.707,215.081 419,213.5C 418.08,203.758 418.413,194.092 420,184.5C 421.792,182.372 423.958,181.039 426.5,180.5 Z"/></g>
<g><path style="opacity:0.931" fill="#000000" d="M 101.5,185.5 C 105.155,185.787 107.988,187.453 110,190.5C 110.667,200.5 110.667,210.5 110,220.5C 104.956,227.15 99.9559,227.15 95,220.5C 94.3333,210.5 94.3333,200.5 95,190.5C 96.5631,187.977 98.7298,186.31 101.5,185.5 Z"/></g>
<g><path style="opacity:0.891" fill="#000000" d="M 470.5,225.5 C 476.192,224.26 480.026,226.26 482,231.5C 482.667,240.5 482.667,249.5 482,258.5C 479.043,263.608 474.876,265.108 469.5,263C 467.513,261.681 466.346,259.848 466,257.5C 465.333,248.833 465.333,240.167 466,231.5C 466.804,228.854 468.304,226.854 470.5,225.5 Z"/></g>
<g><path style="opacity:0.933" fill="#000000" d="M 147.5,231.5 C 152.28,230.641 155.78,232.308 158,236.5C 158.667,246.5 158.667,256.5 158,266.5C 153,271.833 148,271.833 143,266.5C 142.333,256.5 142.333,246.5 143,236.5C 144.025,234.313 145.525,232.646 147.5,231.5 Z"/></g>
<g><path style="opacity:0.937" fill="#000000" d="M 380.5,231.5 C 384.909,230.618 388.409,231.952 391,235.5C 391.667,245.5 391.667,255.5 391,265.5C 390.5,267.333 389.333,268.5 387.5,269C 382.788,270.443 378.955,269.277 376,265.5C 375.333,255.833 375.333,246.167 376,236.5C 377.025,234.313 378.525,232.646 380.5,231.5 Z"/></g>
<g><path style="opacity:0.933" fill="#000000" d="M 55.5,237.5 C 59.4257,237.047 62.5923,238.38 65,241.5C 65.6667,251.833 65.6667,262.167 65,272.5C 63.4714,275.516 60.9714,276.849 57.5,276.5C 53.8226,276.664 51.3226,274.997 50,271.5C 49.3333,261.833 49.3333,252.167 50,242.5C 51.3516,240.251 53.1849,238.584 55.5,237.5 Z"/></g>
<g><path style="opacity:0.89" fill="#000000" d="M 425.5,258.5 C 430.021,258.392 433.188,260.392 435,264.5C 435.667,273.5 435.667,282.5 435,291.5C 434.015,295.666 431.348,297.666 427,297.5C 423.089,297.207 420.422,295.207 419,291.5C 418.08,281.758 418.413,272.092 420,262.5C 421.5,260.531 423.333,259.198 425.5,258.5 Z"/></g>
<g><path style="opacity:0.934" fill="#000000" d="M 98.5,266.5 C 103.223,265.553 107.056,266.886 110,270.5C 110.667,280.5 110.667,290.5 110,300.5C 104.956,307.15 99.9559,307.15 95,300.5C 94.3333,290.5 94.3333,280.5 95,270.5C 95.6897,268.65 96.8564,267.316 98.5,266.5 Z"/></g>
<g><path style="opacity:0.928" fill="#000000" d="M 437.5,349.5 C 448.505,349.333 459.505,349.5 470.5,350C 475.94,355.442 475.607,360.442 469.5,365C 458.833,365.667 448.167,365.667 437.5,365C 430.931,359.796 430.931,354.63 437.5,349.5 Z"/></g>
<g><path style="opacity:0.891" fill="#000000" d="M 38.5,354.5 C 49.2449,354.071 59.9115,354.571 70.5,356C 73.3181,359.338 74.1515,363.171 73,367.5C 71.786,369.049 70.286,370.215 68.5,371C 57.4272,371.931 46.4272,371.597 35.5,370C 30.812,363.625 31.812,358.458 38.5,354.5 Z"/></g>
<g><path style="opacity:0.935" fill="#000000" d="M 111.5,372.5 C 122.172,372.333 132.839,372.5 143.5,373C 147.861,375.226 149.361,378.726 148,383.5C 147.167,385.667 145.667,387.167 143.5,388C 132.833,388.667 122.167,388.667 111.5,388C 108.484,386.471 107.151,383.971 107.5,380.5C 107.282,376.934 108.616,374.268 111.5,372.5 Z"/></g>
<g><path style="opacity:0.937" fill="#000000" d="M 375.5,380.5 C 386.172,380.333 396.839,380.5 407.5,381C 413.747,385.514 414.08,390.514 408.5,396C 397.5,396.667 386.5,396.667 375.5,396C 372.484,394.471 371.151,391.971 371.5,388.5C 371.667,387.167 371.833,385.833 372,384.5C 373.376,383.295 374.542,381.962 375.5,380.5 Z"/></g>
<g><path style="opacity:0.894" fill="#000000" d="M 57.5,407.5 C 67.8387,407.334 78.172,407.5 88.5,408C 95.4495,412.212 96.1162,417.212 90.5,423C 80.2267,424.566 69.8934,424.899 59.5,424C 52.8519,421.53 51.0185,417.03 54,410.5C 55.1451,409.364 56.3117,408.364 57.5,407.5 Z"/></g>
<g><path style="opacity:0.894" fill="#000000" d="M 437.5,409.5 C 447.566,409.105 457.566,409.605 467.5,411C 472.94,416.442 472.607,421.442 466.5,426C 456.167,426.667 445.833,426.667 435.5,426C 430.223,423.167 428.723,419 431,413.5C 432.792,411.372 434.958,410.039 437.5,409.5 Z"/></g>
</svg>
