<?xml version="1.0" encoding="UTF-8"?>
<!DOCTYPE svg PUBLIC "-//W3C//DTD SVG 1.1//EN" "http://www.w3.org/Graphics/SVG/1.1/DTD/svg11.dtd">
<svg xmlns="http://www.w3.org/2000/svg" version="1.1" width="512px" height="512px" style="shape-rendering:geometricPrecision; text-rendering:geometricPrecision; image-rendering:optimizeQuality; fill-rule:evenodd; clip-rule:evenodd" xmlns:xlink="http://www.w3.org/1999/xlink">
<g><path style="opacity:0.965" fill="#000000" d="M 511.5,431.5 C 511.5,444.833 511.5,458.167 511.5,471.5C 510.684,473.144 509.35,474.31 507.5,475C 451.5,475.667 395.5,475.667 339.5,475C 336.617,473.411 335.117,470.911 335,467.5C 334.5,459.507 334.334,451.507 334.5,443.5C 329.456,443.173 324.456,443.506 319.5,444.5C 310.959,473.534 291.626,486.367 261.5,483C 241.296,477.629 228.63,464.796 223.5,444.5C 215.5,443.167 207.5,443.167 199.5,444.5C 190.985,473.501 171.651,486.334 141.5,483C 121.296,477.629 108.63,464.796 103.5,444.5C 96.8581,443.669 90.1915,443.169 83.5,443C 80.617,441.411 79.117,438.911 79,435.5C 78.5002,424.839 78.3335,414.172 78.5,403.5C 60.1667,403.5 41.8333,403.5 23.5,403.5C 24.3857,419.481 24.719,435.481 24.5,451.5C 29.3616,451.841 32.0282,454.508 32.5,459.5C 31.9337,462.817 30.267,465.317 27.5,467C 19.5,467.667 11.5,467.667 3.5,467C 1.64977,466.31 0.316435,465.144 -0.5,463.5C -0.5,460.833 -0.5,458.167 -0.5,455.5C 1.2774,452.611 3.94407,451.278 7.5,451.5C 7.73756,435.479 7.40423,419.479 6.5,403.5C 3.34772,403.429 1.01439,402.095 -0.5,399.5C -0.5,354.167 -0.5,308.833 -0.5,263.5C 0.316435,261.856 1.64977,260.69 3.5,260C 41.8319,259.5 80.1652,259.333 118.5,259.5C 118.085,247.438 118.585,235.438 120,223.5C 120.5,221.667 121.667,220.5 123.5,220C 125.81,219.503 128.143,219.337 130.5,219.5C 130.171,212.759 130.671,206.092 132,199.5C 133.529,196.484 136.029,195.151 139.5,195.5C 142.971,195.151 145.471,196.484 147,199.5C 147.5,206.158 147.666,212.825 147.5,219.5C 150.187,219.336 152.854,219.503 155.5,220C 157.333,220.5 158.5,221.667 159,223.5C 159.5,235.495 159.667,247.495 159.5,259.5C 166.175,259.334 172.842,259.5 179.5,260C 181.333,260.5 182.5,261.667 183,263.5C 183.5,296.832 183.667,330.165 183.5,363.5C 188.833,363.5 194.167,363.5 199.5,363.5C 199.333,336.498 199.5,309.498 200,282.5C 205.055,263.779 217.222,253.279 236.5,251C 254.201,250.102 271.868,250.436 289.5,252C 304.833,256.667 314.833,266.667 319.5,282C 332.5,282.583 345.5,283.083 358.5,283.5C 358.333,216.499 358.5,149.499 359,82.5C 360.264,67.7462 367.764,57.7462 381.5,52.5C 382.33,46.8624 382.83,41.1958 383,35.5C 383.117,32.0885 384.617,29.5885 387.5,28C 398.931,27.0448 410.264,27.3781 421.5,29C 422.126,29.7504 422.626,30.5838 423,31.5C 423.5,37.8246 423.666,44.1579 423.5,50.5C 448.169,50.3334 472.836,50.5 497.5,51C 499.081,51.7065 500.581,52.5399 502,53.5C 503.644,75.4114 503.978,97.4114 503,119.5C 502.5,121.333 501.333,122.5 499.5,123C 492.842,123.5 486.175,123.666 479.5,123.5C 479.167,165.839 479.5,208.172 480.5,250.5C 487.515,253.431 489.348,258.431 486,265.5C 484.103,267.016 481.936,267.683 479.5,267.5C 479.337,269.857 479.503,272.19 480,274.5C 487.481,277.102 489.481,282.102 486,289.5C 484.103,291.016 481.936,291.683 479.5,291.5C 479.337,293.857 479.503,296.19 480,298.5C 487.481,301.102 489.481,306.102 486,313.5C 484.103,315.016 481.936,315.683 479.5,315.5C 479.337,317.857 479.503,320.19 480,322.5C 487.481,325.102 489.481,330.102 486,337.5C 484.103,339.016 481.936,339.683 479.5,339.5C 479.337,341.857 479.503,344.19 480,346.5C 487.481,349.102 489.481,354.102 486,361.5C 484.103,363.016 481.936,363.683 479.5,363.5C 479.337,365.857 479.503,368.19 480,370.5C 487.481,373.102 489.481,378.102 486,385.5C 484.103,387.016 481.936,387.683 479.5,387.5C 479.628,389.655 479.128,391.655 478,393.5C 473.833,399 469.667,404.5 465.5,410C 461.5,412 457.5,412 453.5,410C 448.878,403.922 444.378,397.755 440,391.5C 439.667,387.833 439.333,384.167 439,380.5C 431.519,377.898 429.519,372.898 433,365.5C 434.897,363.984 437.064,363.317 439.5,363.5C 439.663,361.143 439.497,358.81 439,356.5C 431.519,353.898 429.519,348.898 433,341.5C 434.897,339.984 437.064,339.317 439.5,339.5C 439.663,337.143 439.497,334.81 439,332.5C 431.519,329.898 429.519,324.898 433,317.5C 434.897,315.984 437.064,315.317 439.5,315.5C 439.663,313.143 439.497,310.81 439,308.5C 431.519,305.898 429.519,300.898 433,293.5C 434.897,291.984 437.064,291.317 439.5,291.5C 439.663,289.143 439.497,286.81 439,284.5C 431.519,281.898 429.519,276.898 433,269.5C 434.897,267.984 437.064,267.317 439.5,267.5C 439.663,265.143 439.497,262.81 439,260.5C 431.519,257.898 429.519,252.898 433,245.5C 434.897,243.984 437.064,243.317 439.5,243.5C 439.5,203.5 439.5,163.5 439.5,123.5C 434.167,123.5 428.833,123.5 423.5,123.5C 423.5,224.833 423.5,326.167 423.5,427.5C 451.502,427.333 479.502,427.5 507.5,428C 509.35,428.69 510.684,429.856 511.5,431.5 Z M 399.5,43.5 C 401.833,43.5 404.167,43.5 406.5,43.5C 406.5,171.5 406.5,299.5 406.5,427.5C 404.167,427.5 401.833,427.5 399.5,427.5C 399.5,299.5 399.5,171.5 399.5,43.5 Z M 424.5,67.5 C 445.5,67.5 466.5,67.5 487.5,67.5C 487.5,80.8333 487.5,94.1667 487.5,107.5C 466.5,107.5 445.5,107.5 424.5,107.5C 424.5,94.1667 424.5,80.8333 424.5,67.5 Z M 381.5,71.5 C 382.499,141.998 382.833,212.665 382.5,283.5C 380.167,283.5 377.833,283.5 375.5,283.5C 375.333,216.833 375.5,150.166 376,83.5C 376.499,78.8392 378.332,74.8392 381.5,71.5 Z M 455.5,123.5 C 458.167,123.5 460.833,123.5 463.5,123.5C 463.833,164.839 463.5,206.172 462.5,247.5C 460.291,246.894 458.124,246.227 456,245.5C 455.5,204.835 455.333,164.168 455.5,123.5 Z M 135.5,235.5 C 137.833,235.5 140.167,235.5 142.5,235.5C 142.5,243.5 142.5,251.5 142.5,259.5C 140.167,259.5 137.833,259.5 135.5,259.5C 135.5,251.5 135.5,243.5 135.5,235.5 Z M 455.5,263.5 C 458.127,264.092 460.794,264.425 463.5,264.5C 463.5,266.833 463.5,269.167 463.5,271.5C 460.873,270.908 458.206,270.575 455.5,270.5C 455.5,268.167 455.5,265.833 455.5,263.5 Z M 237.5,267.5 C 247.911,267.863 255.577,272.53 260.5,281.5C 253.189,282.331 245.856,282.831 238.5,283C 235.506,283.406 233.339,284.906 232,287.5C 230.538,312.782 230.038,338.115 230.5,363.5C 225.5,363.5 220.5,363.5 215.5,363.5C 215.065,337.133 215.565,310.8 217,284.5C 220.867,275.163 227.7,269.496 237.5,267.5 Z M 272.5,268.5 C 284.774,266.301 294.107,270.635 300.5,281.5C 293.524,282.664 286.524,282.831 279.5,282C 278.06,276.951 275.727,272.451 272.5,268.5 Z M 15.5,275.5 C 65.8333,275.5 116.167,275.5 166.5,275.5C 166.5,304.833 166.5,334.167 166.5,363.5C 116.167,363.5 65.8333,363.5 15.5,363.5C 15.5,334.167 15.5,304.833 15.5,275.5 Z M 455.5,287.5 C 458.127,288.092 460.794,288.425 463.5,288.5C 463.5,290.833 463.5,293.167 463.5,295.5C 460.873,294.908 458.206,294.575 455.5,294.5C 455.5,292.167 455.5,289.833 455.5,287.5 Z M 247.5,299.5 C 276.5,299.5 305.5,299.5 334.5,299.5C 334.5,310.167 334.5,320.833 334.5,331.5C 305.5,331.5 276.5,331.5 247.5,331.5C 247.5,320.833 247.5,310.167 247.5,299.5 Z M 351.5,299.5 C 361.833,299.5 372.167,299.5 382.5,299.5C 382.5,320.833 382.5,342.167 382.5,363.5C 372.167,363.5 361.833,363.5 351.5,363.5C 351.5,342.167 351.5,320.833 351.5,299.5 Z M 455.5,311.5 C 458.127,312.092 460.794,312.425 463.5,312.5C 463.5,314.833 463.5,317.167 463.5,319.5C 460.873,318.908 458.206,318.575 455.5,318.5C 455.5,316.167 455.5,313.833 455.5,311.5 Z M 455.5,335.5 C 458.127,336.092 460.794,336.425 463.5,336.5C 463.5,338.833 463.5,341.167 463.5,343.5C 460.873,342.908 458.206,342.575 455.5,342.5C 455.5,340.167 455.5,337.833 455.5,335.5 Z M 247.5,347.5 C 276.5,347.5 305.5,347.5 334.5,347.5C 334.5,352.833 334.5,358.167 334.5,363.5C 305.5,363.5 276.5,363.5 247.5,363.5C 247.5,358.167 247.5,352.833 247.5,347.5 Z M 455.5,359.5 C 458.127,360.092 460.794,360.425 463.5,360.5C 463.5,362.833 463.5,365.167 463.5,367.5C 460.873,366.908 458.206,366.575 455.5,366.5C 455.5,364.167 455.5,361.833 455.5,359.5 Z M 15.5,379.5 C 36.5,379.5 57.5,379.5 78.5,379.5C 78.5,382.167 78.5,384.833 78.5,387.5C 57.5,387.5 36.5,387.5 15.5,387.5C 15.5,384.833 15.5,382.167 15.5,379.5 Z M 95.5,379.5 C 175.167,379.5 254.833,379.5 334.5,379.5C 334.5,395.5 334.5,411.5 334.5,427.5C 329.489,427.666 324.489,427.499 319.5,427C 311.202,397.716 291.869,384.716 261.5,388C 241.296,393.371 228.63,406.204 223.5,426.5C 215.5,427.833 207.5,427.833 199.5,426.5C 190.985,397.499 171.651,384.666 141.5,388C 121.296,393.371 108.63,406.204 103.5,426.5C 100.914,427.48 98.2469,427.813 95.5,427.5C 95.5,411.5 95.5,395.5 95.5,379.5 Z M 351.5,379.5 C 361.833,379.5 372.167,379.5 382.5,379.5C 382.5,382.167 382.5,384.833 382.5,387.5C 372.167,387.5 361.833,387.5 351.5,387.5C 351.5,384.833 351.5,382.167 351.5,379.5 Z M 455.5,384.5 C 455.735,383.903 456.235,383.57 457,383.5C 458.811,384.078 460.645,384.578 462.5,385C 461.845,386.487 460.845,387.653 459.5,388.5C 458.16,387.133 456.827,385.8 455.5,384.5 Z M 351.5,403.5 C 361.833,403.5 372.167,403.5 382.5,403.5C 382.5,411.5 382.5,419.5 382.5,427.5C 372.167,427.5 361.833,427.5 351.5,427.5C 351.5,419.5 351.5,411.5 351.5,403.5 Z M 144.5,404.5 C 161.58,402.452 173.746,409.119 181,424.5C 185.771,443.119 179.604,456.619 162.5,465C 143.881,469.771 130.381,463.604 122,446.5C 117.236,425.685 124.736,411.685 144.5,404.5 Z M 264.5,404.5 C 281.58,402.452 293.746,409.119 301,424.5C 305.771,443.119 299.604,456.619 282.5,465C 262.325,469.831 248.492,462.664 241,443.5C 238.153,423.833 245.987,410.833 264.5,404.5 Z M 148.5,428.5 C 157.85,428.365 160.517,432.532 156.5,441C 147.956,444.322 144.123,441.489 145,432.5C 145.69,430.65 146.856,429.316 148.5,428.5 Z M 268.5,428.5 C 277.85,428.365 280.517,432.532 276.5,441C 267.956,444.322 264.123,441.489 265,432.5C 265.69,430.65 266.856,429.316 268.5,428.5 Z M 351.5,443.5 C 399.5,443.5 447.5,443.5 495.5,443.5C 495.5,448.833 495.5,454.167 495.5,459.5C 447.5,459.5 399.5,459.5 351.5,459.5C 351.5,454.167 351.5,448.833 351.5,443.5 Z"/></g>
<g><path style="opacity:0.985" fill="#000000" d="M 43.5,299.5 C 75.5017,299.333 107.502,299.5 139.5,300C 142.516,301.529 143.849,304.029 143.5,307.5C 143.849,310.971 142.516,313.471 139.5,315C 107.5,315.667 75.5,315.667 43.5,315C 40.484,313.471 39.1506,310.971 39.5,307.5C 39.2824,303.934 40.6157,301.268 43.5,299.5 Z"/></g>
<g><path style="opacity:0.985" fill="#000000" d="M 43.5,323.5 C 75.5017,323.333 107.502,323.5 139.5,324C 142.516,325.529 143.849,328.029 143.5,331.5C 143.849,334.971 142.516,337.471 139.5,339C 107.5,339.667 75.5,339.667 43.5,339C 40.484,337.471 39.1506,334.971 39.5,331.5C 39.2824,327.934 40.6157,325.268 43.5,323.5 Z"/></g>
<g><path style="opacity:0.934" fill="#000000" d="M 144.5,411.5 C 159.367,409.012 169.534,414.678 175,428.5C 177.982,443.376 172.482,453.543 158.5,459C 143.624,461.982 133.457,456.482 128,442.5C 125.146,427.533 130.646,417.199 144.5,411.5 Z M 148.5,428.5 C 146.856,429.316 145.69,430.65 145,432.5C 144.123,441.489 147.956,444.322 156.5,441C 160.517,432.532 157.85,428.365 148.5,428.5 Z"/></g>
<g><path style="opacity:0.933" fill="#000000" d="M 264.5,411.5 C 279.367,409.012 289.534,414.678 295,428.5C 297.982,443.376 292.482,453.543 278.5,459C 260.062,461.727 249.396,453.894 246.5,435.5C 247.626,423.724 253.626,415.724 264.5,411.5 Z M 268.5,428.5 C 266.856,429.316 265.69,430.65 265,432.5C 264.123,441.489 267.956,444.322 276.5,441C 280.517,432.532 277.85,428.365 268.5,428.5 Z"/></g>
</svg>
