<?xml version="1.0" encoding="UTF-8"?>
<!DOCTYPE svg PUBLIC "-//W3C//DTD SVG 1.1//EN" "http://www.w3.org/Graphics/SVG/1.1/DTD/svg11.dtd">
<svg xmlns="http://www.w3.org/2000/svg" version="1.1" width="512px" height="512px" style="shape-rendering:geometricPrecision; text-rendering:geometricPrecision; image-rendering:optimizeQuality; fill-rule:evenodd; clip-rule:evenodd" xmlns:xlink="http://www.w3.org/1999/xlink">
<g><path style="opacity:0.975" fill="#000000" d="M 251.5,7.5 C 254.978,7.18424 258.312,7.68424 261.5,9C 299.041,40.8768 336.875,72.3768 375,103.5C 375.333,80.8333 375.667,58.1667 376,35.5C 376.374,34.5838 376.874,33.7504 377.5,33C 391.41,31.8496 405.41,31.3496 419.5,31.5C 432.833,31.6667 446.167,31.8333 459.5,32C 460.416,32.3742 461.25,32.8742 462,33.5C 463.324,81.4168 463.991,129.417 464,177.5C 477.347,188.518 490.347,199.852 503,211.5C 503.817,214.964 503.483,218.298 502,221.5C 501.25,222.126 500.416,222.626 499.5,223C 487.505,223.5 475.505,223.667 463.5,223.5C 463.995,316.248 463.495,408.915 462,501.5C 461.25,502.126 460.416,502.626 459.5,503C 323.5,503.667 187.5,503.667 51.5,503C 50.5838,502.626 49.7504,502.126 49,501.5C 47.505,408.915 47.005,316.248 47.5,223.5C 35.4954,223.667 23.4954,223.5 11.5,223C 9.66667,222.5 8.5,221.333 8,219.5C 7.1834,216.036 7.51674,212.702 9,209.5C 89.7314,141.926 170.565,74.5922 251.5,7.5 Z M 254.5,27.5 C 255.922,27.7086 257.255,28.2086 258.5,29C 298.833,62.6667 339.167,96.3333 379.5,130C 384.117,131.297 387.95,130.13 391,126.5C 391.5,100.169 391.667,73.8354 391.5,47.5C 410.167,47.5 428.833,47.5 447.5,47.5C 447.333,93.8345 447.5,140.168 448,186.5C 455.553,193.687 463.386,200.52 471.5,207C 464.833,207.333 458.167,207.667 451.5,208C 449.667,208.5 448.5,209.667 448,211.5C 447.5,303.499 447.333,395.499 447.5,487.5C 319.5,487.5 191.5,487.5 63.5,487.5C 63.6667,395.499 63.5,303.499 63,211.5C 62.5,209.667 61.3333,208.5 59.5,208C 52.8333,207.667 46.1667,207.333 39.5,207C 111.357,147.302 183.024,87.4689 254.5,27.5 Z M 206.5,159.5 C 222.465,160.799 230.465,169.465 230.5,185.5C 230.193,201.617 222.36,211.617 207,215.5C 192.056,213.556 184.556,205.056 184.5,190C 184.487,174.224 191.82,164.057 206.5,159.5 Z M 97.5,264.5 C 118.5,264.5 139.5,264.5 160.5,264.5C 165.098,301.854 169.931,339.187 175,376.5C 175.406,379.494 176.906,381.661 179.5,383C 199.497,383.5 219.497,383.667 239.5,383.5C 239.5,388.833 239.5,394.167 239.5,399.5C 196.828,399.833 154.161,399.5 111.5,398.5C 106.307,353.903 101.64,309.237 97.5,264.5 Z"/></g>
<g><path style="opacity:0.961" fill="#000000" d="M 207.5,142.5 C 229.144,143.977 242.311,155.311 247,176.5C 250.047,193.154 245.881,207.654 234.5,220C 240.563,222.729 245.397,226.896 249,232.5C 256.324,250.305 263.158,268.305 269.5,286.5C 280.485,287.332 291.485,287.832 302.5,288C 316.628,293.748 322.295,304.248 319.5,319.5C 338.833,319.5 358.167,319.5 377.5,319.5C 378.666,314.17 380.332,309.003 382.5,304C 365.5,303.667 348.5,303.333 331.5,303C 329.667,302.5 328.5,301.333 328,299.5C 327.333,296.833 327.333,294.167 328,291.5C 328.5,289.667 329.667,288.5 331.5,288C 350.167,287.667 368.833,287.333 387.5,287C 395.593,263.554 403.593,240.054 411.5,216.5C 374.839,215.5 338.173,215.167 301.5,215.5C 296.394,233.317 290.394,250.817 283.5,268C 276.125,271.481 271.125,269.481 268.5,262C 274.465,243.104 280.632,224.271 287,205.5C 287.685,202.943 289.185,201.109 291.5,200C 336.833,199.333 382.167,199.333 427.5,200C 428.416,200.374 429.25,200.874 430,201.5C 431.504,205.039 431.837,208.705 431,212.5C 419.265,247.87 407.432,283.204 395.5,318.5C 403.479,319.332 411.479,319.832 419.5,320C 421.333,320.5 422.5,321.667 423,323.5C 423.667,366.167 423.667,408.833 423,451.5C 421.471,454.516 418.971,455.849 415.5,455.5C 412.029,455.849 409.529,454.516 408,451.5C 407.5,412.835 407.333,374.168 407.5,335.5C 391.5,335.5 375.5,335.5 359.5,335.5C 359.667,374.168 359.5,412.835 359,451.5C 357.471,454.516 354.971,455.849 351.5,455.5C 348.029,455.849 345.529,454.516 344,451.5C 343.5,412.835 343.333,374.168 343.5,335.5C 312.832,335.667 282.165,335.5 251.5,335C 248.484,333.471 247.151,330.971 247.5,327.5C 247.151,324.029 248.484,321.529 251.5,320C 268.497,319.5 285.497,319.333 302.5,319.5C 303.744,314.219 302.744,309.385 299.5,305C 286.222,303.742 272.889,303.075 259.5,303C 258.584,302.626 257.75,302.126 257,301.5C 250.209,285.127 244.209,268.46 239,251.5C 235.336,239.825 227.502,233.325 215.5,232C 198.465,231.107 181.465,231.44 164.5,233C 161.339,234.413 158.339,236.08 155.5,238C 153.108,240.728 151.108,243.728 149.5,247C 154.833,247.333 160.167,247.667 165.5,248C 170.598,249.433 174.098,252.6 176,257.5C 181.442,294.094 186.275,330.761 190.5,367.5C 208.836,367.333 227.17,367.5 245.5,368C 250,369.833 253.167,373 255,377.5C 256.818,392.772 257.818,408.105 258,423.5C 257.982,431.617 260.482,438.783 265.5,445C 268.984,447.267 272.651,447.767 276.5,446.5C 277.663,441.198 277.829,435.864 277,430.5C 275.44,409.776 273.44,389.109 271,368.5C 269.833,367.333 268.667,366.167 267.5,365C 251.5,360.333 235.5,355.667 219.5,351C 217.667,350.5 216.5,349.333 216,347.5C 215.333,326.167 215.333,304.833 216,283.5C 216.5,281.667 217.667,280.5 219.5,280C 222.964,279.183 226.298,279.517 229.5,281C 230.126,281.75 230.626,282.584 231,283.5C 231.5,301.497 231.667,319.497 231.5,337.5C 247.156,340.885 262.489,345.385 277.5,351C 284.288,355.74 288.121,362.24 289,370.5C 290.974,395.355 293.141,420.189 295.5,445C 292.845,460.178 283.845,466.178 268.5,463C 256.441,459.941 248.608,452.441 245,440.5C 243.412,432.218 242.245,423.885 241.5,415.5C 219.5,415.5 197.5,415.5 175.5,415.5C 175.5,420.833 175.5,426.167 175.5,431.5C 188.171,431.333 200.838,431.5 213.5,432C 218,433.833 221.167,437 223,441.5C 223.667,447.5 223.667,453.5 223,459.5C 222.5,461.333 221.333,462.5 219.5,463C 216.036,463.817 212.702,463.483 209.5,462C 208.874,461.25 208.374,460.416 208,459.5C 207.501,455.514 207.334,451.514 207.5,447.5C 180.833,447.5 154.167,447.5 127.5,447.5C 127.666,451.514 127.499,455.514 127,459.5C 125.471,462.516 122.971,463.849 119.5,463.5C 117.074,463.596 114.907,462.93 113,461.5C 111.414,454.943 111.08,448.276 112,441.5C 113.833,437 117,433.833 121.5,432C 134.162,431.5 146.829,431.333 159.5,431.5C 159.5,426.167 159.5,420.833 159.5,415.5C 141.164,415.667 122.83,415.5 104.5,415C 100.74,413.539 97.9069,411.039 96,407.5C 89.9904,359.748 84.4904,311.914 79.5,264C 79.9592,257.406 82.9592,252.406 88.5,249C 102.444,247.885 116.444,247.051 130.5,246.5C 137.746,225.551 152.413,214.884 174.5,214.5C 164.491,196.943 164.657,179.276 175,161.5C 182.98,150.1 193.813,143.766 207.5,142.5 Z M 206.5,159.5 C 191.82,164.057 184.487,174.224 184.5,190C 184.556,205.056 192.056,213.556 207,215.5C 222.36,211.617 230.193,201.617 230.5,185.5C 230.465,169.465 222.465,160.799 206.5,159.5 Z M 97.5,264.5 C 101.64,309.237 106.307,353.903 111.5,398.5C 154.161,399.5 196.828,399.833 239.5,399.5C 239.5,394.167 239.5,388.833 239.5,383.5C 219.497,383.667 199.497,383.5 179.5,383C 176.906,381.661 175.406,379.494 175,376.5C 169.931,339.187 165.098,301.854 160.5,264.5C 139.5,264.5 118.5,264.5 97.5,264.5 Z"/></g>
</svg>
